{
.formatVersion = 3;
axes = (
{
name = Weight;
tag = wght;
}
);
classes = (
{
code = "A O Scedilla Tcedilla aacute abreve acircumflex adieresis agrave amacron aogonek aring atilde j o scedilla tcedilla u uacute ubreve ucircumflex udieresis ugrave uhungarumlaut umacron uogonek uring utilde acyr zero.numerator one.numerator two.numerator three.numerator four.numerator five.numerator six.numerator seven.numerator eight.numerator nine.numerator exclamdown questiondown hyphen softhyphen endash emdash quoteright guillemotleft guillemotright guilsinglleft guilsinglright cent dollar Euro hryvnia ruble sterling tenge yen cent.tab dollar.tab Euro.tab hryvnia.tab ruble.tab sterling.tab tenge.tab yen.tab at dieresiscomb dotaccentcomb gravecomb acutecomb hungarumlautcomb circumflexcomb caroncomb brevecomb ringcomb tildecomb macroncomb commaaccentcomb cedillacomb ogonekcomb brevecombcy descendercy.alt";
name = aalt;
},
{
code = "ordfeminine ordmasculine Scommaaccent Tcommaaccent dotlessj ordmasculine scommaaccent tcommaaccent zero.denominator one.denominator two.denominator three.denominator four.denominator five.denominator six.denominator seven.denominator eight.denominator nine.denominator exclamdown.case questiondown.case hyphen.case softhyphen.case endash.case emdash.case quoteright.case guillemotleft.case guillemotright.case guilsinglleft.case guilsinglright.case cent.tab dollar.tab Euro.tab hryvnia.tab ruble.tab sterling.tab tenge.tab yen.tab cent dollar Euro hryvnia ruble sterling tenge yen at.case dieresiscomb.case dotaccentcomb.case gravecomb.case acutecomb.case hungarumlautcomb.case circumflexcomb.case caroncomb.case brevecomb.case ringcomb.case tildecomb.case macroncomb.case commaaccentcomb.case cedillacomb.case ogonekcomb.case brevecombcy.case descendercy.alt.case";
name = aalt2;
},
{

glyphs = (
{
glyphname = .notdef;
layers = (
{
layerId = "0CD817DE-E207-40E9-9EE5-B2F928C7D041";
shapes = (
{
closed = 1;
nodes = (
(418,-16,o),
(475,-6,o),
(510,26,cs),
(545,58,o),
(556,112,o),
(556,199,cs),
(556,491,ls),
(556,584,o),
(545,642,o),
(510,676,cs),
(475,710,o),
(418,721,o),
(323,721,cs),
(230,721,o),
(172,710,o),
(137,677,cs),
(102,644,o),
(90,587,o),
(90,496,cs),
(88,199,ls),
(88,112,o),
(98,58,o),
(134,26,cs),
(169,-6,o),
(227,-16,o),
(323,-16,cs)
);
},
{
closed = 1;
nodes = (
(209,97,l),
(209,277,l),
(228,280,o),
(244,281,o),
(263,281,cs),
(282,281,o),
(301,279,o),
(316,271,cs),
(331,262,o),
(341,247,o),
(341,220,cs),
(341,196,o),
(332,181,o),
(320,171,cs),
(307,161,o),
(290,156,o),
(271,156,cs),
(251,156,l),
(251,97,l)
);
},
{
closed = 1;
nodes = (
(264,192,ls),
(281,191,o),
(298,197,o),
(298,221,cs),
(298,241,o),
(282,246,o),
(265,246,cs),
(261,246,o),
(256,245,o),
(251,244,c),
(251,193,l)
);
},
{
closed = 1;
nodes = (
(359,94,o),
(347,102,o),
(347,118,cs),
(347,126,o),
(348,134,o),
(351,142,c),
(370,210,l),
(351,210,l),
(351,221,l),
(359,228,o),
(369,234,o),
(377,238,c),
(382,257,l),
(391,266,o),
(407,269,o),
(415,269,c),
(420,265,l),
(412,238,l),
(443,238,l),
(446,233,o),
(440,215,o),
(436,210,c),
(406,210,l),
(390,151,ls),
(389,146,o),
(388,142,o),
(388,135,cs),
(388,128,o),
(392,123,o),
(399,123,cs),
(407,123,o),
(415,125,o),
(423,129,c),
(423,114,l),
(408,102,o),
(391,94,o),
(372,94,cs)
);
},
{
closed = 1;
nodes = (
(308,428,l),
(308,538,l),
(317,533,o),
(326,530,o),
(335,527,c),
(335,428,l)
);
},
{
closed = 1;
nodes = (
(283,364,o),
(248,380,o),
(224,405,cs),
(199,430,o),
(183,465,o),
(183,504,cs),
(183,543,o),
(199,578,o),
(224,603,cs),
(248,628,o),
(283,644,o),
(322,644,cs),
(361,644,o),
(395,628,o),
(420,603,cs),
(445,578,o),
(461,543,o),
(461,504,cs),
(461,464,o),
(445,429,o),
(421,405,cs),
(396,380,o),
(361,364,o),
(322,364,cs)
);
},
{
closed = 1;
nodes = (
(354,391,o),
(383,403,o),
(404,423,cs),
(424,443,o),
(436,472,o),
(436,504,cs),
(436,536,o),
(423,564,o),
(403,584,cs),
(383,604,o),
(354,617,o),
(322,617,cs),
(290,617,o),
(261,604,o),
(241,584,cs),
(220,564,o),
(208,536,o),
(208,504,cs),
(208,472,o),
(220,444,o),
(241,424,c),
(261,403,o),
(290,391,o),
(322,391,cs)
);
},
{
closed = 1;
nodes = (
(257,535,l),
(256,566,o),
(270,579,o),
(291,579,cs),
(302,579,o),
(312,575,o),
(323,568,c),
(332,564,o),
(341,559,o),
(348,559,cs),
(359,559,o),
(362,566,o),
(362,581,c),
(383,581,l),
(386,546,o),
(371,535,o),
(351,535,cs),
(340,535,o),
(330,540,o),
(319,547,c),
(308,551,o),
(301,556,o),
(293,556,cs),
(284,556,o),
(278,551,o),
(278,535,c)
);
}
);
width = 643;
},
{
layerId = "F7A2C943-FF27-42DD-BB53-36E69242D1D6";
shapes = (
{
closed = 1;
nodes = (
(418,-16,o),
(475,-6,o),
(510,26,cs),
(545,58,o),
(556,112,o),
(556,199,cs),
(556,491,ls),
(556,584,o),
(545,642,o),
(510,676,cs),
(475,710,o),
(418,721,o),
(323,721,cs),
(230,721,o),
(172,710,o),
(137,677,cs),
(102,644,o),
(90,587,o),
(90,496,cs),
(88,199,ls),
(88,112,o),
(98,58,o),
(134,26,cs),
(169,-6,o),
(227,-16,o),
(323,-16,cs)
);
},
{
closed = 1;
nodes = (
(209,97,l),
(209,277,l),
(228,280,o),
(244,281,o),
(263,281,cs),
(282,281,o),
(301,279,o),
(316,271,cs),
(331,262,o),
(341,247,o),
(341,220,cs),
(341,196,o),
(332,181,o),
(320,171,cs),
(307,161,o),
(290,156,o),
(271,156,cs),
(251,156,l),
(251,97,l)
);
},
{
closed = 1;
nodes = (
(264,192,ls),
(281,191,o),
(298,197,o),
(298,221,cs),
(298,241,o),
(282,246,o),
(265,246,cs),
(261,246,o),
(256,245,o),
(251,244,c),
(251,193,l)
);
},
{
closed = 1;
nodes = (
(359,94,o),
(347,102,o),
(347,118,cs),
(347,126,o),
(348,134,o),
(351,142,c),
(370,210,l),
(351,210,l),
(351,221,l),
(359,228,o),
(369,234,o),
(377,238,c),
(382,257,l),
(391,266,o),
(407,269,o),
(415,269,c),
(420,265,l),
(412,238,l),
(443,238,l),
(446,233,o),
(440,215,o),
(436,210,c),
(406,210,l),
(390,151,ls),
(389,146,o),
(388,142,o),
(388,135,cs),
(388,128,o),
(392,123,o),
(399,123,cs),
(407,123,o),
(415,125,o),
(423,129,c),
(423,114,l),
(408,102,o),
(391,94,o),
(372,94,cs)
);
},
{
closed = 1;
nodes = (
(308,428,l),
(308,538,l),
(317,533,o),
(326,530,o),
(335,527,c),
(335,428,l)
);
},
{
closed = 1;
nodes = (
(283,364,o),
(248,380,o),
(224,405,cs),
(199,430,o),
(183,465,o),
(183,504,cs),
(183,543,o),
(199,578,o),
(224,603,cs),
(248,628,o),
(283,644,o),
(322,644,cs),
(361,644,o),
(395,628,o),
(420,603,cs),
(445,578,o),
(461,543,o),
(461,504,cs),
(461,464,o),
(445,429,o),
(421,405,cs),
(396,380,o),
(361,364,o),
(322,364,cs)
);
},
{
closed = 1;
nodes = (
(354,391,o),
(383,403,o),
(404,423,cs),
(424,443,o),
(436,472,o),
(436,504,cs),
(436,536,o),
(423,564,o),
(403,584,cs),
(383,604,o),
(354,617,o),
(322,617,cs),
(290,617,o),
(261,604,o),
(241,584,cs),
(220,564,o),
(208,536,o),
(208,504,cs),
(208,472,o),
(220,444,o),
(241,424,c),
(261,403,o),
(290,391,o),
(322,391,cs)
);
},
{
closed = 1;
nodes = (
(257,535,l),
(256,566,o),
(270,579,o),
(291,579,cs),
(302,579,o),
(312,575,o),
(323,568,c),
(332,564,o),
(341,559,o),
(348,559,cs),
(359,559,o),
(362,566,o),
(362,581,c),
(383,581,l),
(386,546,o),
(371,535,o),
(351,535,cs),
(340,535,o),
(330,540,o),
(319,547,c),
(308,551,o),
(301,556,o),
(293,556,cs),
(284,556,o),
(278,551,o),
(278,535,c)
);
}
);
width = 643;
},
{
layerId = "CEB2CA40-D0FD-4F6E-AD1A-0B625565F02B";
shapes = (
{
closed = 1;
nodes = (
(418,-16,o),
(475,-6,o),
(510,26,cs),
(545,58,o),
(556,112,o),
(556,199,cs),
(556,491,ls),
(556,584,o),
(545,642,o),
(510,676,cs),
(475,710,o),
(418,721,o),
(323,721,cs),
(230,721,o),
(172,710,o),
(137,677,cs),
(102,644,o),
(90,587,o),
(90,496,cs),
(88,199,ls),
(88,112,o),
(98,58,o),
(134,26,cs),
(169,-6,o),
(227,-16,o),
(323,-16,cs)
);
},
{
closed = 1;
nodes = (
(209,97,l),
(209,277,l),
(228,280,o),
(244,281,o),
(263,281,cs),
(282,281,o),
(301,279,o),
(316,271,cs),
(331,262,o),
(341,247,o),
(341,220,cs),
(341,196,o),
(332,181,o),
(320,171,cs),
(307,161,o),
(290,156,o),
(271,156,cs),
(251,156,l),
(251,97,l)
);
},
{
closed = 1;
nodes = (
(264,192,ls),
(281,191,o),
(298,197,o),
(298,221,cs),
(298,241,o),
(282,246,o),
(265,246,cs),
(261,246,o),
(256,245,o),
(251,244,c),
(251,193,l)
);
},
{
closed = 1;
nodes = (
(359,94,o),
(347,102,o),
(347,118,cs),
(347,126,o),
(348,134,o),
(351,142,c),
(370,210,l),
(351,210,l),
(351,221,l),
(359,228,o),
(369,234,o),
(377,238,c),
(382,257,l),
(391,266,o),
(407,269,o),
(415,269,c),
(420,265,l),
(412,238,l),
(443,238,l),
(446,233,o),
(440,215,o),
(436,210,c),
(406,210,l),
(390,151,ls),
(389,146,o),
(388,142,o),
(388,135,cs),
(388,128,o),
(392,123,o),
(399,123,cs),
(407,123,o),
(415,125,o),
(423,129,c),
(423,114,l),
(408,102,o),
(391,94,o),
(372,94,cs)
);
},
{
closed = 1;
nodes = (
(308,428,l),
(308,538,l),
(317,533,o),
(326,530,o),
(335,527,c),
(335,428,l)
);
},
{
closed = 1;
nodes = (
(283,364,o),
(248,380,o),
(224,405,cs),
(199,430,o),
(183,465,o),
(183,504,cs),
(183,543,o),
(199,578,o),
(224,603,cs),
(248,628,o),
(283,644,o),
(322,644,cs),
(361,644,o),
(395,628,o),
(420,603,cs),
(445,578,o),
(461,543,o),
(461,504,cs),
(461,464,o),
(445,429,o),
(421,405,cs),
(396,380,o),
(361,364,o),
(322,364,cs)
);
},
{
closed = 1;
nodes = (
(354,391,o),
(383,403,o),
(404,423,cs),
(424,443,o),
(436,472,o),
(436,504,cs),
(436,536,o),
(423,564,o),
(403,584,cs),
(383,604,o),
(354,617,o),
(322,617,cs),
(290,617,o),
(261,604,o),
(241,584,cs),
(220,564,o),
(208,536,o),
(208,504,cs),
(208,472,o),
(220,444,o),
(241,424,c),
(261,403,o),
(290,391,o),
(322,391,cs)
);
},
{
closed = 1;
nodes = (
(257,535,l),
(256,566,o),
(270,579,o),
(291,579,cs),
(302,579,o),
(312,575,o),
(323,568,c),
(332,564,o),
(341,559,o),
(348,559,cs),
(359,559,o),
(362,566,o),
(362,581,c),
(383,581,l),
(386,546,o),
(371,535,o),
(351,535,cs),
(340,535,o),
(330,540,o),
(319,547,c),
(308,551,o),
(301,556,o),
(293,556,cs),
(284,556,o),
(278,551,o),
(278,535,c)
);
}
);
width = 643;
}
);
},
{
glyphname = A;
layers = (
{
layerId = "0CD817DE-E207-40E9-9EE5-B2F928C7D041";
shapes = (
{
closed = 1;
nodes = (
(-17,0,l),
(158,0,l),
(342,508,l),
(310,508,l),
(494,0,l),
(683,0,l),
(407,700,l),
(254,700,l)
);
},
{
closed = 1;
nodes = (
(169,123,l),
(487,123,l),
(487,262,l),
(169,262,l)
);
}
);
width = 666;
},
{
layerId = "F7A2C943-FF27-42DD-BB53-36E69242D1D6";
shapes = (
{
closed = 1;
nodes = (
(20,0,l),
(114,0,l),
(350,600,l),
(310,600,l),
(547,0,l),
(646,0,l),
(360,700,l),
(303,700,l)
);
},
{
closed = 1;
nodes = (
(163,181,l),
(496,181,l),
(496,262,l),
(163,262,l)
);
}
);
width = 666;
},
{
layerId = "CEB2CA40-D0FD-4F6E-AD1A-0B625565F02B";
shapes = (
{
closed = 1;
nodes = (
(40,0,l),
(87,0,l),
(342,635,l),
(321,635,l),
(579,0,l),
(626,0,l),
(341,700,l),
(324,700,l)
);
},
{
closed = 1;
nodes = (
(160,221,l),
(502,221,l),
(502,264,l),
(160,264,l)
);
}
);
width = 666;
}
);
leftKerningGroup = A2;
rightKerningGroup = A;
unicode = 65;
},
{
glyphname = AE;
layers = (
{
layerId = "0CD817DE-E207-40E9-9EE5-B2F928C7D041";
shapes = (
{
closed = 1;
nodes = (
(639,299,l),
(799,299,l),
(799,444,l),
(639,444,l),
(639,550,l),
(851,550,l),
(851,700,l),
(459,700,l),
(28,0,l),
(200,0,l),
(459,433,l),
(459,0,l),
(861,0,l),
(861,150,l),
(639,150,l)
);
},
{
closed = 1;
nodes = (
(474,259,l),
(340,259,l),
(244,99,l),
(474,99,l)
);
}
);
width = 943;
},
{
layerId = "F7A2C943-FF27-42DD-BB53-36E69242D1D6";
shapes = (
{
closed = 1;
nodes = (
(586,334,l),
(806,334,l),
(806,415,l),
(586,415,l),
(586,618,l),
(855,618,l),
(855,700,l),
(496,700,l),
(23,0,l),
(125,0,l),
(496,555,l),
(496,0,l),
(865,0,l),
(865,82,l),
(586,82,l)
);
},
{
closed = 1;
nodes = (
(511,274,l),
(291,274,l),
(235,191,l),
(511,191,l)
);
}
);
width = 943;
},
{
layerId = "CEB2CA40-D0FD-4F6E-AD1A-0B625565F02B";
shapes = (
{
closed = 1;
nodes = (
(548,357,l),
(801,357,l),
(801,401,l),
(548,401,l),
(548,658,l),
(851,658,l),
(851,700,l),
(504,700,l),
(14,0,l),
(66,0,l),
(503,627,l),
(503,0,l),
(861,0,l),
(861,42,l),
(548,42,l)
);
},
{
closed = 1;
nodes = (
(518,265,l),
(237,265,l),
(208,222,l),
(518,222,l)
);
}
);
width = 943;
}
);
rightKerningGroup = E;
unicode = 198;
},
{
glyphname = B;
layers = (
{
layerId = "0CD817DE-E207-40E9-9EE5-B2F928C7D041";
shapes = (
{
closed = 1;
nodes = (
(48,0,l),
(330,0,ls),
(460,0,o),
(585,73,o),
(585,215,cs),
(585,271,o),
(565,315,o),
(530,345,cs),
(494,375,o),
(442,391,o),
(378,392,c),
(365,357,l),
(466,363,o),
(543,424,o),
(543,530,cs),
(543,578,o),
(525,622,o),
(489,652,cs),
(452,682,o),
(396,700,o),
(317,700,cs),
(48,700,l)
);
},
{
closed = 1;
nodes = (
(228,72,l),
(228,614,l),
(161,550,l),
(297,550,ls),
(340,550,o),
(365,533,o),
(365,490,cs),
(365,445,o),
(338,422,o),
(294,422,cs),
(161,422,l),
(161,292,l),
(312,292,ls),
(341,292,o),
(363,286,o),
(377,274,cs),
(391,262,o),
(397,246,o),
(397,223,cs),
(397,160,o),
(341,150,o),
(290,150,cs),
(161,150,l)
);
}
);
width = 600;
},
{
layerId = "F7A2C943-FF27-42DD-BB53-36E69242D1D6";
shapes = (
{
closed = 1;
nodes = (
(104,0,l),
(299,0,ls),
(426,0,o),
(546,70,o),
(546,209,cs),
(546,262,o),
(527,308,o),
(495,341,c),
(462,372,o),
(417,391,o),
(364,394,c),
(368,378,l),
(441,397,o),
(489,459,o),
(489,535,cs),
(489,584,o),
(470,625,o),
(437,655,c),
(403,683,o),
(353,700,o),
(292,700,cs),
(104,700,l)
);
},
{
closed = 1;
nodes = (
(192,38,l),
(192,659,l),
(159,618,l),
(267,618,ls),
(356,618,o),
(398,585,o),
(398,521,cs),
(398,443,o),
(335,414,o),
(267,414,cs),
(171,414,l),
(171,337,l),
(296,337,ls),
(342,337,o),
(382,328,o),
(410,307,cs),
(438,287,o),
(454,255,o),
(454,214,cs),
(454,112,o),
(366,82,o),
(278,82,cs),
(159,82,l)
);
}
);
width = 600;
},
{
layerId = "CEB2CA40-D0FD-4F6E-AD1A-0B625565F02B";
shapes = (
{
closed = 1;
nodes = (
(130,0,l),
(282,0,ls),
(405,0,o),
(529,62,o),
(529,200,cs),
(529,265,o),
(502,313,o),
(462,344,c),
(421,374,o),
(365,387,o),
(307,388,c),
(296,371,l),
(388,384,o),
(479,431,o),
(479,538,cs),
(479,587,o),
(461,628,o),
(427,656,cs),
(391,684,o),
(343,700,o),
(280,700,cs),
(130,700,l)
);
},
{
closed = 1;
nodes = (
(175,24,l),
(175,674,l),
(157,658,l),
(271,658,ls),
(387,658,o),
(434,611,o),
(434,532,cs),
(434,430,o),
(336,401,o),
(251,401,cs),
(167,401,l),
(167,358,l),
(278,358,ls),
(333,358,o),
(386,347,o),
(423,322,c),
(460,295,o),
(483,255,o),
(483,198,cs),
(483,82,o),
(374,42,o),
(274,42,cs),
(157,42,l)
);
}
);
width = 600;
}
);
unicode = 66;
},
{
glyphname = C;
layers = (
{
layerId = "0CD817DE-E207-40E9-9EE5-B2F928C7D041";
shapes = (
{
closed = 1;
nodes = (
(472,-7,o),
(522,2,o),
(566,17,cs),
(609,32,o),
(644,53,o),
(669,77,c),
(598,200,l),
(575,179,o),
(549,165,o),
(522,158,cs),
(495,151,o),
(469,149,o),
(449,149,cs),
(321,149,o),
(235,222,o),
(235,354,cs),
(235,474,o),
(316,555,o),
(436,555,cs),
(483,555,o),
(537,542,o),
(584,511,c),
(652,634,l),
(591,682,o),
(515,710,o),
(419,710,cs),
(204,710,o),
(45,567,o),
(45,348,cs),
(45,125,o),
(199,-7,o),
(416,-7,cs)
);
}
);
width = 705;
},
{
layerId = "F7A2C943-FF27-42DD-BB53-36E69242D1D6";
shapes = (
{
closed = 1;
nodes = (
(491,-10,o),
(537,-1,o),
(576,13,cs),
(615,26,o),
(646,45,o),
(670,65,c),
(626,137,l),
(600,115,o),
(570,100,o),
(539,89,cs),
(508,79,o),
(475,75,o),
(442,75,cs),
(281,75,o),
(152,183,o),
(152,350,cs),
(152,513,o),
(276,625,o),
(437,625,cs),
(503,625,o),
(564,606,o),
(615,571,c),
(655,645,l),
(599,684,o),
(524,710,o),
(432,710,cs),
(219,710,o),
(59,565,o),
(59,349,cs),
(59,129,o),
(222,-10,o),
(436,-10,cs)
);
}
);
width = 705;
},
{
layerId = "CEB2CA40-D0FD-4F6E-AD1A-0B625565F02B";
shapes = (
{
closed = 1;
nodes = (
(473,-10,o),
(519,-1,o),
(559,13,cs),
(599,28,o),
(632,46,o),
(656,66,c),
(632,103,l),
(604,80,o),
(570,63,o),
(534,52,c),
(499,40,o),
(460,34,o),
(419,34,cs),
(232,34,o),
(99,163,o),
(99,351,cs),
(99,542,o),
(239,666,o),
(426,666,cs),
(502,666,o),
(571,643,o),
(622,607,c),
(647,645,l),
(591,682,o),
(520,710,o),
(425,710,cs),
(216,710,o),
(53,566,o),
(53,351,cs),
(53,130,o),
(207,-10,o),
(425,-10,cs)
);
}
);
width = 705;
}
);
leftKerningGroup = C2;
rightKerningGroup = C;
unicode = 67;
},
{
glyphname = D;
layers = (
{
layerId = "0CD817DE-E207-40E9-9EE5-B2F928C7D041";
shapes = (
{
closed = 1;
nodes = (
(141,150,l),
(140,0,l),
(309,0,ls),
(532,0,o),
(699,117,o),
(699,354,cs),
(699,458,o),
(667,544,o),
(604,605,cs),
(541,665,o),
(449,700,o),
(329,700,cs),
(141,700,l),
(141,550,l),
(298,550,ls),
(359,550,o),
(413,536,o),
(450,505,cs),
(487,473,o),
(509,424,o),
(509,355,cs),
(509,212,o),
(429,150,o),
(292,150,cs)
);
},
{
closed = 1;
nodes = (
(244,700,l),
(64,700,l),
(64,0,l),
(244,0,l)
);
}
);
width = 729;
},
{
layerId = "F7A2C943-FF27-42DD-BB53-36E69242D1D6";
shapes = (
{
closed = 1;
nodes = (
(150,82,l),
(149,0,l),
(297,0,ls),
(512,0,o),
(672,126,o),
(672,351,cs),
(672,455,o),
(637,541,o),
(573,603,cs),
(508,665,o),
(415,700,o),
(298,700,cs),
(150,700,l),
(150,618,l),
(291,618,ls),
(378,618,o),
(450,593,o),
(500,548,cs),
(550,502,o),
(579,435,o),
(579,350,cs),
(579,174,o),
(459,82,o),
(290,82,cs)
);
},
{
closed = 1;
nodes = (
(197,700,l),
(107,700,l),
(107,0,l),
(197,0,l)
);
}
);
width = 729;
},
{
layerId = "CEB2CA40-D0FD-4F6E-AD1A-0B625565F02B";
shapes = (
{
closed = 1;
nodes = (
(154,42,l),
(153,0,l),
(294,0,ls),
(511,0,o),
(662,134,o),
(662,356,cs),
(662,460,o),
(624,546,o),
(559,607,cs),
(494,666,o),
(400,700,o),
(287,700,cs),
(154,700,l),
(154,658,l),
(287,658,ls),
(390,658,o),
(472,629,o),
(527,576,cs),
(583,523,o),
(615,446,o),
(615,352,cs),
(615,155,o),
(481,42,o),
(289,42,cs)
);
},
{
closed = 1;
nodes = (
(172,700,l),
(128,700,l),
(128,0,l),
(172,0,l)
);
}
);
width = 729;
}
);
rightKerningGroup = D;
unicode = 68;
},
{
glyphname = Eth;
layers = (
{
layerId = "0CD817DE-E207-40E9-9EE5-B2F928C7D041";
shapes = (
{
closed = 1;
nodes = (
(394,438,l),
(13,438,l),
(13,288,l),
(394,288,l)
);
},
{
closed = 1;
nodes = (
(141,150,l),
(140,0,l),
(309,0,ls),
(532,0,o),
(699,117,o),
(699,354,cs),
(699,458,o),
(667,544,o),
(604,605,cs),
(541,665,o),
(449,700,o),
(329,700,cs),
(141,700,l),
(141,550,l),
(298,550,ls),
(359,550,o),
(413,536,o),
(450,505,cs),
(487,473,o),
(509,424,o),
(509,355,cs),
(509,212,o),
(429,150,o),
(292,150,cs)
);
},
{
closed = 1;
nodes = (
(244,700,l),
(64,700,l),
(64,0,l),
(244,0,l)
);
}
);
width = 729;
},
{
layerId = "F7A2C943-FF27-42DD-BB53-36E69242D1D6";
shapes = (
{
closed = 1;
nodes = (
(405,407,l),
(24,407,l),
(24,326,l),
(405,326,l)
);
},
{
closed = 1;
nodes = (
(150,82,l),
(149,0,l),
(297,0,ls),
(512,0,o),
(672,126,o),
(672,351,cs),
(672,455,o),
(637,541,o),
(573,603,cs),
(508,665,o),
(415,700,o),
(298,700,cs),
(150,700,l),
(150,618,l),
(291,618,ls),
(378,618,o),
(450,593,o),
(500,548,cs),
(550,502,o),
(579,435,o),
(579,350,cs),
(579,174,o),
(459,82,o),
(290,82,cs)
);
},
{
closed = 1;
nodes = (
(197,700,l),
(107,700,l),
(107,0,l),
(197,0,l)
);
}
);
width = 729;
},
{
layerId = "CEB2CA40-D0FD-4F6E-AD1A-0B625565F02B";
shapes = (
{
closed = 1;
nodes = (
(409,399,l),
(28,399,l),
(28,357,l),
(409,357,l)
);
},
{
closed = 1;
nodes = (
(154,42,l),
(153,0,l),
(294,0,ls),
(511,0,o),
(662,134,o),
(662,356,cs),
(662,460,o),
(624,546,o),
(559,607,cs),
(494,666,o),
(400,700,o),
(287,700,cs),
(154,700,l),
(154,658,l),
(287,658,ls),
(390,658,o),
(472,629,o),
(527,576,cs),
(583,523,o),
(615,446,o),
(615,352,cs),
(615,155,o),
(481,42,o),
(289,42,cs)
);
},
{
closed = 1;
nodes = (
(172,700,l),
(128,700,l),
(128,0,l),
(172,0,l)
);
}
);
width = 729;
}
);
rightKerningGroup = D;
unicode = 208;
},
{
glyphname = E;
layers = (
{
layerId = "0CD817DE-E207-40E9-9EE5-B2F928C7D041";
shapes = (
{
closed = 1;
nodes = (
(89,0,l),
(511,0,l),
(511,150,l),
(269,150,l),
(269,292,l),
(458,292,l),
(458,437,l),
(269,437,l),
(269,550,l),
(501,550,l),
(501,700,l),
(89,700,l)
);
}
);
width = 564;
},
{
layerId = "F7A2C943-FF27-42DD-BB53-36E69242D1D6";
shapes = (
{
closed = 1;
nodes = (
(110,0,l),
(490,0,l),
(490,82,l),
(200,82,l),
(200,331,l),
(432,331,l),
(432,412,l),
(200,412,l),
(200,618,l),
(480,618,l),
(480,700,l),
(110,700,l)
);
}
);
width = 564;
},
{
layerId = "CEB2CA40-D0FD-4F6E-AD1A-0B625565F02B";
shapes = (
{
closed = 1;
nodes = (
(125,0,l),
(484,0,l),
(484,42,l),
(170,42,l),
(170,357,l),
(423,357,l),
(423,399,l),
(170,399,l),
(170,658,l),
(474,658,l),
(474,700,l),
(125,700,l)
);
}
);
width = 564;
}
);
rightKerningGroup = E;
unicode = 69;
},
{
glyphname = F;
layers = (
{
layerId = "0CD817DE-E207-40E9-9EE5-B2F928C7D041";
shapes = (
{
closed = 1;
nodes = (
(87,0,l),
(267,0,l),
(267,272,l),
(459,272,l),
(459,422,l),
(267,422,l),
(267,550,l),
(479,550,l),
(479,700,l),
(87,700,l)
);
}
);
width = 541;
},
{
layerId = "F7A2C943-FF27-42DD-BB53-36E69242D1D6";
shapes = (
{
closed = 1;
nodes = (
(110,0,l),
(200,0,l),
(200,310,l),
(450,310,l),
(450,391,l),
(200,391,l),
(200,618,l),
(470,618,l),
(470,700,l),
(110,700,l)
);
}
);
width = 541;
},
{
layerId = "CEB2CA40-D0FD-4F6E-AD1A-0B625565F02B";
shapes = (
{
closed = 1;
nodes = (
(125,0,l),
(170,0,l),
(170,331,l),
(449,331,l),
(449,374,l),
(170,374,l),
(170,658,l),
(469,658,l),
(469,700,l),
(125,700,l)
);
}
);
width = 541;
}
);
unicode = 70;
},
{
glyphname = G;
layers = (
{
layerId = "0CD817DE-E207-40E9-9EE5-B2F928C7D041";
shapes = (
{
closed = 1;
nodes = (
(674,-7,o),
(779,177,o),
(781,408,c),
(391,408,l),
(391,258,l),
(652,258,l),
(604,307,l),
(591,205,o),
(535,148,o),
(432,148,cs),
(379,148,o),
(330,165,o),
(295,199,cs),
(259,233,o),
(238,283,o),
(238,350,cs),
(238,461,o),
(303,555,o),
(421,555,cs),
(460,555,o),
(498,543,o),
(532,526,cs),
(566,509,o),
(597,485,o),
(621,458,c),
(729,571,l),
(696,620,o),
(647,656,o),
(593,678,cs),
(539,700,o),
(478,710,o),
(418,710,cs),
(203,710,o),
(48,569,o),
(48,351,cs),
(48,243,o),
(91,153,o),
(159,91,cs),
(227,29,o),
(319,-7,o),
(418,-7,cs)
);
}
);
width = 830;
},
{
layerId = "F7A2C943-FF27-42DD-BB53-36E69242D1D6";
shapes = (
{
closed = 1;
nodes = (
(653,-10,o),
(770,143,o),
(771,363,c),
(413,363,l),
(413,277,l),
(705,277,l),
(680,308,l),
(670,158,o),
(574,75,o),
(425,75,cs),
(346,75,o),
(279,104,o),
(231,153,c),
(181,200,o),
(152,268,o),
(152,347,cs),
(152,505,o),
(264,625,o),
(424,625,cs),
(463,625,o),
(504,619,o),
(544,604,cs),
(583,589,o),
(622,566,o),
(654,531,c),
(714,601,l),
(675,641,o),
(628,669,o),
(579,686,cs),
(530,703,o),
(478,710,o),
(428,710,cs),
(213,710,o),
(59,565,o),
(59,348,cs),
(59,246,o),
(95,156,o),
(159,93,cs),
(223,29,o),
(312,-10,o),
(419,-10,cs)
);
}
);
width = 830;
},
{
layerId = "CEB2CA40-D0FD-4F6E-AD1A-0B625565F02B";
shapes = (
{
closed = 1;
nodes = (
(639,-10,o),
(763,136,o),
(763,342,c),
(425,342,l),
(425,298,l),
(729,298,l),
(717,311,l),
(704,136,o),
(596,34,o),
(420,34,cs),
(320,34,o),
(245,69,o),
(193,127,cs),
(141,184,o),
(112,264,o),
(112,351,cs),
(112,536,o),
(245,666,o),
(431,666,cs),
(474,666,o),
(515,660,o),
(553,646,cs),
(590,633,o),
(625,615,o),
(654,590,c),
(680,630,l),
(651,653,o),
(616,672,o),
(576,687,cs),
(536,702,o),
(490,710,o),
(436,710,cs),
(224,710,o),
(67,565,o),
(67,351,cs),
(67,250,o),
(100,161,o),
(160,95,cs),
(221,30,o),
(310,-10,o),
(421,-10,cs)
);
}
);
width = 830;
}
);
leftKerningGroup = C2;
rightKerningGroup = D;
unicode = 71;
},
{
glyphname = H;
layers = (
{
layerId = "0CD817DE-E207-40E9-9EE5-B2F928C7D041";
shapes = (
{
closed = 1;
nodes = (
(590,440,l),
(164,440,l),
(164,290,l),
(590,290,l)
);
},
{
closed = 1;
nodes = (
(254,700,l),
(74,700,l),
(74,0,l),
(254,0,l)
);
},
{
closed = 1;
nodes = (
(500,0,l),
(680,0,l),
(680,700,l),
(500,700,l)
);
}
);
width = 754;
},
{
layerId = "F7A2C943-FF27-42DD-BB53-36E69242D1D6";
shapes = (
{
closed = 1;
nodes = (
(601,410,l),
(153,410,l),
(153,329,l),
(601,329,l)
);
},
{
closed = 1;
nodes = (
(198,700,l),
(108,700,l),
(108,0,l),
(198,0,l)
);
},
{
closed = 1;
nodes = (
(556,0,l),
(646,0,l),
(646,700,l),
(556,700,l)
);
}
);
width = 754;
},
{
layerId = "CEB2CA40-D0FD-4F6E-AD1A-0B625565F02B";
shapes = (
{
closed = 1;
nodes = (
(605,399,l),
(145,399,l),
(145,357,l),
(605,357,l)
);
},
{
closed = 1;
nodes = (
(168,700,l),
(123,700,l),
(123,0,l),
(168,0,l)
);
},
{
closed = 1;
nodes = (
(586,0,l),
(631,0,l),
(631,700,l),
(586,700,l)
);
}
);
width = 754;
}
);
rightKerningGroup = H;
unicode = 72;
},
{
glyphname = Hbar;
layers = (
{
layerId = "0CD817DE-E207-40E9-9EE5-B2F928C7D041";
shapes = (
{
closed = 1;
nodes = (
(28,490,l),
(74,490,l),
(74,0,l),
(254,0,l),
(254,290,l),
(500,290,l),
(500,0,l),
(680,0,l),
(680,490,l),
(726,490,l),
(726,620,l),
(680,620,l),
(680,700,l),
(500,700,l),
(500,620,l),
(254,620,l),
(254,700,l),
(74,700,l),
(74,620,l),
(28,620,l)
);
},
{
closed = 1;
nodes = (
(254,440,l),
(254,490,l),
(500,490,l),
(500,440,l)
);
}
);
width = 754;
},
{
layerId = "F7A2C943-FF27-42DD-BB53-36E69242D1D6";
shapes = (
{
closed = 1;
nodes = (
(42,507,l),
(108,507,l),
(108,0,l),
(198,0,l),
(198,329,l),
(556,329,l),
(556,0,l),
(646,0,l),
(646,507,l),
(712,507,l),
(712,586,l),
(646,586,l),
(646,700,l),
(556,700,l),
(556,586,l),
(198,586,l),
(198,700,l),
(108,700,l),
(108,586,l),
(42,586,l)
);
},
{
closed = 1;
nodes = (
(198,410,l),
(198,507,l),
(556,507,l),
(556,410,l)
);
}
);
width = 754;
},
{
layerId = "CEB2CA40-D0FD-4F6E-AD1A-0B625565F02B";
shapes = (
{
closed = 1;
nodes = (
(35,521,l),
(123,521,l),
(123,0,l),
(168,0,l),
(168,357,l),
(586,357,l),
(586,0,l),
(631,0,l),
(631,521,l),
(719,521,l),
(719,564,l),
(631,564,l),
(631,700,l),
(586,700,l),
(586,564,l),
(168,564,l),
(168,700,l),
(123,700,l),
(123,564,l),
(35,564,l)
);
},
{
closed = 1;
nodes = (
(168,399,l),
(168,521,l),
(586,521,l),
(586,399,l)
);
}
);
width = 754;
}
);
rightKerningGroup = H;
unicode = 294;
},
{
glyphname = I;
layers = (
{
layerId = "0CD817DE-E207-40E9-9EE5-B2F928C7D041";
shapes = (
{
closed = 1;
nodes = (
(241,700,l),
(61,700,l),
(61,0,l),
(241,0,l)
);
}
);
width = 302;
},
{
layerId = "F7A2C943-FF27-42DD-BB53-36E69242D1D6";
shapes = (
{
closed = 1;
nodes = (
(196,700,l),
(106,700,l),
(106,0,l),
(196,0,l)
);
}
);
width = 302;
},
{
layerId = "CEB2CA40-D0FD-4F6E-AD1A-0B625565F02B";
shapes = (
{
closed = 1;
nodes = (
(173,700,l),
(128,700,l),
(128,0,l),
(173,0,l)
);
}
);
width = 302;
}
);
rightKerningGroup = H;
unicode = 73;
},
{
glyphname = J;
layers = (
{
layerId = "0CD817DE-E207-40E9-9EE5-B2F928C7D041";
shapes = (
{
closed = 1;
nodes = (
(136,-5,o),
(198,15,o),
(241,57,cs),
(284,99,o),
(307,163,o),
(307,251,cs),
(307,700,l),
(127,700,l),
(127,258,ls),
(127,185,o),
(106,150,o),
(55,150,cs),
(42,150,o),
(25,152,o),
(13,156,c),
(13,1,l),
(24,-2,o),
(36,-5,o),
(59,-5,cs)
);
}
);
width = 362;
},
{
layerId = "F7A2C943-FF27-42DD-BB53-36E69242D1D6";
shapes = (
{
closed = 1;
nodes = (
(135,-5,o),
(182,13,o),
(215,47,cs),
(247,81,o),
(265,131,o),
(265,200,cs),
(265,700,l),
(175,700,l),
(175,202,ls),
(175,117,o),
(144,80,o),
(71,80,cs),
(58,80,o),
(41,82,o),
(29,86,c),
(29,1,l),
(40,-2,o),
(52,-5,o),
(75,-5,cs)
);
}
);
width = 362;
},
{
layerId = "CEB2CA40-D0FD-4F6E-AD1A-0B625565F02B";
shapes = (
{
closed = 1;
nodes = (
(127,-5,o),
(166,8,o),
(195,36,cs),
(223,64,o),
(238,106,o),
(238,166,cs),
(238,700,l),
(193,700,l),
(193,172,ls),
(193,80,o),
(157,39,o),
(74,39,cs),
(57,39,o),
(42,41,o),
(30,45,c),
(30,1,l),
(41,-2,o),
(53,-5,o),
(76,-5,cs)
);
}
);
width = 362;
}
);
leftKerningGroup = J2;
rightKerningGroup = J;
unicode = 74;
},
{
glyphname = K;
layers = (
{
layerId = "0CD817DE-E207-40E9-9EE5-B2F928C7D041";
shapes = (
{
closed = 1;
nodes = (
(460,0,l),
(671,0,l),
(671,20,l),
(396,430,l),
(396,359,l),
(613,680,l),
(613,700,l),
(418,700,l),
(217,370,l)
);
},
{
closed = 1;
nodes = (
(143,291,l),
(344,291,l),
(344,445,l),
(143,445,l)
);
},
{
closed = 1;
nodes = (
(220,700,l),
(40,700,l),
(40,0,l),
(220,0,l)
);
}
);
width = 647;
},
{
layerId = "F7A2C943-FF27-42DD-BB53-36E69242D1D6";
shapes = (
{
closed = 1;
nodes = (
(529,0,l),
(630,0,l),
(630,20,l),
(295,409,l),
(295,343,l),
(555,680,l),
(555,700,l),
(462,700,l),
(213,367,l)
);
},
{
closed = 1;
nodes = (
(146,328,l),
(282,328,l),
(282,408,l),
(146,408,l)
);
},
{
closed = 1;
nodes = (
(193,700,l),
(103,700,l),
(103,0,l),
(193,0,l)
);
}
);
width = 647;
},
{
layerId = "CEB2CA40-D0FD-4F6E-AD1A-0B625565F02B";
shapes = (
{
closed = 1;
nodes = (
(559,0,l),
(601,0,l),
(601,20,l),
(243,394,l),
(243,343,l),
(531,680,l),
(531,700,l),
(495,700,l),
(207,364,l)
);
},
{
closed = 1;
nodes = (
(152,343,l),
(236,343,l),
(236,386,l),
(152,386,l)
);
},
{
closed = 1;
nodes = (
(183,700,l),
(139,700,l),
(139,0,l),
(183,0,l)
);
}
);
width = 647;
}
);
rightKerningGroup = K;
unicode = 75;
},
{
glyphname = L;
layers = (
{
layerId = "0CD817DE-E207-40E9-9EE5-B2F928C7D041";
shapes = (
{
closed = 1;
nodes = (
(258,700,l),
(78,700,l),
(78,0,l),
(470,0,l),
(470,150,l),
(158,150,l),
(258,69,l)
);
}
);
width = 504;
},
{
layerId = "F7A2C943-FF27-42DD-BB53-36E69242D1D6";
shapes = (
{
closed = 1;
nodes = (
(199,700,l),
(109,700,l),
(109,0,l),
(467,0,l),
(467,82,l),
(155,82,l),
(199,42,l)
);
}
);
width = 504;
},
{
layerId = "CEB2CA40-D0FD-4F6E-AD1A-0B625565F02B";
shapes = (
{
closed = 1;
nodes = (
(168,700,l),
(123,700,l),
(123,0,l),
(464,0,l),
(464,42,l),
(152,42,l),
(168,26,l)
);
}
);
width = 504;
}
);
rightKerningGroup = L;
unicode = 76;
},
{
glyphname = Lslash;
layers = (
{
layerId = "0CD817DE-E207-40E9-9EE5-B2F928C7D041";
shapes = (
{
closed = 1;
nodes = (
(258,700,l),
(78,700,l),
(78,0,l),
(470,0,l),
(470,150,l),
(158,150,l),
(258,69,l)
);
},
{
closed = 1;
nodes = (
(28,135,l),
(144,231,l),
(228,285,l),
(398,422,l),
(398,581,l),
(198,416,l),
(128,372,l),
(28,287,l)
);
}
);
width = 504;
},
{
layerId = "F7A2C943-FF27-42DD-BB53-36E69242D1D6";
shapes = (
{
closed = 1;
nodes = (
(199,700,l),
(109,700,l),
(109,0,l),
(467,0,l),
(467,82,l),
(155,82,l),
(199,42,l)
);
},
{
closed = 1;
nodes = (
(34,155,l),
(141,247,l),
(179,271,l),
(386,452,l),
(386,548,l),
(168,359,l),
(131,336,l),
(34,251,l)
);
}
);
width = 504;
},
{
layerId = "CEB2CA40-D0FD-4F6E-AD1A-0B625565F02B";
shapes = (
{
closed = 1;
nodes = (
(168,700,l),
(123,700,l),
(123,0,l),
(464,0,l),
(464,42,l),
(152,42,l),
(168,26,l)
);
},
{
closed = 1;
nodes = (
(40,172,l),
(138,259,l),
(157,273,l),
(378,472,l),
(378,522,l),
(147,313,l),
(132,306,l),
(40,221,l)
);
}
);
width = 504;
}
);
rightKerningGroup = L;
unicode = 321;
},
{
glyphname = M;
layers = (
{
layerId = "0CD817DE-E207-40E9-9EE5-B2F928C7D041";
shapes = (
{
closed = 1;
nodes = (
(33,0,l),
(199,0,l),
(255,439,l),
(225,439,l),
(404,0,l),
(480,0,l),
(653,438,l),
(624,438,l),
(684,0,l),
(857,0,l),
(761,700,l),
(601,700,l),
(400,172,l),
(489,183,l),
(280,700,l),
(120,700,l)
);
}
);
width = 890;
},
{
layerId = "F7A2C943-FF27-42DD-BB53-36E69242D1D6";
shapes = (
{
closed = 1;
nodes = (
(69,0,l),
(156,0,l),
(226,544,l),
(203,544,l),
(428,-4,l),
(455,-4,l),
(674,543,l),
(655,543,l),
(734,0,l),
(821,0,l),
(718,700,l),
(653,700,l),
(421,110,l),
(467,112,l),
(227,700,l),
(163,700,l)
);
}
);
width = 890;
},
{
layerId = "CEB2CA40-D0FD-4F6E-AD1A-0B625565F02B";
shapes = (
{
closed = 1;
nodes = (
(86,0,l),
(128,0,l),
(207,594,l),
(193,594,l),
(434,-1,l),
(449,-1,l),
(688,591,l),
(679,591,l),
(761,0,l),
(804,0,l),
(712,700,l),
(691,700,l),
(437,71,l),
(449,71,l),
(194,700,l),
(173,700,l)
);
}
);
width = 890;
}
);
unicode = 77;
},
{
glyphname = N;
layers = (
{
layerId = "0CD817DE-E207-40E9-9EE5-B2F928C7D041";
shapes = (
{
closed = 1;
nodes = (
(74,0,l),
(254,0,l),
(254,437,l),
(210,437,l),
(580,0,l),
(699,0,l),
(699,700,l),
(519,700,l),
(519,245,l),
(584,245,l),
(202,700,l),
(74,700,l)
);
}
);
width = 773;
},
{
layerId = "F7A2C943-FF27-42DD-BB53-36E69242D1D6";
shapes = (
{
closed = 1;
nodes = (
(108,0,l),
(198,0,l),
(198,565,l),
(168,565,l),
(612,0,l),
(665,0,l),
(665,700,l),
(575,700,l),
(575,146,l),
(608,146,l),
(174,700,l),
(108,700,l)
);
}
);
width = 773;
},
{
layerId = "CEB2CA40-D0FD-4F6E-AD1A-0B625565F02B";
shapes = (
{
closed = 1;
nodes = (
(128,0,l),
(173,0,l),
(173,635,l),
(142,635,l),
(626,0,l),
(645,0,l),
(645,700,l),
(600,700,l),
(600,80,l),
(620,80,l),
(148,700,l),
(128,700,l)
);
}
);
width = 773;
}
);
rightKerningGroup = H;
unicode = 78;
},
{
glyphname = Eng;
layers = (
{
layerId = "0CD817DE-E207-40E9-9EE5-B2F928C7D041";
shapes = (
{
closed = 1;
nodes = (
(64,0,l),
(244,0,l),
(244,489,l),
(175,489,l),
(534,7,l),
(644,158,l),
(242,700,l),
(64,700,l)
);
},
{
closed = 1;
nodes = (
(541,-275,o),
(602,-256,o),
(644,-214,cs),
(686,-172,o),
(709,-107,o),
(709,-19,cs),
(709,700,l),
(529,700,l),
(529,-12,ls),
(529,-85,o),
(507,-120,o),
(456,-120,cs),
(444,-120,o),
(427,-118,o),
(415,-114,c),
(415,-269,l),
(426,-272,o),
(439,-275,o),
(468,-275,cs)
);
}
);
width = 773;
},
{
layerId = "F7A2C943-FF27-42DD-BB53-36E69242D1D6";
shapes = (
{
closed = 1;
nodes = (
(107,0,l),
(197,0,l),
(197,574,l),
(162,574,l),
(591,19,l),
(607,144,l),
(180,700,l),
(107,700,l)
);
},
{
closed = 1;
nodes = (
(537,-224,o),
(583,-209,o),
(616,-174,cs),
(648,-139,o),
(667,-88,o),
(667,-19,cs),
(667,700,l),
(576,700,l),
(576,-12,ls),
(576,-101,o),
(549,-140,o),
(473,-140,cs),
(460,-140,o),
(442,-138,o),
(430,-134,c),
(430,-218,l),
(441,-221,o),
(455,-224,o),
(478,-224,cs)
);
}
);
width = 773;
},
{
layerId = "CEB2CA40-D0FD-4F6E-AD1A-0B625565F02B";
shapes = (
{
closed = 1;
nodes = (
(128,0,l),
(173,0,l),
(173,635,l),
(142,635,l),
(619,9,l),
(619,81,l),
(149,700,l),
(128,700,l)
);
},
{
closed = 1;
nodes = (
(534,-190,o),
(573,-176,o),
(602,-149,c),
(630,-121,o),
(645,-78,o),
(645,-19,cs),
(645,700,l),
(600,700,l),
(600,-12,ls),
(600,-104,o),
(563,-146,o),
(480,-146,cs),
(467,-146,o),
(449,-144,o),
(437,-140,c),
(437,-184,l),
(448,-187,o),
(460,-190,o),
(483,-190,cs)
);
}
);
width = 773;
}
);
rightKerningGroup = H;
unicode = 330;
},
{
glyphname = O;
layers = (
{
layerId = "0CD817DE-E207-40E9-9EE5-B2F928C7D041";
shapes = (
{
closed = 1;
nodes = (
(359,143,o),
(311,162,o),
(277,198,cs),
(243,233,o),
(223,284,o),
(223,351,cs),
(223,472,o),
(290,560,o),
(416,560,cs),
(472,560,o),
(521,541,o),
(555,506,cs),
(589,470,o),
(609,418,o),
(609,351,cs),
(609,230,o),
(542,143,o),
(416,143,cs)
);
},
{
closed = 1;
nodes = (
(630,-7,o),
(794,131,o),
(794,351,cs),
(794,459,o),
(756,548,o),
(689,612,cs),
(622,675,o),
(528,710,o),
(416,710,cs),
(201,710,o),
(38,572,o),
(38,351,cs),
(38,243,o),
(75,154,o),
(140,91,cs),
(205,28,o),
(300,-7,o),
(416,-7,cs)
);
}
);
width = 832;
},
{
layerId = "F7A2C943-FF27-42DD-BB53-36E69242D1D6";
shapes = (
{
closed = 1;
nodes = (
(339,74,o),
(273,103,o),
(226,153,c),
(179,200,o),
(150,269,o),
(150,350,cs),
(150,506,o),
(257,626,o),
(416,626,cs),
(493,626,o),
(560,598,o),
(606,549,c),
(654,500,o),
(682,432,o),
(682,350,cs),
(682,194,o),
(575,74,o),
(416,74,cs)
);
},
{
closed = 1;
nodes = (
(626,-10,o),
(774,140,o),
(774,349,cs),
(774,453,o),
(739,542,o),
(676,607,cs),
(613,672,o),
(524,710,o),
(416,710,cs),
(207,710,o),
(58,560,o),
(58,351,cs),
(58,249,o),
(94,158,o),
(156,94,cs),
(219,29,o),
(308,-10,o),
(416,-10,cs)
);
}
);
width = 832;
},
{
layerId = "CEB2CA40-D0FD-4F6E-AD1A-0B625565F02B";
shapes = (
{
closed = 1;
nodes = (
(330,33,o),
(253,67,o),
(199,125,cs),
(145,181,o),
(112,260,o),
(112,350,cs),
(112,523,o),
(239,666,o),
(416,666,cs),
(502,666,o),
(578,632,o),
(632,575,cs),
(686,519,o),
(720,440,o),
(720,350,cs),
(720,177,o),
(593,33,o),
(416,33,cs)
);
},
{
closed = 1;
nodes = (
(618,-11,o),
(765,149,o),
(765,348,cs),
(765,451,o),
(728,541,o),
(665,606,cs),
(603,671,o),
(515,710,o),
(416,710,cs),
(214,710,o),
(66,550,o),
(66,351,cs),
(66,249,o),
(104,158,o),
(167,93,cs),
(230,28,o),
(317,-11,o),
(416,-11,cs)
);
}
);
width = 832;
}
);
leftKerningGroup = C2;
rightKerningGroup = D;
unicode = 79;
},
{
glyphname = Oslash;
layers = (
{
layerId = "0CD817DE-E207-40E9-9EE5-B2F928C7D041";
shapes = (
{
closed = 1;
nodes = (
(787,639,l),
(696,726,l),
(44,49,l),
(135,-38,l)
);
},
{
closed = 1;
nodes = (
(359,143,o),
(311,162,o),
(277,198,cs),
(243,233,o),
(223,284,o),
(223,351,cs),
(223,472,o),
(290,560,o),
(416,560,cs),
(472,560,o),
(521,541,o),
(555,506,cs),
(589,470,o),
(609,418,o),
(609,351,cs),
(609,230,o),
(542,143,o),
(416,143,cs)
);
},
{
closed = 1;
nodes = (
(630,-7,o),
(794,131,o),
(794,351,cs),
(794,459,o),
(756,548,o),
(689,612,cs),
(622,675,o),
(528,710,o),
(416,710,cs),
(201,710,o),
(38,572,o),
(38,351,cs),
(38,243,o),
(75,154,o),
(140,91,cs),
(205,28,o),
(300,-7,o),
(416,-7,cs)
);
}
);
width = 832;
},
{
layerId = "F7A2C943-FF27-42DD-BB53-36E69242D1D6";
shapes = (
{
closed = 1;
nodes = (
(772,648,l),
(717,705,l),
(60,52,l),
(114,-3,l)
);
},
{
closed = 1;
nodes = (
(339,74,o),
(273,103,o),
(226,153,c),
(179,200,o),
(150,269,o),
(150,350,cs),
(150,506,o),
(257,626,o),
(416,626,cs),
(493,626,o),
(560,598,o),
(606,549,c),
(654,500,o),
(682,432,o),
(682,350,cs),
(682,194,o),
(575,74,o),
(416,74,cs)
);
},
{
closed = 1;
nodes = (
(626,-10,o),
(774,140,o),
(774,349,cs),
(774,453,o),
(739,542,o),
(676,607,cs),
(613,672,o),
(524,710,o),
(416,710,cs),
(207,710,o),
(58,560,o),
(58,351,cs),
(58,249,o),
(94,158,o),
(156,94,cs),
(219,29,o),
(308,-10,o),
(416,-10,cs)
);
}
);
width = 832;
},
{
layerId = "CEB2CA40-D0FD-4F6E-AD1A-0B625565F02B";
shapes = (
{
closed = 1;
nodes = (
(764,666,l),
(735,696,l),
(67,42,l),
(96,12,l)
);
},
{
closed = 1;
nodes = (
(330,33,o),
(253,67,o),
(199,125,cs),
(145,181,o),
(112,260,o),
(112,350,cs),
(112,523,o),
(239,666,o),
(416,666,cs),
(502,666,o),
(578,632,o),
(632,575,cs),
(686,519,o),
(720,440,o),
(720,350,cs),
(720,177,o),
(593,33,o),
(416,33,cs)
);
},
{
closed = 1;
nodes = (
(618,-11,o),
(765,149,o),
(765,348,cs),
(765,451,o),
(728,541,o),
(665,606,cs),
(603,671,o),
(515,710,o),
(416,710,cs),
(214,710,o),
(66,550,o),
(66,351,cs),
(66,249,o),
(104,158,o),
(167,93,cs),
(230,28,o),
(317,-11,o),
(416,-11,cs)
);
}
);
width = 832;
}
);
leftKerningGroup = C2;
rightKerningGroup = D;
unicode = 216;
},
{
glyphname = OE;
layers = (
{
layerId = "0CD817DE-E207-40E9-9EE5-B2F928C7D041";
shapes = (
{
closed = 1;
nodes = (
(878,0,l),
(878,150,l),
(632,150,l),
(632,300,l),
(798,300,l),
(798,444,l),
(632,444,l),
(632,550,l),
(867,550,l),
(867,700,l),
(402,700,ls),
(184,700,o),
(31,571,o),
(31,346,cs),
(31,242,o),
(65,156,o),
(130,96,cs),
(194,35,o),
(289,0,o),
(410,0,cs)
);
},
{
closed = 1;
nodes = (
(403,150,ls),
(346,150,o),
(300,170,o),
(269,204,cs),
(238,238,o),
(221,287,o),
(221,348,cs),
(221,467,o),
(283,550,o),
(407,550,cs),
(452,550,l),
(452,150,l)
);
}
);
width = 908;
},
{
layerId = "F7A2C943-FF27-42DD-BB53-36E69242D1D6";
shapes = (
{
closed = 1;
nodes = (
(837,0,l),
(837,82,l),
(554,82,l),
(554,334,l),
(775,334,l),
(775,415,l),
(554,415,l),
(554,618,l),
(827,618,l),
(827,700,l),
(427,700,ls),
(214,700,o),
(57,570,o),
(57,349,cs),
(57,249,o),
(90,161,o),
(154,99,cs),
(217,38,o),
(310,0,o),
(428,0,cs)
);
},
{
closed = 1;
nodes = (
(434,82,ls),
(347,82,o),
(275,107,o),
(227,153,cs),
(177,199,o),
(150,266,o),
(150,351,cs),
(150,521,o),
(269,618,o),
(434,618,cs),
(464,618,l),
(464,82,l)
);
}
);
width = 908;
},
{
layerId = "CEB2CA40-D0FD-4F6E-AD1A-0B625565F02B";
shapes = (
{
closed = 1;
nodes = (
(822,0,l),
(822,42,l),
(509,42,l),
(509,357,l),
(762,357,l),
(762,399,l),
(509,399,l),
(509,658,l),
(812,658,l),
(812,700,l),
(440,700,ls),
(221,700,o),
(70,571,o),
(70,347,cs),
(70,246,o),
(103,158,o),
(168,97,cs),
(232,36,o),
(325,0,o),
(440,0,cs)
);
},
{
closed = 1;
nodes = (
(441,42,ls),
(341,42,o),
(260,74,o),
(204,128,cs),
(148,181,o),
(115,257,o),
(115,348,cs),
(115,547,o),
(246,658,o),
(440,658,cs),
(464,658,l),
(464,42,l)
);
}
);
width = 908;
}
);
leftKerningGroup = C2;
rightKerningGroup = E;
unicode = 338;
},
{
glyphname = P;
layers = (
{
layerId = "0CD817DE-E207-40E9-9EE5-B2F928C7D041";
shapes = (
{
closed = 1;
nodes = (
(59,700,l),
(59,0,l),
(239,0,l),
(239,230,l),
(275,230,ls),
(430,230,o),
(556,301,o),
(556,470,cs),
(556,547,o),
(530,605,o),
(483,643,cs),
(436,681,o),
(369,700,o),
(285,700,cs)
);
},
{
closed = 1;
nodes = (
(239,380,l),
(239,550,l),
(265,550,ls),
(308,550,o),
(335,540,o),
(351,525,cs),
(367,509,o),
(373,489,o),
(373,466,cs),
(373,401,o),
(326,380,o),
(268,380,cs)
);
}
);
width = 577;
},
{
layerId = "F7A2C943-FF27-42DD-BB53-36E69242D1D6";
shapes = (
{
closed = 1;
nodes = (
(105,700,l),
(105,0,l),
(196,0,l),
(196,279,l),
(300,279,ls),
(427,279,o),
(534,358,o),
(534,492,cs),
(534,551,o),
(511,604,o),
(471,641,cs),
(430,678,o),
(372,700,o),
(301,700,cs)
);
},
{
closed = 1;
nodes = (
(196,361,l),
(196,618,l),
(294,618,ls),
(342,618,o),
(378,603,o),
(403,580,cs),
(429,556,o),
(442,525,o),
(442,490,cs),
(442,405,o),
(372,361,o),
(295,361,cs)
);
}
);
width = 577;
},
{
layerId = "CEB2CA40-D0FD-4F6E-AD1A-0B625565F02B";
shapes = (
{
closed = 1;
nodes = (
(129,700,l),
(129,0,l),
(174,0,l),
(174,304,l),
(315,304,ls),
(429,304,o),
(521,388,o),
(521,504,cs),
(521,556,o),
(502,605,o),
(466,641,cs),
(430,677,o),
(378,700,o),
(313,700,cs)
);
},
{
closed = 1;
nodes = (
(174,347,l),
(174,658,l),
(308,658,ls),
(359,658,o),
(400,640,o),
(430,613,cs),
(460,586,o),
(476,547,o),
(476,503,cs),
(476,408,o),
(398,347,o),
(307,347,cs)
);
}
);
width = 577;
}
);
unicode = 80;
},
{
glyphname = Thorn;
layers = (
{
layerId = "0CD817DE-E207-40E9-9EE5-B2F928C7D041";
shapes = (
{
closed = 1;
nodes = (
(120,111,l),
(311,111,ls),
(396,111,o),
(463,135,o),
(508,178,cs),
(553,221,o),
(577,281,o),
(577,354,cs),
(577,427,o),
(553,487,o),
(509,528,cs),
(464,568,o),
(398,591,o),
(311,591,cs),
(120,591,l),
(120,431,l),
(306,431,ls),
(338,431,o),
(360,422,o),
(374,407,cs),
(388,391,o),
(394,372,o),
(394,352,cs),
(394,331,o),
(387,311,o),
(371,296,cs),
(355,280,o),
(331,271,o),
(296,271,cs),
(120,271,l)
);
},
{
closed = 1;
nodes = (
(208,700,l),
(28,700,l),
(28,0,l),
(208,0,l)
);
}
);
width = 567;
},
{
layerId = "F7A2C943-FF27-42DD-BB53-36E69242D1D6";
shapes = (
{
closed = 1;
nodes = (
(160,148,l),
(301,148,ls),
(372,148,o),
(427,171,o),
(467,210,cs),
(507,249,o),
(529,302,o),
(529,362,cs),
(529,421,o),
(507,474,o),
(467,511,cs),
(427,548,o),
(372,571,o),
(301,571,cs),
(160,571,l),
(160,488,l),
(291,488,ls),
(339,488,o),
(375,474,o),
(400,451,cs),
(424,428,o),
(437,397,o),
(437,361,cs),
(437,324,o),
(424,292,o),
(399,269,cs),
(374,245,o),
(337,231,o),
(290,231,cs),
(160,231,l)
);
},
{
closed = 1;
nodes = (
(191,700,l),
(101,700,l),
(101,0,l),
(191,0,l)
);
}
);
width = 567;
},
{
layerId = "CEB2CA40-D0FD-4F6E-AD1A-0B625565F02B";
shapes = (
{
closed = 1;
nodes = (
(178,158,l),
(291,158,ls),
(355,158,o),
(407,181,o),
(444,218,cs),
(481,254,o),
(502,304,o),
(502,357,cs),
(502,410,o),
(481,458,o),
(444,494,cs),
(407,530,o),
(355,551,o),
(291,551,cs),
(178,551,l),
(178,508,l),
(280,508,ls),
(335,508,o),
(379,492,o),
(410,465,cs),
(441,438,o),
(456,400,o),
(456,356,cs),
(456,313,o),
(441,274,o),
(411,246,cs),
(381,218,o),
(336,200,o),
(283,200,cs),
(178,200,l)
);
},
{
closed = 1;
nodes = (
(183,700,l),
(139,700,l),
(139,0,l),
(183,0,l)
);
}
);
width = 567;
}
);
unicode = 222;
},
{
glyphname = Q;
layers = (
{
layerId = "0CD817DE-E207-40E9-9EE5-B2F928C7D041";
shapes = (
{
closed = 1;
nodes = (
(694,-176,l),
(714,-176,l),
(714,0,l),
(484,101,l),
(369,-1,l)
);
},
{
closed = 1;
nodes = (
(359,143,o),
(311,162,o),
(277,198,cs),
(243,233,o),
(223,284,o),
(223,351,cs),
(223,472,o),
(290,560,o),
(416,560,cs),
(472,560,o),
(521,541,o),
(555,506,cs),
(589,470,o),
(609,418,o),
(609,351,cs),
(609,230,o),
(542,143,o),
(416,143,cs)
);
},
{
closed = 1;
nodes = (
(630,-7,o),
(794,131,o),
(794,351,cs),
(794,459,o),
(756,548,o),
(689,612,cs),
(622,675,o),
(528,710,o),
(416,710,cs),
(201,710,o),
(38,572,o),
(38,351,cs),
(38,243,o),
(75,154,o),
(140,91,cs),
(205,28,o),
(300,-7,o),
(416,-7,cs)
);
}
);
width = 832;
},
{
layerId = "F7A2C943-FF27-42DD-BB53-36E69242D1D6";
shapes = (
{
closed = 1;
nodes = (
(718,-179,l),
(738,-179,l),
(738,-90,l),
(501,60,l),
(418,14,l)
);
},
{
closed = 1;
nodes = (
(339,74,o),
(273,103,o),
(226,153,c),
(179,200,o),
(150,269,o),
(150,350,cs),
(150,506,o),
(257,626,o),
(416,626,cs),
(493,626,o),
(560,598,o),
(606,549,c),
(654,500,o),
(682,432,o),
(682,350,cs),
(682,194,o),
(575,74,o),
(416,74,cs)
);
},
{
closed = 1;
nodes = (
(626,-10,o),
(774,140,o),
(774,349,cs),
(774,453,o),
(739,542,o),
(676,607,cs),
(613,672,o),
(524,710,o),
(416,710,cs),
(207,710,o),
(58,560,o),
(58,351,cs),
(58,249,o),
(94,158,o),
(156,94,cs),
(219,29,o),
(308,-10,o),
(416,-10,cs)
);
}
);
width = 832;
},
{
layerId = "CEB2CA40-D0FD-4F6E-AD1A-0B625565F02B";
shapes = (
{
closed = 1;
nodes = (
(731,-171,l),
(751,-171,l),
(751,-132,l),
(509,36,l),
(464,15,l)
);
},
{
closed = 1;
nodes = (
(330,33,o),
(253,67,o),
(199,125,cs),
(145,181,o),
(112,260,o),
(112,350,cs),
(112,523,o),
(239,666,o),
(416,666,cs),
(502,666,o),
(578,632,o),
(632,575,cs),
(686,519,o),
(720,440,o),
(720,350,cs),
(720,177,o),
(593,33,o),
(416,33,cs)
);
},
{
closed = 1;
nodes = (
(618,-11,o),
(765,149,o),
(765,348,cs),
(765,451,o),
(728,541,o),
(665,606,cs),
(603,671,o),
(515,710,o),
(416,710,cs),
(214,710,o),
(66,550,o),
(66,351,cs),
(66,249,o),
(104,158,o),
(167,93,cs),
(230,28,o),
(317,-11,o),
(416,-11,cs)
);
}
);
width = 832;
}
);
leftKerningGroup = C2;
rightKerningGroup = D;
unicode = 81;
},
{
glyphname = R;
layers = (
{
layerId = "0CD817DE-E207-40E9-9EE5-B2F928C7D041";
shapes = (
{
closed = 1;
nodes = (
(431,0,l),
(625,0,l),
(625,21,l),
(407,359,l),
(243,296,l)
);
},
{
closed = 1;
nodes = (
(48,700,l),
(48,0,l),
(228,0,l),
(228,260,l),
(297,260,ls),
(435,260,o),
(544,336,o),
(544,483,cs),
(544,556,o),
(518,611,o),
(471,647,cs),
(424,683,o),
(358,700,o),
(278,700,cs)
);
},
{
closed = 1;
nodes = (
(228,410,l),
(228,550,l),
(283,550,ls),
(308,550,o),
(328,543,o),
(341,531,c),
(353,518,o),
(359,501,o),
(359,481,cs),
(359,434,o),
(324,410,o),
(280,410,cs)
);
}
);
width = 611;
},
{
layerId = "F7A2C943-FF27-42DD-BB53-36E69242D1D6";
shapes = (
{
closed = 1;
nodes = (
(498,0,l),
(594,0,l),
(594,21,l),
(352,322,l),
(259,296,l)
);
},
{
closed = 1;
nodes = (
(104,700,l),
(104,0,l),
(194,0,l),
(194,282,l),
(306,282,ls),
(430,282,o),
(530,364,o),
(530,493,cs),
(530,553,o),
(509,605,o),
(468,642,cs),
(428,678,o),
(373,700,o),
(303,700,cs)
);
},
{
closed = 1;
nodes = (
(194,365,l),
(194,618,l),
(295,618,ls),
(341,618,o),
(376,604,o),
(401,582,cs),
(426,559,o),
(438,528,o),
(438,492,cs),
(438,407,o),
(373,365,o),
(295,365,cs)
);
}
);
width = 611;
},
{
layerId = "CEB2CA40-D0FD-4F6E-AD1A-0B625565F02B";
shapes = (
{
closed = 1;
nodes = (
(525,0,l),
(566,0,l),
(566,21,l),
(322,307,l),
(267,301,l)
);
},
{
closed = 1;
nodes = (
(126,700,l),
(126,0,l),
(171,0,l),
(171,295,l),
(302,295,ls),
(419,295,o),
(517,378,o),
(517,499,cs),
(517,551,o),
(498,601,o),
(461,638,cs),
(423,675,o),
(366,700,o),
(293,700,cs)
);
},
{
closed = 1;
nodes = (
(171,337,l),
(171,658,l),
(292,658,ls),
(349,658,o),
(393,640,o),
(425,611,cs),
(456,583,o),
(472,543,o),
(472,498,cs),
(472,394,o),
(392,337,o),
(295,337,cs)
);
}
);
width = 611;
}
);
rightKerningGroup = R;
unicode = 82;
},
{
glyphname = S;
layers = (
{
layerId = "0CD817DE-E207-40E9-9EE5-B2F928C7D041";
shapes = (
{
closed = 1;
nodes = (
(407,-7,o),
(529,62,o),
(529,221,cs),
(529,281,o),
(510,321,o),
(482,352,cs),
(454,383,o),
(417,401,o),
(379,416,cs),
(341,431,o),
(303,442,o),
(275,455,cs),
(247,468,o),
(228,486,o),
(228,511,cs),
(228,545,o),
(258,555,o),
(286,555,cs),
(329,555,o),
(360,533,o),
(387,494,c),
(503,597,l),
(492,620,o),
(471,647,o),
(436,670,cs),
(401,693,o),
(352,710,o),
(284,710,cs),
(154,710,o),
(43,648,o),
(43,505,cs),
(43,448,o),
(61,408,o),
(89,377,cs),
(117,346,o),
(154,327,o),
(191,311,cs),
(228,294,o),
(265,282,o),
(293,266,cs),
(321,250,o),
(339,232,o),
(339,204,cs),
(339,163,o),
(300,148,o),
(265,148,cs),
(232,148,o),
(204,160,o),
(183,177,cs),
(162,194,o),
(148,215,o),
(137,235,c),
(15,122,l),
(31,91,o),
(56,59,o),
(96,35,cs),
(136,10,o),
(190,-7,o),
(262,-7,cs)
);
}
);
width = 544;
},
{
layerId = "F7A2C943-FF27-42DD-BB53-36E69242D1D6";
shapes = (
{
closed = 1;
nodes = (
(404,-10,o),
(503,64,o),
(503,200,cs),
(503,259,o),
(483,300,o),
(451,330,cs),
(419,360,o),
(378,380,o),
(336,398,cs),
(293,416,o),
(252,431,o),
(220,451,cs),
(188,471,o),
(167,496,o),
(167,534,cs),
(167,602,o),
(226,625,o),
(285,625,cs),
(349,625,o),
(393,599,o),
(427,563,c),
(483,625,l),
(464,648,o),
(438,669,o),
(406,685,cs),
(374,700,o),
(334,710,o),
(287,710,cs),
(173,710,o),
(75,653,o),
(75,529,cs),
(75,473,o),
(95,435,o),
(128,407,cs),
(159,379,o),
(199,360,o),
(242,344,cs),
(285,327,o),
(326,312,o),
(358,290,cs),
(390,267,o),
(410,237,o),
(410,191,cs),
(410,111,o),
(350,75,o),
(275,75,cs),
(236,75,o),
(203,85,o),
(175,101,cs),
(147,116,o),
(124,137,o),
(103,163,c),
(40,95,l),
(64,66,o),
(93,41,o),
(132,22,cs),
(171,3,o),
(217,-10,o),
(275,-10,cs)
);
}
);
width = 544;
},
{
layerId = "CEB2CA40-D0FD-4F6E-AD1A-0B625565F02B";
shapes = (
{
closed = 1;
nodes = (
(375,-10,o),
(478,54,o),
(478,187,cs),
(478,244,o),
(456,283,o),
(422,314,cs),
(387,345,o),
(344,366,o),
(299,386,cs),
(254,405,o),
(209,423,o),
(176,448,c),
(142,472,o),
(119,503,o),
(119,547,cs),
(119,635,o),
(200,666,o),
(276,666,cs),
(343,666,o),
(394,643,o),
(431,616,c),
(456,653,l),
(433,672,o),
(404,685,o),
(374,696,c),
(344,705,o),
(311,710,o),
(276,710,cs),
(175,710,o),
(74,660,o),
(74,547,cs),
(74,491,o),
(97,454,o),
(131,425,cs),
(165,395,o),
(208,375,o),
(254,355,cs),
(299,335,o),
(342,317,o),
(377,291,c),
(411,264,o),
(433,232,o),
(433,183,cs),
(433,81,o),
(348,34,o),
(255,34,cs),
(218,34,o),
(184,40,o),
(154,52,cs),
(124,64,o),
(95,82,o),
(72,102,c),
(47,64,l),
(73,41,o),
(103,24,o),
(137,11,cs),
(171,-2,o),
(208,-10,o),
(252,-10,cs)
);
}
);
width = 544;
}
);
leftKerningGroup = S2;
rightKerningGroup = S;
unicode = 83;
},
{
glyphname = Germandbls;
layers = (
{
layerId = "0CD817DE-E207-40E9-9EE5-B2F928C7D041";
shapes = (
{
closed = 1;
nodes = (
(530,-5,o),
(655,83,o),
(655,219,cs),
(655,300,o),
(622,353,o),
(571,386,cs),
(519,418,o),
(451,430,o),
(379,430,c),
(409,385,l),
(576,490,l),
(576,668,l),
(521,696,o),
(434,710,o),
(323,710,cs),
(236,710,o),
(169,693,o),
(124,658,cs),
(79,622,o),
(55,570,o),
(55,501,cs),
(55,0,l),
(235,0,l),
(235,458,ls),
(235,501,o),
(243,529,o),
(264,548,cs),
(284,567,o),
(318,575,o),
(371,575,cs),
(399,575,o),
(427,573,o),
(455,569,c),
(322,485,l),
(322,315,l),
(348,315,ls),
(384,315,o),
(416,309,o),
(438,294,cs),
(460,278,o),
(472,255,o),
(472,222,cs),
(472,168,o),
(433,130,o),
(379,130,cs),
(347,130,o),
(319,130,o),
(295,137,c),
(295,1,l),
(306,-2,o),
(315,-3,o),
(331,-4,c),
(347,-4,o),
(370,-5,o),
(403,-5,cs)
);
}
);
width = 676;
},
{
layerId = "F7A2C943-FF27-42DD-BB53-36E69242D1D6";
shapes = (
{
closed = 1;
nodes = (
(532,-5,o),
(622,96,o),
(622,246,cs),
(622,326,o),
(596,383,o),
(551,422,cs),
(505,461,o),
(440,481,o),
(360,484,c),
(375,447,l),
(533,583,l),
(533,680,l),
(489,694,o),
(417,710,o),
(330,710,cs),
(260,710,o),
(205,698,o),
(166,667,cs),
(126,635,o),
(105,585,o),
(105,507,cs),
(105,0,l),
(195,0,l),
(195,494,ls),
(195,544,o),
(203,578,o),
(225,599,cs),
(248,621,o),
(285,630,o),
(344,630,cs),
(381,630,o),
(418,626,o),
(460,619,c),
(329,505,l),
(329,413,l),
(347,413,ls),
(404,413,o),
(449,396,o),
(481,367,c),
(511,337,o),
(529,295,o),
(529,243,cs),
(529,140,o),
(466,77,o),
(364,77,cs),
(336,77,o),
(310,80,o),
(292,87,c),
(292,5,l),
(303,1,o),
(318,-1,o),
(332,-3,cs),
(346,-5,o),
(362,-5,o),
(378,-5,cs)
);
}
);
width = 676;
},
{
layerId = "CEB2CA40-D0FD-4F6E-AD1A-0B625565F02B";
shapes = (
{
closed = 1;
nodes = (
(520,-10,o),
(605,103,o),
(605,247,cs),
(605,319,o),
(584,379,o),
(542,421,cs),
(499,463,o),
(434,485,o),
(348,486,c),
(355,469,l),
(507,628,l),
(507,684,l),
(466,694,o),
(397,710,o),
(325,710,cs),
(266,710,o),
(217,701,o),
(184,672,cs),
(149,643,o),
(128,593,o),
(128,512,cs),
(128,0,l),
(173,0,l),
(173,511,ls),
(173,565,o),
(180,602,o),
(203,629,cs),
(225,654,o),
(261,666,o),
(321,666,cs),
(369,666,o),
(418,661,o),
(470,648,c),
(331,497,l),
(331,447,l),
(352,447,ls),
(410,447,o),
(463,432,o),
(500,398,cs),
(537,365,o),
(560,313,o),
(560,245,cs),
(560,123,o),
(491,34,o),
(364,34,cs),
(336,34,o),
(308,38,o),
(292,43,c),
(292,0,l),
(304,-4,o),
(317,-7,o),
(331,-8,cs),
(345,-9,o),
(357,-10,o),
(369,-10,cs)
);
}
);
width = 676;
}
);
unicode = 7838;
},
{
glyphname = Schwa;
layers = (
{
layerId = "0CD817DE-E207-40E9-9EE5-B2F928C7D041";
shapes = (
{
closed = 1;
nodes = (
(624,-7,o),
(772,130,o),
(772,349,cs),
(772,461,o),
(732,552,o),
(664,614,cs),
(596,676,o),
(501,710,o),
(393,710,cs),
(278,710,o),
(169,671,o),
(100,576,c),
(220,459,l),
(262,526,o),
(319,555,o),
(397,555,cs),
(457,555,o),
(504,539,o),
(535,504,cs),
(566,469,o),
(582,417,o),
(582,345,cs),
(582,224,o),
(536,148,o),
(407,148,cs),
(348,148,o),
(306,164,o),
(278,197,cs),
(250,229,o),
(237,279,o),
(237,347,cs),
(237,379,l),
(91,285,l),
(733,285,l),
(733,429,l),
(47,429,l),
(47,328,ls),
(47,217,o),
(88,133,o),
(153,77,cs),
(218,21,o),
(308,-7,o),
(408,-7,cs)
);
}
);
width = 820;
},
{
layerId = "F7A2C943-FF27-42DD-BB53-36E69242D1D6";
shapes = (
{
closed = 1;
nodes = (
(621,-10,o),
(761,135,o),
(761,347,cs),
(761,448,o),
(728,539,o),
(665,605,cs),
(602,670,o),
(510,710,o),
(394,710,cs),
(289,710,o),
(192,679,o),
(116,604,c),
(175,539,l),
(229,595,o),
(318,625,o),
(397,625,cs),
(481,625,o),
(549,595,o),
(595,545,cs),
(641,495,o),
(668,426,o),
(668,347,cs),
(668,187,o),
(572,75,o),
(408,75,cs),
(332,75,o),
(268,99,o),
(225,142,c),
(180,184,o),
(154,247,o),
(154,326,cs),
(154,379,l),
(101,324,l),
(724,324,l),
(724,404,l),
(59,404,l),
(59,340,ls),
(59,220,o),
(98,132,o),
(162,75,cs),
(226,18,o),
(312,-10,o),
(408,-10,cs)
);
}
);
width = 820;
},
{
layerId = "CEB2CA40-D0FD-4F6E-AD1A-0B625565F02B";
shapes = (
{
closed = 1;
nodes = (
(612,-10,o),
(753,141,o),
(753,349,cs),
(753,442,o),
(725,533,o),
(667,600,cs),
(609,667,o),
(520,710,o),
(405,710,cs),
(310,710,o),
(210,684,o),
(141,615,c),
(171,582,l),
(233,643,o),
(324,666,o),
(408,666,cs),
(501,666,o),
(577,632,o),
(628,575,cs),
(679,518,o),
(708,438,o),
(708,350,cs),
(708,167,o),
(589,34,o),
(402,34,cs),
(315,34,o),
(243,63,o),
(194,117,cs),
(144,170,o),
(116,248,o),
(116,346,cs),
(116,379,l),
(89,348,l),
(717,348,l),
(717,391,l),
(67,391,l),
(67,354,ls),
(67,228,o),
(104,136,o),
(164,77,cs),
(224,18,o),
(308,-10,o),
(402,-10,cs)
);
}
);
width = 820;
}
);
leftKerningGroup = C2;
rightKerningGroup = D;
unicode = 399;
},
{
glyphname = T;
layers = (
{
layerId = "0CD817DE-E207-40E9-9EE5-B2F928C7D041";
shapes = (
{
closed = 1;
nodes = (
(164,0,l),
(344,0,l),
(344,550,l),
(495,550,l),
(495,700,l),
(13,700,l),
(13,550,l),
(164,550,l)
);
}
);
width = 508;
},
{
layerId = "F7A2C943-FF27-42DD-BB53-36E69242D1D6";
shapes = (
{
closed = 1;
nodes = (
(209,0,l),
(299,0,l),
(299,618,l),
(483,618,l),
(483,700,l),
(25,700,l),
(25,618,l),
(209,618,l)
);
}
);
width = 508;
},
{
layerId = "CEB2CA40-D0FD-4F6E-AD1A-0B625565F02B";
shapes = (
{
closed = 1;
nodes = (
(231,0,l),
(276,0,l),
(276,658,l),
(472,658,l),
(472,700,l),
(35,700,l),
(35,658,l),
(231,658,l)
);
}
);
width = 508;
}
);
leftKerningGroup = T2;
rightKerningGroup = T;
unicode = 84;
},
{
glyphname = Tbar;
layers = (
{
layerId = "0CD817DE-E207-40E9-9EE5-B2F928C7D041";
shapes = (
{
closed = 1;
nodes = (
(164,0,l),
(344,0,l),
(344,550,l),
(495,550,l),
(495,700,l),
(13,700,l),
(13,550,l),
(164,550,l)
);
},
{
closed = 1;
nodes = (
(451,450,l),
(47,450,l),
(47,300,l),
(451,300,l)
);
}
);
width = 508;
},
{
layerId = "F7A2C943-FF27-42DD-BB53-36E69242D1D6";
shapes = (
{
closed = 1;
nodes = (
(209,0,l),
(299,0,l),
(299,618,l),
(483,618,l),
(483,700,l),
(25,700,l),
(25,618,l),
(209,618,l)
);
},
{
closed = 1;
nodes = (
(442,416,l),
(62,416,l),
(62,334,l),
(442,334,l)
);
}
);
width = 508;
},
{
layerId = "CEB2CA40-D0FD-4F6E-AD1A-0B625565F02B";
shapes = (
{
closed = 1;
nodes = (
(231,0,l),
(276,0,l),
(276,658,l),
(472,658,l),
(472,700,l),
(35,700,l),
(35,658,l),
(231,658,l)
);
},
{
closed = 1;
nodes = (
(429,396,l),
(64,396,l),
(64,354,l),
(429,354,l)
);
}
);
width = 508;
}
);
leftKerningGroup = T2;
rightKerningGroup = T;
unicode = 358;
},
{
glyphname = U;
layers = (
{
layerId = "0CD817DE-E207-40E9-9EE5-B2F928C7D041";
shapes = (
{
closed = 1;
nodes = (
(551,-10,o),
(647,108,o),
(647,287,cs),
(647,700,l),
(477,700,l),
(477,283,ls),
(477,198,o),
(432,155,o),
(363,155,cs),
(275,155,o),
(251,217,o),
(251,295,cs),
(251,700,l),
(71,700,l),
(71,279,ls),
(71,89,o),
(178,-10,o),
(366,-10,cs)
);
}
);
width = 718;
},
{
layerId = "F7A2C943-FF27-42DD-BB53-36E69242D1D6";
shapes = (
{
closed = 1;
nodes = (
(535,-10,o),
(619,115,o),
(619,278,cs),
(619,700,l),
(530,700,l),
(530,281,ls),
(530,144,o),
(468,76,o),
(360,76,cs),
(233,76,o),
(189,170,o),
(189,283,cs),
(189,700,l),
(99,700,l),
(99,277,ls),
(99,114,o),
(187,-10,o),
(360,-10,cs)
);
}
);
width = 718;
},
{
layerId = "CEB2CA40-D0FD-4F6E-AD1A-0B625565F02B";
shapes = (
{
closed = 1;
nodes = (
(523,-10,o),
(605,112,o),
(605,266,cs),
(605,700,l),
(560,700,l),
(560,269,ls),
(560,119,o),
(488,34,o),
(359,34,cs),
(219,34,o),
(158,141,o),
(158,269,cs),
(158,700,l),
(113,700,l),
(113,266,ls),
(113,112,o),
(195,-10,o),
(359,-10,cs)
);
}
);
width = 718;
}
);
leftKerningGroup = U;
rightKerningGroup = J;
unicode = 85;
},
{
glyphname = Uogonek;
layers = (
{
layerId = "0CD817DE-E207-40E9-9EE5-B2F928C7D041";
shapes = (
{
closed = 1;
nodes = (
(554,-250,o),
(575,-242,o),
(590,-235,c),
(590,-158,l),
(577,-165,o),
(562,-166,o),
(554,-166,cs),
(527,-166,o),
(510,-141,o),
(510,-94,cs),
(510,-65,o),
(517,-36,o),
(529,-8,cs),
(540,20,o),
(555,46,o),
(574,69,cs),
(618,122,o),
(647,192,o),
(647,287,cs),
(647,700,l),
(477,700,l),
(477,283,ls),
(477,240,o),
(466,208,o),
(446,187,cs),
(425,166,o),
(395,155,o),
(359,155,cs),
(326,155,o),
(299,165,o),
(280,187,cs),
(261,209,o),
(251,244,o),
(251,295,cs),
(251,700,l),
(71,700,l),
(71,279,ls),
(71,187,o),
(96,114,o),
(145,66,cs),
(193,17,o),
(265,-10,o),
(360,-10,cs),
(392,-10,o),
(419,-7,o),
(443,-2,c),
(431,-25,o),
(422,-47,o),
(415,-69,cs),
(408,-91,o),
(405,-112,o),
(405,-132,cs),
(405,-165,o),
(415,-195,o),
(435,-216,cs),
(454,-237,o),
(483,-250,o),
(523,-250,cs)
);
}
);
width = 718;
},
{
layerId = "F7A2C943-FF27-42DD-BB53-36E69242D1D6";
shapes = (
{
closed = 1;
nodes = (
(532,-244,o),
(549,-241,o),
(568,-234,c),
(568,-176,l),
(553,-181,o),
(539,-182,o),
(530,-182,cs),
(489,-182,o),
(467,-156,o),
(467,-115,cs),
(467,-87,o),
(475,-62,o),
(489,-31,cs),
(503,0,o),
(525,34,o),
(558,78,cs),
(594,125,o),
(619,192,o),
(619,272,cs),
(619,700,l),
(530,700,l),
(530,276,ls),
(530,212,o),
(513,163,o),
(485,128,cs),
(456,93,o),
(414,76,o),
(359,76,cs),
(306,76,o),
(262,93,o),
(234,128,cs),
(206,163,o),
(189,213,o),
(189,278,cs),
(189,700,l),
(99,700,l),
(99,270,ls),
(99,186,o),
(124,116,o),
(169,68,cs),
(213,19,o),
(278,-10,o),
(358,-10,cs),
(393,-10,o),
(423,-4,o),
(452,7,c),
(432,-24,o),
(417,-51,o),
(408,-76,cs),
(399,-100,o),
(393,-121,o),
(393,-140,cs),
(393,-168,o),
(402,-194,o),
(421,-214,cs),
(440,-233,o),
(468,-244,o),
(503,-244,cs)
);
}
);
width = 718;
},
{
layerId = "CEB2CA40-D0FD-4F6E-AD1A-0B625565F02B";
shapes = (
{
closed = 1;
nodes = (
(510,-241,o),
(535,-237,o),
(547,-233,c),
(547,-195,l),
(532,-199,o),
(517,-201,o),
(504,-201,cs),
(457,-201,o),
(436,-175,o),
(436,-134,cs),
(436,-110,o),
(443,-84,o),
(459,-52,cs),
(475,-20,o),
(502,17,o),
(541,68,c),
(584,121,o),
(605,185,o),
(605,266,cs),
(605,700,l),
(560,700,l),
(560,269,ls),
(560,194,o),
(543,136,o),
(508,96,cs),
(472,55,o),
(423,34,o),
(359,34,cs),
(295,34,o),
(246,55,o),
(211,96,cs),
(176,136,o),
(158,194,o),
(158,269,cs),
(158,700,l),
(113,700,l),
(113,266,ls),
(113,183,o),
(134,114,o),
(177,66,cs),
(220,18,o),
(282,-10,o),
(359,-10,cs),
(394,-10,o),
(437,-1,o),
(470,19,c),
(441,-22,o),
(420,-54,o),
(408,-80,cs),
(395,-106,o),
(390,-126,o),
(390,-145,cs),
(390,-172,o),
(399,-195,o),
(416,-213,cs),
(432,-231,o),
(459,-241,o),
(494,-241,cs)
);
}
);
width = 718;
}
);
leftKerningGroup = U;
rightKerningGroup = J;
unicode = 370;
},
{
glyphname = V;
layers = (
{
layerId = "0CD817DE-E207-40E9-9EE5-B2F928C7D041";
shapes = (
{
closed = 1;
nodes = (
(270,-6,l),
(370,-6,l),
(622,680,l),
(622,700,l),
(453,700,l),
(277,177,l),
(377,177,l),
(197,700,l),
(16,700,l),
(16,680,l)
);
}
);
width = 638;
},
{
layerId = "F7A2C943-FF27-42DD-BB53-36E69242D1D6";
shapes = (
{
closed = 1;
nodes = (
(302,-9,l),
(336,-9,l),
(614,680,l),
(614,700,l),
(528,700,l),
(304,128,l),
(340,128,l),
(113,700,l),
(24,700,l),
(24,680,l)
);
}
);
width = 638;
},
{
layerId = "CEB2CA40-D0FD-4F6E-AD1A-0B625565F02B";
shapes = (
{
closed = 1;
nodes = (
(313,-10,l),
(321,-10,l),
(593,680,l),
(593,700,l),
(555,700,l),
(308,69,l),
(330,69,l),
(83,700,l),
(44,700,l),
(44,680,l)
);
}
);
width = 638;
}
);
unicode = 86;
},
{
glyphname = W;
layers = (
{
layerId = "0CD817DE-E207-40E9-9EE5-B2F928C7D041";
shapes = (
{
closed = 1;
nodes = (
(172,0,l),
(302,0,l),
(495,514,l),
(412,514,l),
(596,0,l),
(722,0,l),
(894,680,l),
(894,700,l),
(729,700,l),
(597,180,l),
(709,149,l),
(513,700,l),
(397,700,l),
(202,150,l),
(298,220,l),
(181,700,l),
(6,700,l),
(6,680,l)
);
}
);
width = 900;
},
{
layerId = "F7A2C943-FF27-42DD-BB53-36E69242D1D6";
shapes = (
{
closed = 1;
nodes = (
(229,-9,l),
(267,-9,l),
(475,585,l),
(426,585,l),
(632,-9,l),
(671,-9,l),
(860,680,l),
(860,700,l),
(776,700,l),
(625,141,l),
(664,136,l),
(470,700,l),
(432,700,l),
(238,136,l),
(274,147,l),
(125,700,l),
(40,700,l),
(40,680,l)
);
}
);
width = 900;
},
{
layerId = "CEB2CA40-D0FD-4F6E-AD1A-0B625565F02B";
shapes = (
{
closed = 1;
nodes = (
(246,-3,l),
(394,436,l),
(458,610,l),
(587,171,l),
(652,-3,l),
(786,483,l),
(840,694,l),
(822,700,l),
(685,260,l),
(647,98,l),
(512,538,l),
(450,700,l),
(300,260,l),
(251,98,l),
(141,539,l),
(78,700,l),
(58,686,l),
(185,194,l)
);
}
);
width = 900;
}
);
leftKerningGroup = W2;
rightKerningGroup = W;
unicode = 87;
},
{
glyphname = X;
layers = (
{
layerId = "0CD817DE-E207-40E9-9EE5-B2F928C7D041";
shapes = (
{
closed = 1;
nodes = (
(-30,0,l),
(149,0,l),
(299,262,l),
(451,0,l),
(644,0,l),
(644,20,l),
(412,382,l),
(595,680,l),
(595,700,l),
(420,700,l),
(306,503,l),
(195,700,l),
(4,700,l),
(4,680,l),
(187,380,l),
(-30,20,l)
);
}
);
width = 615;
},
{
layerId = "F7A2C943-FF27-42DD-BB53-36E69242D1D6";
shapes = (
{
closed = 1;
nodes = (
(37,0,l),
(124,0,l),
(306,297,l),
(485,0,l),
(578,0,l),
(578,20,l),
(362,373,l),
(552,680,l),
(552,700,l),
(468,700,l),
(310,443,l),
(160,700,l),
(65,700,l),
(65,680,l),
(254,369,l),
(37,20,l)
);
}
);
width = 615;
},
{
layerId = "CEB2CA40-D0FD-4F6E-AD1A-0B625565F02B";
shapes = (
{
closed = 1;
nodes = (
(57,0,l),
(96,0,l),
(305,332,l),
(517,0,l),
(556,0,l),
(556,20,l),
(334,369,l),
(534,680,l),
(534,700,l),
(495,700,l),
(307,407,l),
(120,700,l),
(82,700,l),
(82,680,l),
(279,371,l),
(57,20,l)
);
}
);
width = 615;
}
);
unicode = 88;
},
{
glyphname = Y;
layers = (
{
layerId = "0CD817DE-E207-40E9-9EE5-B2F928C7D041";
shapes = (
{
closed = 1;
nodes = (
(281,132,l),
(299,132,l),
(559,680,l),
(559,700,l),
(383,700,l),
(263,401,l),
(333,402,l),
(211,700,l),
(21,700,l),
(21,680,l)
);
},
{
closed = 1;
nodes = (
(380,307,l),
(200,307,l),
(200,0,l),
(380,0,l)
);
}
);
width = 580;
},
{
layerId = "F7A2C943-FF27-42DD-BB53-36E69242D1D6";
shapes = (
{
closed = 1;
nodes = (
(288,236,l),
(302,239,l),
(552,680,l),
(552,700,l),
(464,700,l),
(275,363,l),
(313,363,l),
(118,700,l),
(28,700,l),
(28,680,l)
);
},
{
closed = 1;
nodes = (
(338,359,l),
(248,359,l),
(248,0,l),
(338,0,l)
);
}
);
width = 580;
},
{
layerId = "CEB2CA40-D0FD-4F6E-AD1A-0B625565F02B";
shapes = (
{
closed = 1;
nodes = (
(289,305,l),
(302,306,l),
(532,679,l),
(532,700,l),
(496,700,l),
(283,354,l),
(308,355,l),
(86,700,l),
(48,700,l),
(48,679,l)
);
},
{
closed = 1;
nodes = (
(317,363,l),
(273,363,l),
(273,0,l),
(317,0,l)
);
}
);
width = 580;
}
);
leftKerningGroup = Y2;
rightKerningGroup = Y;
unicode = 89;
},
{
glyphname = Z;
layers = (
{
layerId = "0CD817DE-E207-40E9-9EE5-B2F928C7D041";
shapes = (
{
closed = 1;
nodes = (
(47,0,l),
(531,0,l),
(531,150,l),
(218,150,l),
(241,104,l),
(529,578,l),
(529,700,l),
(68,700,l),
(68,550,l),
(383,550,l),
(346,602,l),
(47,109,l)
);
}
);
width = 582;
},
{
layerId = "F7A2C943-FF27-42DD-BB53-36E69242D1D6";
shapes = (
{
closed = 1;
nodes = (
(50,0,l),
(522,0,l),
(522,82,l),
(132,82,l),
(146,58,l),
(527,639,l),
(527,700,l),
(67,700,l),
(67,618,l),
(458,618,l),
(434,653,l),
(50,67,l)
);
}
);
width = 582;
},
{
layerId = "CEB2CA40-D0FD-4F6E-AD1A-0B625565F02B";
shapes = (
{
closed = 1;
nodes = (
(52,0,l),
(517,0,l),
(517,42,l),
(94,42,l),
(95,13,l),
(527,678,l),
(527,700,l),
(67,700,l),
(67,658,l),
(489,658,l),
(488,693,l),
(52,23,l)
);
}
);
width = 582;
}
);
leftKerningGroup = Z2;
rightKerningGroup = Z;
unicode = 90;
},
{
glyphname = a;
layers = (
{
layerId = "0CD817DE-E207-40E9-9EE5-B2F928C7D041";
shapes = (
{
closed = 1;
nodes = (
(292,-11,o),
(355,56,o),
(355,160,c),
(337,127,l),
(337,85,o),
(342,42,o),
(357,0,c),
(514,0,l),
(501,44,o),
(498,88,o),
(498,132,cs),
(498,274,ls),
(498,414,o),
(404,477,o),
(272,477,cs),
(167,477,o),
(78,436,o),
(41,333,c),
(180,300,l),
(193,333,o),
(218,351,o),
(265,351,cs),
(293,351,o),
(337,343,o),
(337,307,cs),
(337,288,o),
(323,270,o),
(282,270,cs),
(174,270,ls),
(90,270,o),
(22,224,o),
(22,137,cs),
(22,41,o),
(95,-11,o),
(187,-11,cs)
);
},
{
closed = 1;
nodes = (
(202,119,o),
(187,136,o),
(187,155,cs),
(187,172,o),
(200,188,o),
(232,188,cs),
(276,188,ls),
(312,188,o),
(335,208,o),
(346,243,c),
(337,267,l),
(337,208,ls),
(337,153,o),
(300,119,o),
(246,119,cs)
);
}
);
width = 543;
},
{
layerId = "F7A2C943-FF27-42DD-BB53-36E69242D1D6";
shapes = (
{
closed = 1;
nodes = (
(302,-9,o),
(407,36,o),
(405,132,c),
(395,147,l),
(395,97,o),
(397,49,o),
(412,0,c),
(497,0,l),
(482,43,o),
(481,85,o),
(481,129,cs),
(481,266,ls),
(481,400,o),
(410,476,o),
(275,476,cs),
(176,476,o),
(79,427,o),
(58,322,c),
(140,299,l),
(149,359,o),
(196,395,o),
(271,395,cs),
(327,395,o),
(392,373,o),
(392,305,cs),
(392,270,o),
(372,262,o),
(339,262,cs),
(194,262,ls),
(106,262,o),
(44,218,o),
(44,130,cs),
(44,32,o),
(129,-9,o),
(220,-9,cs)
);
},
{
closed = 1;
nodes = (
(166,74,o),
(134,96,o),
(134,138,cs),
(134,176,o),
(160,196,o),
(207,196,cs),
(327,196,ls),
(361,196,o),
(392,209,o),
(413,253,c),
(392,270,l),
(392,197,ls),
(392,114,o),
(315,74,o),
(241,74,cs)
);
}
);
width = 543;
},
{
layerId = "CEB2CA40-D0FD-4F6E-AD1A-0B625565F02B";
shapes = (
{
closed = 1;
nodes = (
(326,-8,o),
(428,48,o),
(441,148,c),
(426,157,l),
(426,105,o),
(427,52,o),
(445,0,c),
(487,0,l),
(470,42,o),
(467,84,o),
(467,126,cs),
(467,261,ls),
(467,396,o),
(402,477,o),
(265,477,cs),
(165,477,o),
(83,419,o),
(62,319,c),
(101,308,l),
(121,383,o),
(172,434,o),
(263,434,cs),
(344,434,o),
(420,392,o),
(420,304,cs),
(420,263,o),
(396,250,o),
(369,250,cs),
(204,250,ls),
(118,250,o),
(54,209,o),
(54,122,cs),
(54,20,o),
(139,-8,o),
(233,-8,cs)
);
},
{
closed = 1;
nodes = (
(151,35,o),
(101,57,o),
(101,123,cs),
(101,182,o),
(137,210,o),
(199,210,cs),
(365,210,ls),
(394,210,o),
(422,217,o),
(449,260,c),
(420,271,l),
(420,191,ls),
(420,92,o),
(328,35,o),
(237,35,cs)
);
}
);
width = 543;
}
);
leftKerningGroup = a2;
rightKerningGroup = a;
unicode = 97;
},
{
glyphname = ae;
layers = (
{
layerId = "0CD817DE-E207-40E9-9EE5-B2F928C7D041";
shapes = (
{
closed = 1;
nodes = (
(247,-11,o),
(306,15,o),
(347,63,cs),
(387,110,o),
(410,177,o),
(410,261,c),
(419,289,l),
(419,348,o),
(398,395,o),
(362,427,cs),
(325,459,o),
(272,477,o),
(209,477,cs),
(172,477,o),
(135,471,o),
(102,460,cs),
(69,449,o),
(41,435,o),
(21,416,c),
(58,304,l),
(101,333,o),
(140,350,o),
(192,350,cs),
(232,350,o),
(258,340,o),
(274,324,cs),
(290,307,o),
(295,284,o),
(295,257,cs),
(295,208,ls),
(295,180,o),
(283,159,o),
(266,144,cs),
(249,129,o),
(225,122,o),
(200,122,cs),
(183,122,o),
(168,126,o),
(160,133,cs),
(151,140,o),
(146,149,o),
(146,161,cs),
(146,176,o),
(153,184,o),
(164,189,cs),
(175,193,o),
(192,195,o),
(209,195,cs),
(792,195,l),
(792,221,ls),
(792,297,o),
(769,362,o),
(729,407,cs),
(688,451,o),
(628,477,o),
(555,477,cs),
(482,477,o),
(419,452,o),
(375,408,cs),
(330,364,o),
(304,302,o),
(304,229,cs),
(304,161,o),
(329,103,o),
(374,61,cs),
(418,19,o),
(482,-7,o),
(559,-7,cs),
(610,-7,o),
(653,2,o),
(692,19,cs),
(731,35,o),
(764,59,o),
(789,88,c),
(702,168,l),
(686,152,o),
(667,139,o),
(645,131,cs),
(623,122,o),
(599,117,o),
(574,117,cs),
(535,117,o),
(504,128,o),
(484,149,cs),
(463,170,o),
(451,200,o),
(451,240,cs),
(451,276,o),
(460,303,o),
(477,322,cs),
(493,341,o),
(517,350,o),
(548,350,cs),
(579,350,o),
(601,341,o),
(616,327,cs),
(631,313,o),
(638,294,o),
(638,274,cs),
(638,227,l),
(740,281,l),
(176,281,ls),
(112,281,o),
(65,269,o),
(34,246,cs),
(2,222,o),
(-14,187,o),
(-14,142,cs),
(-14,93,o),
(7,53,o),
(40,28,cs),
(73,3,o),
(120,-11,o),
(172,-11,cs)
);
}
);
width = 784;
},
{
layerId = "F7A2C943-FF27-42DD-BB53-36E69242D1D6";
shapes = (
{
closed = 1;
nodes = (
(257,-9,o),
(309,11,o),
(347,51,cs),
(384,92,o),
(407,156,o),
(407,244,c),
(406,281,l),
(406,356,o),
(382,404,o),
(347,435,cs),
(312,465,o),
(266,476,o),
(220,476,cs),
(186,476,o),
(153,470,o),
(123,456,c),
(94,441,o),
(68,421,o),
(46,394,c),
(85,325,l),
(116,369,o),
(154,395,o),
(209,395,cs),
(246,395,o),
(279,384,o),
(301,363,cs),
(323,342,o),
(336,311,o),
(336,271,cs),
(336,223,ls),
(336,177,o),
(323,139,o),
(303,112,cs),
(281,84,o),
(248,70,o),
(208,70,cs),
(180,70,o),
(157,76,o),
(141,89,cs),
(124,102,o),
(113,121,o),
(113,145,cs),
(113,164,o),
(120,182,o),
(135,196,c),
(150,208,o),
(173,216,o),
(207,216,cs),
(759,216,l),
(759,258,ls),
(759,313,o),
(741,370,o),
(707,410,cs),
(672,452,o),
(623,479,o),
(558,479,cs),
(500,479,o),
(447,456,o),
(408,414,cs),
(369,373,o),
(343,311,o),
(343,234,cs),
(343,159,o),
(366,100,o),
(404,58,cs),
(442,16,o),
(495,-9,o),
(556,-9,cs),
(594,-9,o),
(630,-1,o),
(661,15,cs),
(692,30,o),
(719,52,o),
(738,82,c),
(683,133,l),
(669,113,o),
(650,98,o),
(629,86,c),
(606,75,o),
(581,69,o),
(555,69,cs),
(514,69,o),
(481,85,o),
(458,115,cs),
(435,143,o),
(421,185,o),
(421,237,cs),
(421,287,o),
(436,328,o),
(461,356,c),
(485,385,o),
(519,401,o),
(556,401,cs),
(593,401,o),
(622,386,o),
(642,362,cs),
(662,339,o),
(674,307,o),
(674,271,cs),
(674,230,l),
(723,284,l),
(197,284,ls),
(137,284,o),
(92,267,o),
(65,241,cs),
(38,215,o),
(25,178,o),
(25,139,cs),
(25,93,o),
(44,56,o),
(75,31,cs),
(106,5,o),
(150,-9,o),
(200,-9,cs)
);
}
);
width = 784;
},
{
layerId = "CEB2CA40-D0FD-4F6E-AD1A-0B625565F02B";
shapes = (
{
closed = 1;
nodes = (
(242,-9,o),
(290,7,o),
(327,44,cs),
(363,80,o),
(386,143,o),
(386,234,c),
(388,276,l),
(388,359,o),
(363,412,o),
(330,440,cs),
(296,470,o),
(254,478,o),
(218,478,cs),
(187,478,o),
(157,471,o),
(131,458,cs),
(105,444,o),
(83,428,o),
(65,408,c),
(93,373,l),
(123,411,o),
(167,436,o),
(215,436,cs),
(253,436,o),
(286,421,o),
(311,394,c),
(338,367,o),
(352,327,o),
(352,279,cs),
(352,232,ls),
(352,176,o),
(339,127,o),
(313,91,cs),
(287,55,o),
(248,34,o),
(195,34,cs),
(166,34,o),
(139,44,o),
(120,61,cs),
(101,77,o),
(89,102,o),
(89,133,cs),
(89,154,o),
(94,178,o),
(115,198,cs),
(135,217,o),
(171,229,o),
(226,229,cs),
(733,229,l),
(733,279,ls),
(733,323,o),
(720,372,o),
(691,412,cs),
(662,451,o),
(618,479,o),
(553,479,cs),
(500,479,o),
(453,458,o),
(417,417,cs),
(382,378,o),
(360,317,o),
(360,237,cs),
(360,159,o),
(382,98,o),
(416,56,cs),
(450,13,o),
(498,-9,o),
(553,-9,cs),
(582,-9,o),
(616,-2,o),
(647,12,c),
(679,25,o),
(709,48,o),
(731,79,c),
(699,108,l),
(685,86,o),
(661,67,o),
(636,55,c),
(611,41,o),
(582,34,o),
(555,34,cs),
(509,34,o),
(470,54,o),
(442,90,cs),
(414,125,o),
(397,177,o),
(397,236,cs),
(397,294,o),
(415,345,o),
(442,380,cs),
(470,416,o),
(510,436,o),
(553,436,cs),
(599,436,o),
(633,416,o),
(655,386,cs),
(677,356,o),
(688,314,o),
(688,269,cs),
(688,231,l),
(706,271,l),
(213,271,ls),
(156,271,o),
(113,255,o),
(85,229,c),
(55,203,o),
(40,167,o),
(40,128,cs),
(40,88,o),
(56,54,o),
(84,30,c),
(110,6,o),
(149,-9,o),
(191,-9,cs)
);
}
);
width = 784;
}
);
leftKerningGroup = a2;
rightKerningGroup = b;
unicode = 230;
},
{
glyphname = b;
layers = (
{
layerId = "0CD817DE-E207-40E9-9EE5-B2F928C7D041";
shapes = (
{
closed = 1;
nodes = (
(198,0,l),
(198,111,l),
(207,126,l),
(207,339,l),
(207,346,l),
(207,700,l),
(42,700,l),
(42,346,l),
(42,339,l),
(42,0,l)
);
},
{
closed = 1;
nodes = (
(491,-7,o),
(559,113,o),
(559,236,cs),
(559,360,o),
(491,477,o),
(355,477,cs),
(271,477,o),
(198,427,o),
(191,339,c),
(191,240,l),
(207,240,l),
(207,293,o),
(237,336,o),
(293,336,cs),
(352,336,o),
(383,290,o),
(383,235,cs),
(383,180,o),
(351,131,o),
(292,131,cs),
(271,131,o),
(249,139,o),
(234,156,c),
(218,172,o),
(207,198,o),
(207,234,c),
(186,234,l),
(186,129,l),
(193,92,o),
(211,57,o),
(240,33,c),
(268,8,o),
(307,-7,o),
(355,-7,cs)
);
}
);
width = 582;
},
{
layerId = "F7A2C943-FF27-42DD-BB53-36E69242D1D6";
shapes = (
{
closed = 1;
nodes = (
(153,0,l),
(153,118,l),
(158,134,l),
(158,331,l),
(158,339,l),
(158,700,l),
(69,700,l),
(69,339,l),
(69,331,l),
(69,0,l)
);
},
{
closed = 1;
nodes = (
(459,-9,o),
(546,103,o),
(546,235,cs),
(546,369,o),
(462,479,o),
(322,479,cs),
(253,479,o),
(159,442,o),
(147,364,c),
(147,242,l),
(158,242,l),
(158,329,o),
(216,397,o),
(305,397,cs),
(400,397,o),
(452,327,o),
(452,236,cs),
(452,147,o),
(401,73,o),
(307,73,cs),
(260,73,o),
(222,92,o),
(197,122,cs),
(173,151,o),
(158,191,o),
(158,232,c),
(142,232,l),
(142,120,l),
(149,84,o),
(172,52,o),
(202,30,cs),
(233,6,o),
(274,-9,o),
(322,-9,cs)
);
}
);
width = 582;
},
{
layerId = "CEB2CA40-D0FD-4F6E-AD1A-0B625565F02B";
shapes = (
{
closed = 1;
nodes = (
(117,0,l),
(117,137,l),
(119,138,l),
(119,327,l),
(119,335,l),
(119,700,l),
(72,700,l),
(72,335,l),
(72,327,l),
(72,0,l)
);
},
{
closed = 1;
nodes = (
(440,-9,o),
(528,105,o),
(528,234,cs),
(528,369,o),
(440,479,o),
(301,479,cs),
(204,479,o),
(124,410,o),
(105,317,c),
(116,243,l),
(119,243,l),
(119,351,o),
(190,436,o),
(301,436,cs),
(419,436,o),
(480,350,o),
(480,237,cs),
(480,129,o),
(420,34,o),
(303,34,cs),
(242,34,o),
(196,62,o),
(165,99,cs),
(134,137,o),
(119,185,o),
(119,231,c),
(111,231,l),
(104,162,l),
(113,117,o),
(136,74,o),
(170,42,cs),
(205,10,o),
(250,-9,o),
(304,-9,cs)
);
}
);
width = 582;
}
);
leftKerningGroup = b2;
rightKerningGroup = b;
unicode = 98;
},
{
glyphname = c;
layers = (
{
layerId = "0CD817DE-E207-40E9-9EE5-B2F928C7D041";
shapes = (
{
closed = 1;
nodes = (
(365,-7,o),
(440,20,o),
(483,80,c),
(389,174,l),
(361,147,o),
(337,130,o),
(300,130,cs),
(269,130,o),
(246,141,o),
(231,161,c),
(215,180,o),
(207,207,o),
(207,236,cs),
(207,263,o),
(213,289,o),
(228,309,cs),
(243,328,o),
(265,340,o),
(297,340,cs),
(336,340,o),
(364,321,o),
(389,297,c),
(469,404,l),
(453,424,o),
(427,443,o),
(395,456,c),
(362,468,o),
(323,477,o),
(280,477,cs),
(208,477,o),
(146,455,o),
(102,413,cs),
(58,371,o),
(31,309,o),
(31,232,cs),
(31,157,o),
(56,97,o),
(100,57,cs),
(143,16,o),
(205,-7,o),
(280,-7,cs)
);
}
);
width = 499;
},
{
layerId = "F7A2C943-FF27-42DD-BB53-36E69242D1D6";
shapes = (
{
closed = 1;
nodes = (
(368,-9,o),
(433,25,o),
(474,74,c),
(419,129,l),
(391,94,o),
(348,71,o),
(292,71,cs),
(244,71,o),
(204,88,o),
(176,118,cs),
(147,148,o),
(131,189,o),
(131,238,cs),
(131,289,o),
(147,328,o),
(176,356,cs),
(204,384,o),
(243,399,o),
(287,399,cs),
(339,399,o),
(385,377,o),
(416,342,c),
(466,408,l),
(445,429,o),
(418,448,o),
(387,460,c),
(355,471,o),
(320,479,o),
(283,479,cs),
(215,479,o),
(154,455,o),
(111,414,cs),
(67,373,o),
(40,312,o),
(40,236,cs),
(40,167,o),
(64,105,o),
(106,62,cs),
(148,18,o),
(210,-9,o),
(283,-9,cs)
);
}
);
width = 499;
},
{
layerId = "CEB2CA40-D0FD-4F6E-AD1A-0B625565F02B";
shapes = (
{
closed = 1;
nodes = (
(366,-9,o),
(426,26,o),
(465,69,c),
(436,98,l),
(405,61,o),
(350,34,o),
(285,34,cs),
(228,34,o),
(177,54,o),
(142,91,c),
(106,127,o),
(83,179,o),
(83,239,cs),
(83,304,o),
(107,353,o),
(143,386,cs),
(178,418,o),
(228,436,o),
(279,436,cs),
(340,436,o),
(396,414,o),
(433,373,c),
(460,408,l),
(437,432,o),
(407,449,o),
(377,461,cs),
(347,473,o),
(314,479,o),
(281,479,cs),
(216,479,o),
(154,457,o),
(110,415,cs),
(65,373,o),
(39,314,o),
(39,239,cs),
(39,172,o),
(62,109,o),
(104,64,cs),
(146,19,o),
(207,-9,o),
(282,-9,cs)
);
}
);
width = 499;
}
);
leftKerningGroup = a2;
rightKerningGroup = c;
unicode = 99;
},
{
glyphname = d;
layers = (
{
layerId = "0CD817DE-E207-40E9-9EE5-B2F928C7D041";
shapes = (
{
closed = 1;
nodes = (
(383,0,l),
(539,0,l),
(539,339,l),
(539,346,l),
(539,700,l),
(374,700,l),
(374,346,l),
(374,339,l),
(374,126,l),
(383,111,l)
);
},
{
closed = 1;
nodes = (
(313,-7,o),
(379,43,o),
(395,129,c),
(395,234,l),
(374,234,l),
(374,181,o),
(348,131,o),
(289,131,cs),
(265,131,o),
(242,141,o),
(226,158,cs),
(209,175,o),
(198,202,o),
(198,235,cs),
(198,289,o),
(230,336,o),
(288,336,cs),
(311,336,o),
(332,328,o),
(348,312,cs),
(364,296,o),
(374,272,o),
(374,240,c),
(390,240,l),
(390,339,l),
(389,376,o),
(371,411,o),
(343,436,cs),
(315,461,o),
(274,477,o),
(226,477,cs),
(90,477,o),
(22,360,o),
(22,236,cs),
(22,167,o),
(42,105,o),
(78,62,cs),
(114,19,o),
(165,-7,o),
(226,-7,cs)
);
}
);
width = 582;
},
{
layerId = "F7A2C943-FF27-42DD-BB53-36E69242D1D6";
shapes = (
{
closed = 1;
nodes = (
(428,0,l),
(513,0,l),
(513,331,l),
(513,339,l),
(513,700,l),
(424,700,l),
(424,339,l),
(424,331,l),
(424,134,l),
(428,118,l)
);
},
{
closed = 1;
nodes = (
(340,-9,o),
(423,37,o),
(440,120,c),
(440,232,l),
(424,232,l),
(424,146,o),
(365,73,o),
(275,73,cs),
(232,73,o),
(195,89,o),
(170,118,cs),
(145,146,o),
(129,187,o),
(129,236,cs),
(129,327,o),
(182,397,o),
(277,397,cs),
(324,397,o),
(361,379,o),
(386,351,cs),
(410,323,o),
(424,283,o),
(424,242,c),
(435,242,l),
(435,364,l),
(430,391,o),
(411,420,o),
(382,442,cs),
(352,464,o),
(311,479,o),
(259,479,cs),
(119,479,o),
(36,369,o),
(36,235,cs),
(36,160,o),
(62,99,o),
(102,58,cs),
(143,15,o),
(200,-9,o),
(259,-9,cs)
);
}
);
width = 582;
},
{
layerId = "CEB2CA40-D0FD-4F6E-AD1A-0B625565F02B";
shapes = (
{
closed = 1;
nodes = (
(465,0,l),
(510,0,l),
(510,327,l),
(510,335,l),
(510,700,l),
(463,700,l),
(463,335,l),
(463,327,l),
(463,138,l),
(465,121,l)
);
},
{
closed = 1;
nodes = (
(381,-9,o),
(458,64,o),
(478,162,c),
(472,231,l),
(463,231,l),
(463,125,o),
(389,34,o),
(279,34,cs),
(225,34,o),
(181,54,o),
(150,91,cs),
(120,127,o),
(102,176,o),
(102,237,cs),
(102,349,o),
(164,436,o),
(281,436,cs),
(342,436,o),
(389,412,o),
(418,376,cs),
(448,338,o),
(463,291,o),
(463,243,c),
(466,243,l),
(477,317,l),
(469,359,o),
(448,398,o),
(414,429,cs),
(382,459,o),
(338,479,o),
(281,479,cs),
(143,479,o),
(54,368,o),
(54,234,cs),
(54,156,o),
(82,97,o),
(124,55,cs),
(167,13,o),
(221,-9,o),
(278,-9,cs)
);
}
);
width = 582;
}
);
leftKerningGroup = a2;
rightKerningGroup = d;
unicode = 100;
},
{
glyphname = eth;
layers = (
{
layerId = "0CD817DE-E207-40E9-9EE5-B2F928C7D041";
shapes = (
{
closed = 1;
nodes = (
(350,-7,o),
(418,15,o),
(466,61,cs),
(514,107,o),
(541,175,o),
(541,270,cs),
(541,312,o),
(535,352,o),
(522,389,cs),
(496,463,o),
(453,524,o),
(399,574,cs),
(372,599,o),
(344,621,o),
(315,640,cs),
(258,678,o),
(200,704,o),
(156,717,c),
(85,611,l),
(154,586,o),
(219,549,o),
(270,499,cs),
(321,449,o),
(358,385,o),
(371,306,c),
(404,321,l),
(363,402,o),
(309,440,o),
(226,440,cs),
(159,440,o),
(105,414,o),
(66,373,cs),
(27,332,o),
(5,274,o),
(5,209,cs),
(5,136,o),
(33,82,o),
(81,46,cs),
(128,10,o),
(193,-7,o),
(266,-7,cs)
);
},
{
closed = 1;
nodes = (
(242,136,o),
(218,144,o),
(203,158,cs),
(188,172,o),
(181,192,o),
(181,217,cs),
(181,241,o),
(187,262,o),
(203,276,cs),
(218,290,o),
(241,297,o),
(273,297,cs),
(306,297,o),
(329,289,o),
(344,275,cs),
(359,261,o),
(365,239,o),
(365,214,cs),
(365,185,o),
(356,165,o),
(340,153,cs),
(324,141,o),
(302,136,o),
(275,136,cs)
);
},
{
closed = 1;
nodes = (
(455,598,l),
(411,684,l),
(118,533,l),
(162,448,l)
);
}
);
width = 547;
},
{
layerId = "F7A2C943-FF27-42DD-BB53-36E69242D1D6";
shapes = (
{
closed = 1;
nodes = (
(335,-8,o),
(391,9,o),
(432,50,cs),
(473,90,o),
(500,156,o),
(500,253,cs),
(500,292,o),
(496,329,o),
(488,364,cs),
(471,435,o),
(441,496,o),
(402,549,cs),
(382,576,o),
(361,600,o),
(338,621,cs),
(292,664,o),
(240,694,o),
(191,711,c),
(153,661,l),
(225,625,o),
(289,573,o),
(336,508,cs),
(383,443,o),
(411,365,o),
(414,276,c),
(443,337,l),
(394,416,o),
(336,447,o),
(264,447,cs),
(205,447,o),
(151,426,o),
(112,387,cs),
(72,347,o),
(47,291,o),
(47,218,cs),
(47,147,o),
(71,92,o),
(112,53,cs),
(153,13,o),
(210,-8,o),
(275,-8,cs)
);
},
{
closed = 1;
nodes = (
(237,68,o),
(199,85,o),
(174,113,cs),
(149,140,o),
(134,178,o),
(134,221,cs),
(134,262,o),
(147,300,o),
(172,327,cs),
(196,354,o),
(231,371,o),
(275,371,cs),
(315,371,o),
(350,356,o),
(375,329,cs),
(399,302,o),
(413,265,o),
(413,217,cs),
(413,172,o),
(399,135,o),
(375,109,cs),
(351,83,o),
(318,68,o),
(278,68,cs)
);
},
{
closed = 1;
nodes = (
(459,614,l),
(432,669,l),
(139,519,l),
(167,465,l)
);
}
);
width = 547;
},
{
layerId = "CEB2CA40-D0FD-4F6E-AD1A-0B625565F02B";
shapes = (
{
closed = 1;
nodes = (
(318,-8,o),
(370,5,o),
(410,46,cs),
(450,86,o),
(478,153,o),
(478,261,cs),
(478,294,o),
(475,327,o),
(470,359,c),
(458,422,o),
(438,481,o),
(407,533,c),
(391,558,o),
(373,582,o),
(354,604,c),
(314,647,o),
(267,684,o),
(212,708,c),
(193,677,l),
(262,644,o),
(324,593,o),
(368,523,cs),
(411,453,o),
(436,364,o),
(436,260,c),
(457,317,l),
(408,406,o),
(342,439,o),
(275,439,cs),
(223,439,o),
(171,419,o),
(132,380,cs),
(93,341,o),
(69,287,o),
(69,214,cs),
(69,149,o),
(89,94,o),
(126,55,c),
(162,15,o),
(212,-8,o),
(273,-8,cs)
);
},
{
closed = 1;
nodes = (
(226,31,o),
(185,52,o),
(156,87,cs),
(127,122,o),
(109,169,o),
(109,220,cs),
(109,269,o),
(125,314,o),
(152,347,cs),
(179,379,o),
(220,399,o),
(269,399,cs),
(312,399,o),
(355,382,o),
(387,350,cs),
(418,318,o),
(438,273,o),
(438,216,cs),
(438,163,o),
(419,116,o),
(390,84,cs),
(361,51,o),
(321,31,o),
(274,31,cs)
);
},
{
closed = 1;
nodes = (
(457,626,l),
(441,657,l),
(152,509,l),
(168,477,l)
);
}
);
width = 547;
}
);
leftKerningGroup = a2;
rightKerningGroup = b;
unicode = 240;
},
{
glyphname = dcroat;
layers = (
{
layerId = "0CD817DE-E207-40E9-9EE5-B2F928C7D041";
shapes = (
{
closed = 1;
nodes = (
(231,513,l),
(609,513,l),
(609,643,l),
(231,643,l)
);
},
{
closed = 1;
nodes = (
(383,0,l),
(539,0,l),
(539,339,l),
(539,346,l),
(539,700,l),
(374,700,l),
(374,346,l),
(374,339,l),
(374,126,l),
(383,111,l)
);
},
{
closed = 1;
nodes = (
(313,-7,o),
(379,43,o),
(395,129,c),
(395,234,l),
(374,234,l),
(374,181,o),
(348,131,o),
(289,131,cs),
(265,131,o),
(242,141,o),
(226,158,cs),
(209,175,o),
(198,202,o),
(198,235,cs),
(198,289,o),
(230,336,o),
(288,336,cs),
(311,336,o),
(332,328,o),
(348,312,cs),
(364,296,o),
(374,272,o),
(374,240,c),
(390,240,l),
(390,339,l),
(389,376,o),
(371,411,o),
(343,436,cs),
(315,461,o),
(274,477,o),
(226,477,cs),
(90,477,o),
(22,360,o),
(22,236,cs),
(22,167,o),
(42,105,o),
(78,62,cs),
(114,19,o),
(165,-7,o),
(226,-7,cs)
);
}
);
width = 582;
},
{
layerId = "F7A2C943-FF27-42DD-BB53-36E69242D1D6";
shapes = (
{
closed = 1;
nodes = (
(239,555,l),
(592,555,l),
(592,633,l),
(239,633,l)
);
},
{
closed = 1;
nodes = (
(428,0,l),
(513,0,l),
(513,331,l),
(513,339,l),
(513,700,l),
(424,700,l),
(424,339,l),
(424,331,l),
(424,134,l),
(428,118,l)
);
},
{
closed = 1;
nodes = (
(340,-9,o),
(423,37,o),
(440,120,c),
(440,232,l),
(424,232,l),
(424,146,o),
(365,73,o),
(275,73,cs),
(232,73,o),
(195,89,o),
(170,118,cs),
(145,146,o),
(129,187,o),
(129,236,cs),
(129,327,o),
(181,397,o),
(277,397,cs),
(324,397,o),
(361,379,o),
(386,351,cs),
(410,323,o),
(424,283,o),
(424,242,c),
(434,242,l),
(434,364,l),
(430,391,o),
(411,420,o),
(382,442,cs),
(352,464,o),
(310,479,o),
(259,479,cs),
(119,479,o),
(36,369,o),
(36,235,cs),
(36,160,o),
(61,99,o),
(102,58,cs),
(143,15,o),
(199,-9,o),
(259,-9,cs)
);
}
);
width = 582;
},
{
layerId = "CEB2CA40-D0FD-4F6E-AD1A-0B625565F02B";
shapes = (
{
closed = 1;
nodes = (
(230,581,l),
(590,581,l),
(590,623,l),
(230,623,l)
);
},
{
closed = 1;
nodes = (
(465,0,l),
(510,0,l),
(510,327,l),
(510,335,l),
(510,700,l),
(463,700,l),
(463,335,l),
(463,327,l),
(463,138,l),
(465,121,l)
);
},
{
closed = 1;
nodes = (
(381,-9,o),
(459,64,o),
(478,162,c),
(472,231,l),
(463,231,l),
(463,125,o),
(389,34,o),
(279,34,cs),
(225,34,o),
(181,54,o),
(150,91,cs),
(120,127,o),
(102,176,o),
(102,237,cs),
(102,349,o),
(164,436,o),
(282,436,cs),
(343,436,o),
(389,412,o),
(418,376,cs),
(448,338,o),
(463,291,o),
(463,243,c),
(466,243,l),
(477,317,l),
(469,359,o),
(448,398,o),
(415,429,cs),
(382,459,o),
(337,479,o),
(281,479,cs),
(144,479,o),
(54,368,o),
(54,234,cs),
(54,156,o),
(82,97,o),
(125,55,cs),
(167,13,o),
(221,-9,o),
(279,-9,cs)
);
}
);
width = 582;
}
);
leftKerningGroup = a2;
rightKerningGroup = d;
unicode = 273;
},
{
glyphname = e;
layers = (
{
layerId = "0CD817DE-E207-40E9-9EE5-B2F928C7D041";
shapes = (
{
closed = 1;
nodes = (
(388,-7,o),
(467,29,o),
(518,88,c),
(431,168,l),
(399,135,o),
(354,117,o),
(303,117,cs),
(264,117,o),
(233,128,o),
(213,149,cs),
(192,170,o),
(180,200,o),
(180,240,cs),
(180,304,o),
(209,350,o),
(277,350,cs),
(308,350,o),
(330,341,o),
(345,327,cs),
(360,313,o),
(367,294,o),
(367,274,cs),
(367,227,l),
(469,281,l),
(114,281,l),
(114,195,l),
(521,195,l),
(521,221,ls),
(521,297,o),
(498,362,o),
(457,407,cs),
(416,451,o),
(356,477,o),
(280,477,cs),
(135,477,o),
(24,377,o),
(24,229,cs),
(24,161,o),
(51,103,o),
(97,61,cs),
(143,19,o),
(208,-7,o),
(288,-7,cs)
);
}
);
width = 545;
},
{
layerId = "F7A2C943-FF27-42DD-BB53-36E69242D1D6";
shapes = (
{
closed = 1;
nodes = (
(364,-9,o),
(441,21,o),
(488,82,c),
(433,133,l),
(402,92,o),
(347,69,o),
(289,69,cs),
(243,69,o),
(200,85,o),
(172,115,c),
(142,143,o),
(125,185,o),
(125,237,cs),
(125,326,o),
(178,401,o),
(273,401,cs),
(317,401,o),
(351,385,o),
(378,359,cs),
(405,333,o),
(420,297,o),
(420,256,cs),
(420,230,l),
(472,284,l),
(93,284,l),
(93,216,l),
(508,216,l),
(508,243,ls),
(508,304,o),
(487,362,o),
(448,406,cs),
(409,450,o),
(353,479,o),
(279,479,cs),
(138,479,o),
(37,375,o),
(37,234,cs),
(37,159,o),
(64,100,o),
(107,58,cs),
(151,16,o),
(212,-9,o),
(283,-9,cs)
);
}
);
width = 545;
},
{
layerId = "CEB2CA40-D0FD-4F6E-AD1A-0B625565F02B";
shapes = (
{
closed = 1;
nodes = (
(361,-9,o),
(431,19,o),
(486,80,c),
(456,110,l),
(416,64,o),
(358,34,o),
(288,34,cs),
(235,34,o),
(186,54,o),
(150,91,c),
(113,127,o),
(90,177,o),
(90,237,cs),
(90,344,o),
(171,436,o),
(281,436,cs),
(338,436,o),
(381,414,o),
(412,380,cs),
(442,347,o),
(455,302,o),
(455,255,cs),
(455,240,l),
(474,271,l),
(83,271,l),
(83,229,l),
(501,229,l),
(501,259,ls),
(501,311,o),
(483,366,o),
(446,407,cs),
(409,450,o),
(354,479,o),
(280,479,cs),
(146,479,o),
(45,373,o),
(45,240,cs),
(45,165,o),
(72,104,o),
(115,61,cs),
(159,16,o),
(219,-9,o),
(286,-9,cs)
);
}
);
width = 545;
}
);
leftKerningGroup = a2;
rightKerningGroup = b;
unicode = 101;
},
{
glyphname = eogonek;
layers = (
{
layerId = "0CD817DE-E207-40E9-9EE5-B2F928C7D041";
shapes = (
{
closed = 1;
nodes = (
(470,-243,o),
(494,-234,o),
(510,-227,c),
(510,-133,l),
(495,-140,o),
(482,-142,o),
(467,-142,cs),
(438,-142,o),
(411,-128,o),
(411,-85,cs),
(411,-64,o),
(419,-42,o),
(436,-15,cs),
(452,12,o),
(479,44,o),
(518,88,c),
(487,88,l),
(431,56,o),
(387,23,o),
(356,-13,c),
(324,-48,o),
(308,-84,o),
(308,-123,cs),
(308,-154,o),
(319,-184,o),
(340,-206,cs),
(360,-228,o),
(393,-243,o),
(437,-243,cs)
);
},
{
closed = 1;
nodes = (
(339,-7,o),
(382,2,o),
(421,19,cs),
(460,35,o),
(493,59,o),
(518,88,c),
(431,168,l),
(399,135,o),
(354,117,o),
(303,117,cs),
(264,117,o),
(233,128,o),
(213,149,cs),
(192,170,o),
(180,200,o),
(180,240,cs),
(180,304,o),
(209,350,o),
(277,350,cs),
(308,350,o),
(330,341,o),
(345,327,cs),
(360,313,o),
(367,294,o),
(367,274,cs),
(367,227,l),
(469,281,l),
(114,281,l),
(114,195,l),
(521,195,l),
(521,221,ls),
(521,297,o),
(498,362,o),
(457,407,cs),
(416,451,o),
(356,477,o),
(280,477,cs),
(135,477,o),
(24,377,o),
(24,229,cs),
(24,161,o),
(51,103,o),
(97,61,cs),
(143,19,o),
(208,-7,o),
(288,-7,cs)
);
}
);
width = 545;
},
{
layerId = "F7A2C943-FF27-42DD-BB53-36E69242D1D6";
shapes = (
{
closed = 1;
nodes = (
(437,-243,o),
(456,-240,o),
(476,-230,c),
(476,-183,l),
(462,-187,o),
(449,-189,o),
(438,-189,cs),
(396,-189,o),
(372,-160,o),
(372,-113,cs),
(372,-82,o),
(384,-50,o),
(403,-18,cs),
(422,13,o),
(448,45,o),
(477,78,c),
(441,76,l),
(398,45,o),
(366,11,o),
(342,-27,cs),
(319,-63,o),
(307,-99,o),
(307,-135,cs),
(307,-164,o),
(316,-192,o),
(334,-211,c),
(351,-231,o),
(378,-243,o),
(416,-243,cs)
);
},
{
closed = 1;
nodes = (
(321,-8,o),
(359,-1,o),
(393,14,cs),
(426,28,o),
(455,50,o),
(477,78,c),
(424,126,l),
(395,88,o),
(344,66,o),
(288,66,cs),
(244,66,o),
(205,81,o),
(178,109,c),
(150,136,o),
(134,175,o),
(134,225,cs),
(134,308,o),
(184,378,o),
(273,378,cs),
(314,378,o),
(347,363,o),
(372,339,cs),
(398,315,o),
(412,280,o),
(412,242,cs),
(412,217,l),
(461,269,l),
(104,269,l),
(104,204,l),
(495,204,l),
(495,230,ls),
(495,288,o),
(476,342,o),
(439,384,cs),
(402,425,o),
(348,452,o),
(279,452,cs),
(145,452,o),
(50,355,o),
(50,221,cs),
(50,151,o),
(75,94,o),
(117,55,cs),
(158,15,o),
(216,-8,o),
(283,-8,cs)
);
}
);
width = 545;
},
{
layerId = "CEB2CA40-D0FD-4F6E-AD1A-0B625565F02B";
shapes = (
{
closed = 1;
nodes = (
(417,-241,o),
(436,-238,o),
(454,-229,c),
(454,-195,l),
(436,-202,o),
(422,-206,o),
(405,-206,cs),
(367,-206,o),
(353,-180,o),
(353,-140,cs),
(353,-113,o),
(359,-84,o),
(375,-50,cs),
(391,-16,o),
(417,24,o),
(455,72,c),
(432,83,l),
(393,34,o),
(363,-8,o),
(344,-45,cs),
(325,-82,o),
(316,-117,o),
(316,-151,cs),
(316,-176,o),
(322,-199,o),
(335,-215,cs),
(348,-231,o),
(369,-241,o),
(400,-241,cs)
);
},
{
closed = 1;
nodes = (
(314,-8,o),
(347,-2,o),
(377,11,cs),
(407,23,o),
(435,44,o),
(455,72,c),
(425,99,l),
(398,57,o),
(342,31,o),
(286,31,cs),
(240,31,o),
(195,49,o),
(161,83,cs),
(127,116,o),
(105,162,o),
(105,217,cs),
(105,313,o),
(175,399,o),
(274,399,cs),
(319,399,o),
(361,379,o),
(391,349,cs),
(421,319,o),
(440,277,o),
(440,234,cs),
(440,220,l),
(457,249,l),
(98,249,l),
(98,210,l),
(482,210,l),
(482,237,ls),
(482,285,o),
(461,335,o),
(423,374,cs),
(386,412,o),
(333,439,o),
(273,439,cs),
(151,439,o),
(63,340,o),
(63,220,cs),
(63,152,o),
(90,95,o),
(131,55,cs),
(171,15,o),
(226,-8,o),
(285,-8,cs)
);
}
);
width = 545;
}
);
leftKerningGroup = a2;
rightKerningGroup = b;
unicode = 281;
},
{
glyphname = eturned;
layers = (
{
layerId = "0CD817DE-E207-40E9-9EE5-B2F928C7D041";
shapes = (
{
closed = 1;
nodes = (
(402,-7,o),
(504,98,o),
(504,247,cs),
(504,316,o),
(482,374,o),
(439,414,cs),
(396,454,o),
(335,477,o),
(256,477,cs),
(159,477,o),
(91,442,o),
(48,402,c),
(121,291,l),
(148,324,o),
(184,340,o),
(235,340,cs),
(272,340,o),
(300,332,o),
(318,314,cs),
(336,296,o),
(344,268,o),
(344,232,cs),
(344,172,o),
(321,125,o),
(255,125,cs),
(226,125,o),
(207,134,o),
(195,150,cs),
(183,165,o),
(178,186,o),
(178,210,c),
(71,193,l),
(415,193,l),
(415,278,l),
(9,278,l),
(9,243,ls),
(9,171,o),
(33,108,o),
(75,64,cs),
(117,20,o),
(177,-7,o),
(252,-7,cs)
);
}
);
width = 521;
},
{
layerId = "F7A2C943-FF27-42DD-BB53-36E69242D1D6";
shapes = (
{
closed = 1;
nodes = (
(398,-9,o),
(484,93,o),
(484,238,cs),
(484,314,o),
(461,374,o),
(419,415,cs),
(376,457,o),
(315,479,o),
(238,479,cs),
(159,479,o),
(102,456,o),
(51,411,c),
(89,341,l),
(129,378,o),
(181,399,o),
(240,399,cs),
(288,399,o),
(327,385,o),
(354,357,cs),
(381,329,o),
(395,289,o),
(395,235,cs),
(395,145,o),
(348,70,o),
(250,70,cs),
(208,70,o),
(174,84,o),
(150,110,cs),
(127,133,o),
(115,170,o),
(115,213,c),
(85,202,l),
(428,202,l),
(428,270,l),
(24,270,l),
(24,228,ls),
(24,156,o),
(45,97,o),
(84,55,cs),
(122,15,o),
(178,-9,o),
(248,-9,cs)
);
}
);
width = 521;
},
{
layerId = "CEB2CA40-D0FD-4F6E-AD1A-0B625565F02B";
shapes = (
{
closed = 1;
nodes = (
(398,-9,o),
(480,94,o),
(480,233,cs),
(480,312,o),
(457,374,o),
(417,416,cs),
(377,458,o),
(320,479,o),
(251,479,cs),
(189,479,o),
(128,459,o),
(73,405,c),
(99,370,l),
(143,408,o),
(190,436,o),
(252,436,cs),
(305,436,o),
(350,417,o),
(383,383,cs),
(415,350,o),
(435,300,o),
(435,237,cs),
(435,129,o),
(370,34,o),
(255,34,cs),
(205,34,o),
(163,52,o),
(132,86,cs),
(102,120,o),
(85,169,o),
(85,233,c),
(67,208,l),
(449,208,l),
(449,250,l),
(41,250,l),
(41,230,ls),
(41,156,o),
(60,97,o),
(96,55,cs),
(132,14,o),
(185,-9,o),
(252,-9,cs)
);
}
);
width = 521;
}
);
leftKerningGroup = a2;
rightKerningGroup = b;
unicode = 477;
},
{
glyphname = f;
layers = (
{
layerId = "0CD817DE-E207-40E9-9EE5-B2F928C7D041";
shapes = (
{
closed = 1;
nodes = (
(66,0,l),
(231,0,l),
(231,498,ls),
(231,523,o),
(238,538,o),
(251,547,cs),
(263,555,o),
(282,557,o),
(303,557,cs),
(315,557,o),
(335,556,o),
(347,555,c),
(347,699,l),
(327,703,o),
(300,706,o),
(275,706,cs),
(207,706,o),
(155,692,o),
(120,663,cs),
(84,634,o),
(66,587,o),
(66,523,cs)
);
},
{
closed = 1;
nodes = (
(-4,327,l),
(345,327,l),
(345,470,l),
(-4,470,l)
);
}
);
width = 341;
},
{
layerId = "F7A2C943-FF27-42DD-BB53-36E69242D1D6";
shapes = (
{
closed = 1;
nodes = (
(112,0,l),
(198,0,l),
(198,529,ls),
(198,566,o),
(207,590,o),
(223,605,cs),
(239,620,o),
(263,624,o),
(291,624,cs),
(299,624,o),
(305,624,o),
(313,623,c),
(313,702,l),
(305,703,o),
(295,705,o),
(276,705,cs),
(227,705,o),
(186,693,o),
(158,666,cs),
(129,638,o),
(112,596,o),
(112,537,cs)
);
},
{
closed = 1;
nodes = (
(38,394,l),
(307,394,l),
(307,470,l),
(38,470,l)
);
}
);
width = 341;
},
{
layerId = "CEB2CA40-D0FD-4F6E-AD1A-0B625565F02B";
shapes = (
{
closed = 1;
nodes = (
(131,0,l),
(174,0,l),
(174,545,ls),
(174,590,o),
(185,620,o),
(203,638,cs),
(221,656,o),
(247,661,o),
(278,661,cs),
(283,661,o),
(283,661,o),
(288,662,c),
(288,705,l),
(284,705,o),
(281,705,o),
(270,705,cs),
(233,705,o),
(197,693,o),
(173,667,cs),
(148,641,o),
(131,600,o),
(131,544,cs)
);
},
{
closed = 1;
nodes = (
(56,429,l),
(281,429,l),
(281,470,l),
(56,470,l)
);
}
);
width = 341;
}
);
leftKerningGroup = f2;
rightKerningGroup = f;
unicode = 102;
},
{
glyphname = g;
layers = (
{
layerId = "0CD817DE-E207-40E9-9EE5-B2F928C7D041";
shapes = (
{
closed = 1;
nodes = (
(431,-250,o),
(537,-161,o),
(539,0,c),
(539,470,l),
(383,470,l),
(383,346,l),
(374,339,l),
(374,13,ls),
(374,-64,o),
(345,-110,o),
(263,-110,cs),
(234,-110,o),
(211,-104,o),
(191,-93,cs),
(170,-82,o),
(150,-67,o),
(129,-47,c),
(49,-156,l),
(72,-187,o),
(105,-210,o),
(145,-226,cs),
(184,-242,o),
(229,-250,o),
(274,-250,cs)
);
},
{
closed = 1;
nodes = (
(313,-7,o),
(379,43,o),
(395,129,c),
(395,234,l),
(374,234,l),
(374,181,o),
(348,131,o),
(289,131,cs),
(265,131,o),
(242,141,o),
(226,158,cs),
(209,175,o),
(198,202,o),
(198,235,cs),
(198,289,o),
(230,336,o),
(288,336,cs),
(311,336,o),
(332,328,o),
(348,312,cs),
(364,296,o),
(374,272,o),
(374,240,c),
(390,240,l),
(390,339,l),
(389,376,o),
(371,411,o),
(343,436,cs),
(315,461,o),
(274,477,o),
(226,477,cs),
(90,477,o),
(22,360,o),
(22,236,cs),
(22,167,o),
(42,105,o),
(78,62,cs),
(114,19,o),
(165,-7,o),
(226,-7,cs)
);
}
);
width = 582;
},
{
layerId = "F7A2C943-FF27-42DD-BB53-36E69242D1D6";
shapes = (
{
closed = 1;
nodes = (
(413,-242,o),
(513,-166,o),
(513,-15,cs),
(513,470,l),
(428,470,l),
(428,339,l),
(424,331,l),
(424,4,ls),
(424,-100,o),
(379,-160,o),
(267,-160,cs),
(232,-160,o),
(204,-151,o),
(181,-139,c),
(155,-127,o),
(135,-109,o),
(118,-87,c),
(64,-152,l),
(88,-182,o),
(118,-204,o),
(152,-219,cs),
(186,-234,o),
(225,-242,o),
(265,-242,cs)
);
},
{
closed = 1;
nodes = (
(340,-9,o),
(423,37,o),
(440,120,c),
(440,232,l),
(424,232,l),
(424,146,o),
(365,73,o),
(275,73,cs),
(232,73,o),
(195,89,o),
(170,118,cs),
(145,146,o),
(129,187,o),
(129,236,cs),
(129,327,o),
(182,397,o),
(277,397,cs),
(324,397,o),
(361,379,o),
(386,351,cs),
(410,323,o),
(424,283,o),
(424,242,c),
(435,242,l),
(435,364,l),
(430,391,o),
(411,420,o),
(382,442,cs),
(352,464,o),
(311,479,o),
(259,479,cs),
(119,479,o),
(36,369,o),
(36,235,cs),
(36,160,o),
(62,99,o),
(102,58,cs),
(143,15,o),
(200,-9,o),
(259,-9,cs)
);
}
);
width = 582;
},
{
layerId = "CEB2CA40-D0FD-4F6E-AD1A-0B625565F02B";
shapes = (
{
closed = 1;
nodes = (
(425,-241,o),
(510,-148,o),
(510,-26,cs),
(510,470,l),
(465,470,l),
(465,335,l),
(463,327,l),
(463,-2,ls),
(463,-99,o),
(414,-198,o),
(287,-198,cs),
(250,-198,o),
(217,-188,o),
(191,-173,cs),
(164,-158,o),
(142,-135,o),
(126,-113,c),
(93,-142,l),
(117,-172,o),
(144,-197,o),
(174,-215,c),
(206,-232,o),
(242,-241,o),
(282,-241,cs)
);
},
{
closed = 1;
nodes = (
(381,-9,o),
(459,64,o),
(478,162,c),
(472,231,l),
(463,231,l),
(463,125,o),
(389,34,o),
(279,34,cs),
(225,34,o),
(181,54,o),
(150,91,cs),
(120,127,o),
(102,176,o),
(102,237,cs),
(102,349,o),
(164,436,o),
(282,436,cs),
(343,436,o),
(389,412,o),
(418,376,cs),
(448,338,o),
(463,291,o),
(463,243,c),
(466,243,l),
(478,317,l),
(469,359,o),
(448,398,o),
(415,429,cs),
(382,459,o),
(338,479,o),
(281,479,cs),
(144,479,o),
(54,368,o),
(54,234,cs),
(54,156,o),
(82,97,o),
(125,55,cs),
(167,13,o),
(221,-9,o),
(279,-9,cs)
);
}
);
width = 582;
}
);
leftKerningGroup = a2;
rightKerningGroup = a;
unicode = 103;
},
{
glyphname = h;
layers = (
{
layerId = "0CD817DE-E207-40E9-9EE5-B2F928C7D041";
shapes = (
{
closed = 1;
nodes = (
(33,0,l),
(198,0,l),
(198,339,l),
(198,346,l),
(198,700,l),
(33,700,l),
(33,346,l),
(33,339,l),
(33,126,l),
(33,111,l)
);
},
{
closed = 1;
nodes = (
(351,0,l),
(516,0,l),
(516,270,l),
(516,281,ls),
(516,348,o),
(499,397,o),
(470,429,cs),
(441,461,o),
(397,477,o),
(344,477,cs),
(256,477,o),
(190,427,o),
(171,341,c),
(171,232,l),
(198,232,l),
(198,280,o),
(222,336,o),
(278,336,cs),
(298,336,o),
(317,329,o),
(330,313,cs),
(342,297,o),
(351,272,o),
(351,236,cs)
);
}
);
width = 544;
},
{
layerId = "F7A2C943-FF27-42DD-BB53-36E69242D1D6";
shapes = (
{
closed = 1;
nodes = (
(68,0,l),
(158,0,l),
(158,331,l),
(158,339,l),
(158,700,l),
(68,700,l),
(68,339,l),
(68,331,l),
(68,134,l),
(68,118,l)
);
},
{
closed = 1;
nodes = (
(395,0,l),
(484,0,l),
(484,279,l),
(484,290,ls),
(484,349,o),
(466,395,o),
(435,427,cs),
(404,459,o),
(360,476,o),
(310,476,cs),
(234,476,o),
(147,427,o),
(136,346,c),
(136,240,l),
(158,240,l),
(158,317,o),
(200,393,o),
(285,393,cs),
(314,393,o),
(342,383,o),
(363,364,c),
(382,342,o),
(395,312,o),
(395,268,cs)
);
}
);
width = 544;
},
{
layerId = "CEB2CA40-D0FD-4F6E-AD1A-0B625565F02B";
shapes = (
{
closed = 1;
nodes = (
(86,0,l),
(132,0,l),
(132,327,l),
(132,335,l),
(132,700,l),
(86,700,l),
(86,335,l),
(86,327,l),
(86,138,l),
(86,121,l)
);
},
{
closed = 1;
nodes = (
(417,0,l),
(463,0,l),
(463,265,l),
(463,272,ls),
(463,339,o),
(443,389,o),
(411,425,cs),
(380,459,o),
(337,477,o),
(290,477,cs),
(206,477,o),
(122,412,o),
(112,326,c),
(112,253,l),
(132,253,l),
(132,344,o),
(183,433,o),
(283,433,cs),
(321,433,o),
(353,421,o),
(378,394,cs),
(403,366,o),
(417,325,o),
(417,266,cs)
);
}
);
width = 544;
}
);
leftKerningGroup = b2;
rightKerningGroup = h;
unicode = 104;
},
{
glyphname = hbar;
layers = (
{
layerId = "0CD817DE-E207-40E9-9EE5-B2F928C7D041";
shapes = (
{
closed = 1;
nodes = (
(343,643,l),
(-37,643,l),
(-37,513,l),
(343,513,l)
);
},
{
closed = 1;
nodes = (
(33,0,l),
(198,0,l),
(198,339,l),
(198,346,l),
(198,700,l),
(33,700,l),
(33,346,l),
(33,339,l),
(33,126,l),
(33,111,l)
);
},
{
closed = 1;
nodes = (
(351,0,l),
(516,0,l),
(516,270,l),
(516,281,ls),
(516,348,o),
(499,397,o),
(470,429,cs),
(441,461,o),
(397,477,o),
(344,477,cs),
(256,477,o),
(190,427,o),
(171,341,c),
(171,232,l),
(198,232,l),
(198,280,o),
(222,336,o),
(278,336,cs),
(298,336,o),
(317,329,o),
(330,313,cs),
(342,297,o),
(351,272,o),
(351,236,cs)
);
}
);
width = 544;
},
{
layerId = "F7A2C943-FF27-42DD-BB53-36E69242D1D6";
shapes = (
{
closed = 1;
nodes = (
(343,633,l),
(-10,633,l),
(-10,555,l),
(343,555,l)
);
},
{
closed = 1;
nodes = (
(68,0,l),
(158,0,l),
(158,331,l),
(158,339,l),
(158,700,l),
(68,700,l),
(68,339,l),
(68,331,l),
(68,134,l),
(68,118,l)
);
},
{
closed = 1;
nodes = (
(395,0,l),
(485,0,l),
(485,279,l),
(485,290,ls),
(485,349,o),
(466,395,o),
(435,427,cs),
(404,459,o),
(360,476,o),
(310,476,cs),
(234,476,o),
(147,427,o),
(136,346,c),
(136,240,l),
(158,240,l),
(158,317,o),
(200,393,o),
(285,393,cs),
(315,393,o),
(342,383,o),
(363,364,c),
(383,342,o),
(395,312,o),
(395,268,cs)
);
}
);
width = 544;
},
{
layerId = "CEB2CA40-D0FD-4F6E-AD1A-0B625565F02B";
shapes = (
{
closed = 1;
nodes = (
(347,625,l),
(32,625,l),
(32,581,l),
(347,581,l)
);
},
{
closed = 1;
nodes = (
(86,0,l),
(132,0,l),
(132,327,l),
(132,335,l),
(132,700,l),
(86,700,l),
(86,335,l),
(86,327,l),
(86,138,l),
(86,121,l)
);
},
{
closed = 1;
nodes = (
(417,0,l),
(463,0,l),
(463,265,l),
(463,272,ls),
(463,339,o),
(443,389,o),
(411,425,cs),
(380,459,o),
(337,477,o),
(290,477,cs),
(206,477,o),
(122,412,o),
(112,326,c),
(112,253,l),
(132,253,l),
(132,344,o),
(183,433,o),
(283,433,cs),
(321,433,o),
(353,421,o),
(378,394,cs),
(403,366,o),
(417,325,o),
(417,266,cs)
);
}
);
width = 544;
}
);
leftKerningGroup = b2;
rightKerningGroup = h;
unicode = 295;
},
{
glyphname = dotlessi;
layers = (
{
layerId = "0CD817DE-E207-40E9-9EE5-B2F928C7D041";
shapes = (
{
closed = 1;
nodes = (
(40,0,l),
(205,0,l),
(205,470,l),
(40,470,l)
);
}
);
width = 246;
},
{
layerId = "F7A2C943-FF27-42DD-BB53-36E69242D1D6";
shapes = (
{
closed = 1;
nodes = (
(80,0,l),
(166,0,l),
(166,470,l),
(80,470,l)
);
}
);
width = 246;
},
{
layerId = "CEB2CA40-D0FD-4F6E-AD1A-0B625565F02B";
shapes = (
{
closed = 1;
nodes = (
(101,0,l),
(145,0,l),
(145,470,l),
(101,470,l)
);
}
);
width = 246;
}
);
leftKerningGroup = m;
rightKerningGroup = a;
unicode = 305;
},
{
glyphname = dotlessj;
layers = (
{
layerId = "0CD817DE-E207-40E9-9EE5-B2F928C7D041";
shapes = (
{
closed = 1;
nodes = (
(146,-271,o),
(205,-206,o),
(205,-86,cs),
(205,470,l),
(40,470,l),
(40,-42,ls),
(40,-74,o),
(35,-94,o),
(27,-106,cs),
(19,-118,o),
(7,-122,o),
(-9,-122,cs),
(-16,-122,o),
(-25,-122,o),
(-36,-119,c),
(-36,-268,l),
(-25,-271,o),
(-18,-271,o),
(1,-271,cs)
);
}
);
width = 246;
},
{
layerId = "F7A2C943-FF27-42DD-BB53-36E69242D1D6";
shapes = (
{
closed = 1;
nodes = (
(122,-250,o),
(166,-190,o),
(166,-79,cs),
(166,470,l),
(80,470,l),
(80,-81,ls),
(80,-116,o),
(74,-139,o),
(62,-153,cs),
(49,-167,o),
(30,-173,o),
(9,-173,cs),
(2,-173,o),
(-3,-172,o),
(-10,-171,c),
(-10,-248,l),
(-5,-249,o),
(1,-250,o),
(9,-250,cs)
);
}
);
width = 246;
},
{
layerId = "CEB2CA40-D0FD-4F6E-AD1A-0B625565F02B";
shapes = (
{
closed = 1;
nodes = (
(108,-240,o),
(144,-188,o),
(144,-89,cs),
(144,470,l),
(101,470,l),
(101,-76,ls),
(101,-115,o),
(97,-148,o),
(84,-169,cs),
(71,-190,o),
(48,-202,o),
(15,-202,cs),
(8,-202,o),
(8,-202,o),
(3,-202,c),
(3,-240,l),
(7,-240,o),
(16,-240,o),
(19,-240,cs)
);
}
);
width = 246;
}
);
leftKerningGroup = m;
rightKerningGroup = a;
unicode = 567;
},
{
glyphname = k;
layers = (
{
layerId = "0CD817DE-E207-40E9-9EE5-B2F928C7D041";
shapes = (
{
closed = 1;
nodes = (
(311,0,l),
(491,0,l),
(491,22,l),
(338,286,l),
(340,209,l),
(450,448,l),
(450,470,l),
(276,470,l),
(187,235,l)
);
},
{
closed = 1;
nodes = (
(98,187,l),
(264,187,l),
(264,288,l),
(98,288,l)
);
},
{
closed = 1;
nodes = (
(25,0,l),
(190,0,l),
(190,339,l),
(190,346,l),
(190,700,l),
(25,700,l),
(25,346,l),
(25,339,l),
(25,126,l),
(25,111,l)
);
}
);
width = 464;
},
{
layerId = "F7A2C943-FF27-42DD-BB53-36E69242D1D6";
shapes = (
{
closed = 1;
nodes = (
(364,0,l),
(466,0,l),
(466,13,l),
(237,289,l),
(237,217,l),
(423,457,l),
(423,470,l),
(328,470,l),
(164,244,l)
);
},
{
closed = 1;
nodes = (
(126,214,l),
(228,214,l),
(228,285,l),
(126,285,l)
);
},
{
closed = 1;
nodes = (
(70,0,l),
(159,0,l),
(159,331,l),
(159,339,l),
(159,700,l),
(70,700,l),
(70,339,l),
(70,331,l),
(70,134,l),
(70,118,l)
);
}
);
width = 464;
},
{
layerId = "CEB2CA40-D0FD-4F6E-AD1A-0B625565F02B";
shapes = (
{
closed = 1;
nodes = (
(383,0,l),
(439,0,l),
(439,7,l),
(179,273,l),
(180,235,l),
(397,463,l),
(397,470,l),
(346,470,l),
(140,249,l)
);
},
{
closed = 1;
nodes = (
(114,228,l),
(191,228,l),
(191,270,l),
(114,270,l)
);
},
{
closed = 1;
nodes = (
(83,0,l),
(130,0,l),
(130,327,l),
(130,335,l),
(130,700,l),
(83,700,l),
(83,335,l),
(83,327,l),
(83,138,l),
(83,121,l)
);
}
);
width = 464;
}
);
leftKerningGroup = b2;
rightKerningGroup = k;
unicode = 107;
},
{
glyphname = l;
layers = (
{
layerId = "0CD817DE-E207-40E9-9EE5-B2F928C7D041";
shapes = (
{
closed = 1;
nodes = (
(40,0,l),
(205,0,l),
(205,339,l),
(205,346,l),
(205,700,l),
(40,700,l),
(40,346,l),
(40,339,l),
(40,126,l),
(40,111,l)
);
}
);
width = 246;
},
{
layerId = "F7A2C943-FF27-42DD-BB53-36E69242D1D6";
shapes = (
{
closed = 1;
nodes = (
(80,0,l),
(166,0,l),
(166,313,l),
(166,320,l),
(166,700,l),
(80,700,l),
(80,320,l),
(80,313,l),
(80,126,l),
(80,111,l)
);
}
);
width = 246;
},
{
layerId = "CEB2CA40-D0FD-4F6E-AD1A-0B625565F02B";
shapes = (
{
closed = 1;
nodes = (
(101,0,l),
(144,0,l),
(144,300,l),
(144,307,l),
(144,700,l),
(101,700,l),
(101,307,l),
(101,300,l),
(101,126,l),
(101,111,l)
);
}
);
width = 246;
}
);
leftKerningGroup = b2;
rightKerningGroup = d;
unicode = 108;
},
{
glyphname = lslash;
layers = (
{
layerId = "0CD817DE-E207-40E9-9EE5-B2F928C7D041";
shapes = (
{
closed = 1;
nodes = (
(7,167,l),
(281,409,l),
(281,558,l),
(7,316,l)
);
},
{
closed = 1;
nodes = (
(59,0,l),
(224,0,l),
(224,339,l),
(224,346,l),
(224,700,l),
(59,700,l),
(59,346,l),
(59,339,l),
(59,126,l),
(59,111,l)
);
}
);
width = 288;
},
{
layerId = "F7A2C943-FF27-42DD-BB53-36E69242D1D6";
shapes = (
{
closed = 1;
nodes = (
(26,212,l),
(260,417,l),
(260,502,l),
(26,299,l)
);
},
{
closed = 1;
nodes = (
(98,0,l),
(183,0,l),
(183,313,l),
(183,320,l),
(183,700,l),
(98,700,l),
(98,320,l),
(98,313,l),
(98,126,l),
(98,111,l)
);
}
);
width = 288;
},
{
layerId = "CEB2CA40-D0FD-4F6E-AD1A-0B625565F02B";
shapes = (
{
closed = 1;
nodes = (
(33,237,l),
(245,421,l),
(245,468,l),
(33,285,l)
);
},
{
closed = 1;
nodes = (
(115,0,l),
(157,0,l),
(157,300,l),
(157,307,l),
(157,700,l),
(115,700,l),
(115,307,l),
(115,300,l),
(115,126,l),
(115,111,l)
);
}
);
width = 288;
}
);
leftKerningGroup = b2;
rightKerningGroup = d;
unicode = 322;
},
{
glyphname = m;
layers = (
{
layerId = "0CD817DE-E207-40E9-9EE5-B2F928C7D041";
shapes = (
{
closed = 1;
nodes = (
(22,0,l),
(187,0,l),
(187,339,l),
(178,346,l),
(178,470,l),
(22,470,l),
(22,346,l),
(22,339,l),
(22,126,l),
(22,111,l)
);
},
{
closed = 1;
nodes = (
(316,0,l),
(481,0,l),
(481,295,l),
(481,311,ls),
(481,356,o),
(468,399,o),
(442,429,cs),
(416,459,o),
(378,477,o),
(330,477,cs),
(215,477,o),
(156,376,o),
(156,271,cs),
(156,218,l),
(187,218,l),
(187,267,o),
(185,336,o),
(251,336,cs),
(298,336,o),
(316,308,o),
(316,249,cs)
);
},
{
closed = 1;
nodes = (
(610,0,l),
(775,0,l),
(775,308,l),
(775,321,ls),
(775,366,o),
(761,405,o),
(736,433,cs),
(711,461,o),
(673,477,o),
(628,477,cs),
(511,477,o),
(450,379,o),
(450,271,cs),
(450,218,l),
(481,218,l),
(481,265,o),
(482,336,o),
(545,336,cs),
(568,336,o),
(583,329,o),
(594,315,cs),
(605,301,o),
(610,278,o),
(610,249,cs)
);
}
);
width = 791;
},
{
layerId = "F7A2C943-FF27-42DD-BB53-36E69242D1D6";
shapes = (
{
closed = 1;
nodes = (
(60,0,l),
(149,0,l),
(149,331,l),
(145,339,l),
(145,470,l),
(60,470,l),
(60,339,l),
(60,331,l),
(60,134,l),
(60,118,l)
);
},
{
closed = 1;
nodes = (
(355,0,l),
(445,0,l),
(445,298,l),
(436,330,l),
(432,374,o),
(414,411,o),
(386,437,cs),
(359,462,o),
(323,476,o),
(284,476,cs),
(206,476,o),
(135,413,o),
(126,335,c),
(126,238,l),
(149,238,l),
(149,309,o),
(182,393,o),
(265,393,cs),
(318,393,o),
(355,357,o),
(355,276,cs)
);
},
{
closed = 1;
nodes = (
(651,0,l),
(741,0,l),
(741,288,l),
(741,301,ls),
(741,356,o),
(720,399,o),
(688,430,c),
(655,459,o),
(613,476,o),
(567,476,cs),
(484,476,o),
(415,417,o),
(400,336,c),
(400,245,l),
(445,245,l),
(445,310,o),
(470,393,o),
(550,393,cs),
(577,393,o),
(601,384,o),
(621,364,c),
(639,343,o),
(651,311,o),
(651,267,cs)
);
}
);
width = 791;
},
{
layerId = "CEB2CA40-D0FD-4F6E-AD1A-0B625565F02B";
shapes = (
{
closed = 1;
nodes = (
(77,0,l),
(122,0,l),
(122,327,l),
(120,335,l),
(120,470,l),
(77,470,l),
(77,335,l),
(77,327,l),
(77,138,l),
(77,121,l)
);
},
{
closed = 1;
nodes = (
(374,0,l),
(420,0,l),
(420,286,l),
(416,296,l),
(415,350,o),
(401,396,o),
(375,427,cs),
(349,458,o),
(313,477,o),
(271,477,cs),
(179,477,o),
(102,384,o),
(93,296,c),
(102,253,l),
(122,253,l),
(122,337,o),
(171,433,o),
(266,433,cs),
(328,433,o),
(374,383,o),
(374,287,cs)
);
},
{
closed = 1;
nodes = (
(673,0,l),
(719,0,l),
(719,264,l),
(719,273,ls),
(719,338,o),
(702,389,o),
(676,425,c),
(650,458,o),
(612,477,o),
(569,477,cs),
(476,477,o),
(400,384,o),
(391,296,c),
(401,253,l),
(420,253,l),
(420,337,o),
(470,433,o),
(565,433,cs),
(594,433,o),
(621,424,o),
(641,398,cs),
(660,372,o),
(673,329,o),
(673,266,cs)
);
}
);
width = 791;
}
);
leftKerningGroup = m;
rightKerningGroup = h;
unicode = 109;
},
{
glyphname = n;
layers = (
{
layerId = "0CD817DE-E207-40E9-9EE5-B2F928C7D041";
shapes = (
{
closed = 1;
nodes = (
(33,0,l),
(198,0,l),
(198,339,l),
(189,346,l),
(189,470,l),
(33,470,l),
(33,346,l),
(33,339,l),
(33,126,l),
(33,111,l)
);
},
{
closed = 1;
nodes = (
(351,0,l),
(516,0,l),
(516,270,l),
(516,281,ls),
(516,348,o),
(499,397,o),
(470,429,cs),
(441,461,o),
(397,477,o),
(344,477,cs),
(256,477,o),
(190,427,o),
(171,341,c),
(171,232,l),
(198,232,l),
(198,280,o),
(222,336,o),
(278,336,cs),
(298,336,o),
(317,329,o),
(330,313,cs),
(342,297,o),
(351,272,o),
(351,236,cs)
);
}
);
width = 544;
},
{
layerId = "F7A2C943-FF27-42DD-BB53-36E69242D1D6";
shapes = (
{
closed = 1;
nodes = (
(68,0,l),
(158,0,l),
(158,331,l),
(153,339,l),
(153,470,l),
(68,470,l),
(68,339,l),
(68,331,l),
(68,134,l),
(68,118,l)
);
},
{
closed = 1;
nodes = (
(395,0,l),
(484,0,l),
(484,279,l),
(484,290,ls),
(484,349,o),
(466,395,o),
(435,427,cs),
(404,459,o),
(360,476,o),
(310,476,cs),
(234,476,o),
(147,427,o),
(136,346,c),
(136,240,l),
(158,240,l),
(158,317,o),
(200,393,o),
(285,393,cs),
(314,393,o),
(342,383,o),
(363,364,c),
(382,342,o),
(395,312,o),
(395,268,cs)
);
}
);
width = 544;
},
{
layerId = "CEB2CA40-D0FD-4F6E-AD1A-0B625565F02B";
shapes = (
{
closed = 1;
nodes = (
(86,0,l),
(132,0,l),
(132,327,l),
(129,335,l),
(129,470,l),
(86,470,l),
(86,335,l),
(86,327,l),
(86,138,l),
(86,121,l)
);
},
{
closed = 1;
nodes = (
(417,0,l),
(463,0,l),
(463,265,l),
(463,272,ls),
(463,339,o),
(445,389,o),
(415,425,cs),
(385,459,o),
(343,477,o),
(295,477,cs),
(212,477,o),
(122,406,o),
(112,323,c),
(112,253,l),
(132,253,l),
(132,345,o),
(187,433,o),
(287,433,cs),
(327,433,o),
(359,421,o),
(382,394,c),
(404,366,o),
(417,325,o),
(417,266,cs)
);
}
);
width = 544;
}
);
leftKerningGroup = m;
rightKerningGroup = h;
unicode = 110;
},
{
glyphname = eng;
layers = (
{
layerId = "0CD817DE-E207-40E9-9EE5-B2F928C7D041";
shapes = (
{
closed = 1;
nodes = (
(385,-271,o),
(437,-255,o),
(469,-224,c),
(500,-192,o),
(516,-146,o),
(516,-86,cs),
(516,281,ls),
(516,348,o),
(499,397,o),
(470,429,cs),
(441,461,o),
(397,477,o),
(344,477,cs),
(305,477,o),
(274,468,o),
(248,453,cs),
(222,437,o),
(202,415,o),
(189,390,c),
(189,470,l),
(33,470,l),
(33,0,l),
(198,0,l),
(198,232,ls),
(198,260,o),
(205,285,o),
(219,305,cs),
(233,324,o),
(253,336,o),
(278,336,cs),
(298,336,o),
(317,329,o),
(330,313,cs),
(342,297,o),
(351,272,o),
(351,236,cs),
(351,-42,ls),
(351,-105,o),
(333,-122,o),
(302,-122,cs),
(295,-122,o),
(286,-122,o),
(275,-119,c),
(275,-268,l),
(286,-271,o),
(293,-271,o),
(312,-271,cs)
);
}
);
width = 544;
},
{
layerId = "F7A2C943-FF27-42DD-BB53-36E69242D1D6";
shapes = (
{
closed = 1;
nodes = (
(378,-245,o),
(421,-230,o),
(446,-199,cs),
(471,-168,o),
(484,-130,o),
(484,-83,cs),
(484,290,ls),
(484,349,o),
(466,395,o),
(435,427,cs),
(403,459,o),
(359,476,o),
(310,476,cs),
(273,476,o),
(241,468,o),
(214,453,cs),
(187,437,o),
(166,417,o),
(153,393,c),
(153,470,l),
(68,470,l),
(68,0,l),
(158,0,l),
(158,240,ls),
(158,284,o),
(170,321,o),
(192,349,cs),
(214,376,o),
(245,393,o),
(284,393,cs),
(315,393,o),
(342,383,o),
(363,363,cs),
(383,343,o),
(395,313,o),
(395,268,cs),
(395,-87,ls),
(395,-132,o),
(366,-164,o),
(319,-164,cs),
(311,-164,o),
(306,-164,o),
(298,-163,c),
(298,-244,l),
(306,-245,o),
(311,-245,o),
(319,-245,cs)
);
}
);
width = 544;
},
{
layerId = "CEB2CA40-D0FD-4F6E-AD1A-0B625565F02B";
shapes = (
{
closed = 1;
nodes = (
(372,-241,o),
(409,-226,o),
(431,-196,c),
(452,-165,o),
(463,-127,o),
(463,-82,cs),
(463,272,ls),
(463,339,o),
(444,389,o),
(412,424,cs),
(379,459,o),
(337,477,o),
(290,477,cs),
(254,477,o),
(220,465,o),
(194,448,cs),
(168,431,o),
(145,407,o),
(130,380,c),
(130,470,l),
(86,470,l),
(86,0,l),
(132,0,l),
(132,253,ls),
(132,305,o),
(148,350,o),
(174,382,cs),
(200,414,o),
(238,433,o),
(283,433,cs),
(320,433,o),
(354,421,o),
(378,394,cs),
(402,367,o),
(417,325,o),
(417,266,cs),
(417,-112,ls),
(417,-163,o),
(381,-200,o),
(326,-200,cs),
(319,-200,o),
(314,-200,o),
(309,-199,c),
(309,-240,l),
(313,-241,o),
(319,-241,o),
(319,-241,c)
);
}
);
width = 544;
}
);
leftKerningGroup = m;
rightKerningGroup = h;
unicode = 331;
},
{
glyphname = o;
layers = (
{
layerId = "0CD817DE-E207-40E9-9EE5-B2F928C7D041";
shapes = (
{
closed = 1;
nodes = (
(427,-7,o),
(543,77,o),
(543,234,cs),
(543,390,o),
(427,477,o),
(278,477,cs),
(130,477,o),
(13,390,o),
(13,234,cs),
(13,80,o),
(132,-7,o),
(278,-7,cs)
);
},
{
closed = 1;
nodes = (
(217,130,o),
(189,178,o),
(189,234,cs),
(189,290,o),
(216,340,o),
(278,340,cs),
(340,340,o),
(367,290,o),
(367,234,cs),
(367,178,o),
(339,130,o),
(278,130,cs)
);
}
);
width = 557;
},
{
layerId = "F7A2C943-FF27-42DD-BB53-36E69242D1D6";
shapes = (
{
closed = 1;
nodes = (
(419,-9,o),
(522,97,o),
(522,237,cs),
(522,377,o),
(419,479,o),
(279,479,cs),
(139,479,o),
(35,377,o),
(35,237,cs),
(35,97,o),
(139,-9,o),
(279,-9,cs)
);
},
{
closed = 1;
nodes = (
(184,71,o),
(126,145,o),
(126,237,cs),
(126,329,o),
(183,399,o),
(279,399,cs),
(375,399,o),
(431,329,o),
(431,237,cs),
(431,145,o),
(376,71,o),
(279,71,cs)
);
}
);
width = 557;
},
{
layerId = "CEB2CA40-D0FD-4F6E-AD1A-0B625565F02B";
shapes = (
{
closed = 1;
nodes = (
(416,-9,o),
(510,106,o),
(510,238,cs),
(510,371,o),
(414,479,o),
(279,479,cs),
(144,479,o),
(46,371,o),
(46,238,cs),
(46,106,o),
(141,-9,o),
(279,-9,cs)
);
},
{
closed = 1;
nodes = (
(164,34,o),
(91,129,o),
(91,238,cs),
(91,348,o),
(166,436,o),
(279,436,cs),
(393,436,o),
(465,348,o),
(465,238,cs),
(465,129,o),
(395,34,o),
(279,34,cs)
);
}
);
width = 557;
}
);
leftKerningGroup = a2;
rightKerningGroup = b;
unicode = 111;
},
{
glyphname = oslash;
layers = (
{
layerId = "0CD817DE-E207-40E9-9EE5-B2F928C7D041";
shapes = (
{
closed = 1;
nodes = (
(92,134,l),
(14,55,l),
(92,-22,l),
(163,48,l),
(191,94,l),
(420,323,l),
(454,341,l),
(543,429,l),
(464,507,l),
(376,419,l),
(364,388,l),
(149,172,l)
);
},
{
closed = 1;
nodes = (
(427,-7,o),
(543,77,o),
(543,234,cs),
(543,307,o),
(517,369,o),
(470,411,cs),
(423,453,o),
(357,477,o),
(278,477,cs),
(130,477,o),
(13,390,o),
(13,234,cs),
(13,161,o),
(40,101,o),
(87,59,cs),
(134,17,o),
(199,-7,o),
(278,-7,cs)
);
},
{
closed = 1;
nodes = (
(246,130,o),
(225,142,o),
(210,162,cs),
(195,181,o),
(189,207,o),
(189,234,cs),
(189,290,o),
(216,340,o),
(278,340,cs),
(309,340,o),
(330,328,o),
(345,309,cs),
(360,289,o),
(367,263,o),
(367,234,cs),
(367,178,o),
(339,130,o),
(278,130,cs)
);
}
);
width = 557;
},
{
layerId = "F7A2C943-FF27-42DD-BB53-36E69242D1D6";
shapes = (
{
closed = 1;
nodes = (
(122,111,l),
(48,37,l),
(90,-5,l),
(160,64,l),
(170,77,l),
(417,324,l),
(431,336,l),
(505,411,l),
(463,453,l),
(392,382,l),
(380,367,l),
(139,125,l)
);
},
{
closed = 1;
nodes = (
(412,-8,o),
(509,92,o),
(509,224,cs),
(509,290,o),
(484,348,o),
(443,388,cs),
(402,428,o),
(345,452,o),
(279,452,cs),
(146,452,o),
(48,357,o),
(48,224,cs),
(48,158,o),
(73,99,o),
(114,58,cs),
(155,17,o),
(213,-8,o),
(279,-8,cs)
);
},
{
closed = 1;
nodes = (
(236,67,o),
(200,84,o),
(175,111,cs),
(150,139,o),
(135,179,o),
(135,224,cs),
(135,311,o),
(189,377,o),
(279,377,cs),
(322,377,o),
(357,361,o),
(383,335,c),
(408,307,o),
(422,269,o),
(422,224,cs),
(422,138,o),
(370,67,o),
(279,67,cs)
);
}
);
width = 557;
},
{
layerId = "CEB2CA40-D0FD-4F6E-AD1A-0B625565F02B";
shapes = (
{
closed = 1;
nodes = (
(128,89,l),
(65,26,l),
(88,3,l),
(148,63,l),
(157,73,l),
(418,333,l),
(430,344,l),
(488,405,l),
(466,428,l),
(409,371,l),
(400,362,l),
(138,99,l)
);
},
{
closed = 1;
nodes = (
(405,-8,o),
(491,98,o),
(491,218,cs),
(491,282,o),
(467,338,o),
(429,377,cs),
(391,415,o),
(338,439,o),
(279,439,cs),
(155,439,o),
(65,340,o),
(65,218,cs),
(65,153,o),
(89,96,o),
(128,57,cs),
(167,16,o),
(219,-8,o),
(279,-8,cs)
);
},
{
closed = 1;
nodes = (
(230,31,o),
(187,51,o),
(157,84,c),
(126,116,o),
(107,163,o),
(107,218,cs),
(107,319,o),
(175,399,o),
(279,399,cs),
(327,399,o),
(370,381,o),
(400,350,cs),
(431,318,o),
(449,272,o),
(449,218,cs),
(449,119,o),
(385,31,o),
(279,31,cs)
);
}
);
width = 557;
}
);
leftKerningGroup = a2;
rightKerningGroup = b;
unicode = 248;
},
{
glyphname = oe;
layers = (
{
layerId = "0CD817DE-E207-40E9-9EE5-B2F928C7D041";
shapes = (
{
closed = 1;
nodes = (
(670,-7,o),
(710,2,o),
(743,18,cs),
(776,34,o),
(805,57,o),
(826,85,c),
(736,171,l),
(711,144,o),
(681,131,o),
(630,131,cs),
(593,131,o),
(565,138,o),
(546,155,cs),
(527,172,o),
(518,201,o),
(518,244,cs),
(518,306,o),
(544,345,o),
(609,345,cs),
(640,345,o),
(662,337,o),
(676,325,cs),
(690,312,o),
(695,294,o),
(695,274,cs),
(695,227,l),
(789,284,l),
(446,284,l),
(446,198,l),
(850,198,l),
(850,221,ls),
(850,298,o),
(827,363,o),
(786,408,cs),
(745,452,o),
(686,477,o),
(614,477,cs),
(510,477,o),
(440,431,o),
(405,356,cs),
(352,241,l),
(405,121,l),
(422,80,o),
(452,49,o),
(489,27,cs),
(526,5,o),
(573,-7,o),
(626,-7,cs)
);
},
{
closed = 1;
nodes = (
(343,-7,o),
(430,49,o),
(456,152,c),
(352,241,l),
(352,183,o),
(322,128,o),
(258,128,cs),
(233,128,o),
(211,140,o),
(195,160,cs),
(179,180,o),
(170,209,o),
(170,242,cs),
(170,297,o),
(199,342,o),
(258,342,cs),
(285,342,o),
(309,332,o),
(326,314,cs),
(342,296,o),
(352,270,o),
(352,241,c),
(456,351,l),
(440,390,o),
(411,422,o),
(373,444,cs),
(335,466,o),
(288,477,o),
(237,477,cs),
(95,477,o),
(-6,387,o),
(-6,242,cs),
(-6,169,o),
(19,107,o),
(63,63,cs),
(106,19,o),
(167,-7,o),
(239,-7,cs)
);
}
);
width = 845;
},
{
layerId = "F7A2C943-FF27-42DD-BB53-36E69242D1D6";
shapes = (
{
closed = 1;
nodes = (
(649,-9,o),
(685,-1,o),
(717,15,cs),
(749,30,o),
(777,52,o),
(798,82,c),
(742,133,l),
(714,93,o),
(666,71,o),
(613,71,cs),
(573,71,o),
(538,87,o),
(513,116,cs),
(489,144,o),
(474,186,o),
(474,238,cs),
(474,326,o),
(511,400,o),
(608,400,cs),
(645,400,o),
(677,384,o),
(699,358,cs),
(720,333,o),
(733,297,o),
(733,256,cs),
(733,233,l),
(771,285,l),
(437,285,l),
(437,217,l),
(821,217,l),
(821,237,ls),
(821,299,o),
(803,358,o),
(768,404,c),
(731,449,o),
(678,479,o),
(609,479,cs),
(513,479,o),
(445,429,o),
(410,338,c),
(385,238,l),
(409,149,ls),
(423,100,o),
(449,61,o),
(485,34,cs),
(519,7,o),
(564,-9,o),
(612,-9,cs)
);
},
{
closed = 1;
nodes = (
(343,-9,o),
(425,53,o),
(444,151,c),
(385,238,l),
(385,157,o),
(353,71,o),
(258,71,cs),
(210,71,o),
(175,88,o),
(151,117,c),
(128,147,o),
(118,190,o),
(118,239,cs),
(118,330,o),
(162,398,o),
(259,398,cs),
(302,398,o),
(333,382,o),
(354,353,cs),
(375,325,o),
(385,285,o),
(385,238,c),
(451,314,l),
(442,363,o),
(419,405,o),
(383,434,cs),
(349,462,o),
(303,479,o),
(246,479,cs),
(101,479,o),
(24,373,o),
(24,236,cs),
(24,160,o),
(47,100,o),
(87,59,c),
(126,16,o),
(180,-9,o),
(245,-9,cs)
);
}
);
width = 845;
},
{
layerId = "CEB2CA40-D0FD-4F6E-AD1A-0B625565F02B";
shapes = (
{
closed = 1;
nodes = (
(639,-9,o),
(672,-1,o),
(703,13,cs),
(734,28,o),
(761,52,o),
(782,84,c),
(747,112,l),
(718,65,o),
(664,34,o),
(607,34,cs),
(562,34,o),
(521,54,o),
(494,91,cs),
(467,127,o),
(449,177,o),
(449,235,cs),
(449,330,o),
(496,436,o),
(605,436,cs),
(653,436,o),
(691,414,o),
(717,380,c),
(741,346,o),
(755,299,o),
(755,247,cs),
(755,237,l),
(762,271,l),
(434,271,l),
(434,229,l),
(800,229,l),
(800,246,ls),
(800,298,o),
(786,356,o),
(756,402,c),
(723,446,o),
(673,479,o),
(604,479,cs),
(514,479,o),
(450,428,o),
(415,328,c),
(404,236,l),
(413,166,l),
(422,110,o),
(446,67,o),
(481,36,c),
(516,7,o),
(561,-9,o),
(609,-9,cs)
);
},
{
closed = 1;
nodes = (
(339,-9,o),
(420,54,o),
(433,150,c),
(404,236,l),
(404,137,o),
(363,35,o),
(248,35,cs),
(195,35,o),
(156,57,o),
(129,92,cs),
(103,127,o),
(89,178,o),
(89,234,cs),
(89,339,o),
(138,434,o),
(255,434,cs),
(308,434,o),
(345,413,o),
(369,378,cs),
(393,344,o),
(404,294,o),
(404,236,c),
(441,292,l),
(437,348,o),
(419,394,o),
(386,427,cs),
(354,460,o),
(308,479,o),
(250,479,cs),
(105,479,o),
(45,366,o),
(45,234,cs),
(45,160,o),
(63,98,o),
(99,56,cs),
(134,13,o),
(185,-9,o),
(245,-9,cs)
);
}
);
width = 845;
}
);
leftKerningGroup = a2;
rightKerningGroup = b;
unicode = 339;
},
{
glyphname = p;
layers = (
{
layerId = "0CD817DE-E207-40E9-9EE5-B2F928C7D041";
shapes = (
{
closed = 1;
nodes = (
(207,-240,l),
(207,111,l),
(207,126,l),
(207,339,l),
(198,346,l),
(198,470,l),
(42,470,l),
(42,346,l),
(42,339,l),
(42,-240,l)
);
},
{
closed = 1;
nodes = (
(491,-7,o),
(559,113,o),
(559,236,cs),
(559,307,o),
(539,366,o),
(503,409,cs),
(467,452,o),
(416,477,o),
(355,477,cs),
(271,477,o),
(198,427,o),
(191,339,c),
(191,240,l),
(207,240,l),
(207,293,o),
(237,336,o),
(293,336,cs),
(316,336,o),
(338,328,o),
(355,312,cs),
(371,296,o),
(383,271,o),
(383,235,cs),
(383,180,o),
(351,131,o),
(292,131,cs),
(271,131,o),
(249,139,o),
(234,156,c),
(218,172,o),
(207,198,o),
(207,234,c),
(186,234,l),
(186,129,l),
(193,92,o),
(211,57,o),
(240,33,c),
(268,8,o),
(307,-7,o),
(355,-7,cs)
);
}
);
width = 582;
},
{
layerId = "F7A2C943-FF27-42DD-BB53-36E69242D1D6";
shapes = (
{
closed = 1;
nodes = (
(158,-240,l),
(158,118,l),
(158,131,l),
(158,331,l),
(153,339,l),
(153,470,l),
(69,470,l),
(69,339,l),
(69,331,l),
(69,-240,l)
);
},
{
closed = 1;
nodes = (
(459,-9,o),
(546,103,o),
(546,235,cs),
(546,310,o),
(523,370,o),
(482,412,cs),
(440,455,o),
(385,479,o),
(322,479,cs),
(253,479,o),
(159,442,o),
(147,364,c),
(147,242,l),
(158,242,l),
(158,329,o),
(216,397,o),
(305,397,cs),
(348,397,o),
(383,383,o),
(410,356,cs),
(437,328,o),
(452,288,o),
(452,236,cs),
(452,147,o),
(402,73,o),
(307,73,cs),
(260,73,o),
(222,92,o),
(198,122,c),
(173,151,o),
(158,191,o),
(158,232,c),
(142,232,l),
(142,120,l),
(150,84,o),
(172,52,o),
(202,30,cs),
(233,6,o),
(275,-9,o),
(322,-9,cs)
);
}
);
width = 582;
},
{
layerId = "CEB2CA40-D0FD-4F6E-AD1A-0B625565F02B";
shapes = (
{
closed = 1;
nodes = (
(119,-240,l),
(119,121,l),
(119,138,l),
(119,327,l),
(117,335,l),
(117,470,l),
(72,470,l),
(72,335,l),
(72,327,l),
(72,-240,l)
);
},
{
closed = 1;
nodes = (
(440,-9,o),
(528,105,o),
(528,234,cs),
(528,310,o),
(502,372,o),
(460,414,cs),
(418,455,o),
(362,479,o),
(301,479,cs),
(204,479,o),
(124,410,o),
(105,317,c),
(116,243,l),
(119,243,l),
(119,351,o),
(190,436,o),
(301,436,cs),
(354,436,o),
(399,417,o),
(430,384,cs),
(462,349,o),
(480,300,o),
(480,237,cs),
(480,129,o),
(420,34,o),
(303,34,cs),
(242,34,o),
(196,62,o),
(166,99,cs),
(134,137,o),
(119,185,o),
(119,231,c),
(111,231,l),
(104,162,l),
(114,117,o),
(136,74,o),
(170,42,cs),
(204,10,o),
(250,-9,o),
(304,-9,cs)
);
}
);
width = 582;
}
);
leftKerningGroup = m;
rightKerningGroup = b;
unicode = 112;
},
{
glyphname = thorn;
layers = (
{
layerId = "0CD817DE-E207-40E9-9EE5-B2F928C7D041";
shapes = (
{
closed = 1;
nodes = (
(207,-240,l),
(207,111,l),
(207,126,l),
(207,339,l),
(207,346,l),
(207,700,l),
(42,700,l),
(42,346,l),
(42,339,l),
(42,-240,l)
);
},
{
closed = 1;
nodes = (
(491,-7,o),
(559,113,o),
(559,236,cs),
(559,307,o),
(539,366,o),
(503,409,cs),
(467,452,o),
(416,477,o),
(355,477,cs),
(271,477,o),
(198,427,o),
(191,339,c),
(191,240,l),
(207,240,l),
(207,293,o),
(237,336,o),
(293,336,cs),
(316,336,o),
(338,328,o),
(355,312,cs),
(371,296,o),
(383,271,o),
(383,235,cs),
(383,180,o),
(351,131,o),
(292,131,cs),
(271,131,o),
(249,139,o),
(234,156,c),
(218,172,o),
(207,198,o),
(207,234,c),
(186,234,l),
(186,129,l),
(193,92,o),
(211,57,o),
(240,33,c),
(268,8,o),
(307,-7,o),
(355,-7,cs)
);
}
);
width = 582;
},
{
layerId = "F7A2C943-FF27-42DD-BB53-36E69242D1D6";
shapes = (
{
closed = 1;
nodes = (
(158,-241,l),
(158,118,l),
(158,134,l),
(158,331,l),
(158,339,l),
(158,700,l),
(69,700,l),
(69,339,l),
(69,331,l),
(69,-241,l)
);
},
{
closed = 1;
nodes = (
(459,-9,o),
(546,103,o),
(546,235,cs),
(546,310,o),
(522,370,o),
(482,412,cs),
(440,455,o),
(384,479,o),
(322,479,cs),
(253,479,o),
(159,442,o),
(147,364,c),
(147,242,l),
(158,242,l),
(158,329,o),
(216,397,o),
(305,397,cs),
(348,397,o),
(383,383,o),
(410,356,cs),
(437,328,o),
(452,288,o),
(452,236,cs),
(452,147,o),
(401,73,o),
(307,73,cs),
(260,73,o),
(222,92,o),
(197,122,cs),
(173,151,o),
(158,191,o),
(158,232,c),
(142,232,l),
(142,120,l),
(149,84,o),
(172,52,o),
(202,30,cs),
(233,6,o),
(274,-9,o),
(322,-9,cs)
);
}
);
width = 582;
},
{
layerId = "CEB2CA40-D0FD-4F6E-AD1A-0B625565F02B";
shapes = (
{
closed = 1;
nodes = (
(119,-240,l),
(119,121,l),
(119,138,l),
(119,327,l),
(119,335,l),
(119,700,l),
(72,700,l),
(72,335,l),
(72,327,l),
(72,-240,l)
);
},
{
closed = 1;
nodes = (
(440,-9,o),
(528,105,o),
(528,234,cs),
(528,310,o),
(502,372,o),
(460,414,cs),
(418,455,o),
(362,479,o),
(301,479,cs),
(204,479,o),
(124,410,o),
(105,317,c),
(116,243,l),
(119,243,l),
(119,351,o),
(190,436,o),
(301,436,cs),
(354,436,o),
(399,417,o),
(430,384,cs),
(463,349,o),
(480,300,o),
(480,237,cs),
(480,129,o),
(420,34,o),
(303,34,cs),
(242,34,o),
(196,62,o),
(165,99,cs),
(134,137,o),
(119,185,o),
(119,231,c),
(111,231,l),
(104,162,l),
(113,117,o),
(136,74,o),
(170,42,cs),
(205,10,o),
(250,-9,o),
(304,-9,cs)
);
}
);
width = 582;
}
);
leftKerningGroup = m;
rightKerningGroup = b;
unicode = 254;
},
{
glyphname = q;
layers = (
{
layerId = "0CD817DE-E207-40E9-9EE5-B2F928C7D041";
shapes = (
{
closed = 1;
nodes = (
(374,-240,l),
(539,-240,l),
(539,339,l),
(539,346,l),
(539,470,l),
(383,470,l),
(383,346,l),
(374,339,l),
(374,126,l),
(374,111,l)
);
},
{
closed = 1;
nodes = (
(313,-7,o),
(379,43,o),
(395,129,c),
(395,234,l),
(374,234,l),
(374,181,o),
(348,131,o),
(289,131,cs),
(265,131,o),
(242,141,o),
(226,158,cs),
(209,175,o),
(198,202,o),
(198,235,cs),
(198,289,o),
(230,336,o),
(288,336,cs),
(311,336,o),
(332,328,o),
(348,312,cs),
(364,296,o),
(374,272,o),
(374,240,c),
(390,240,l),
(390,339,l),
(389,376,o),
(371,411,o),
(343,436,cs),
(315,461,o),
(274,477,o),
(226,477,cs),
(90,477,o),
(22,360,o),
(22,236,cs),
(22,167,o),
(42,105,o),
(78,62,cs),
(114,19,o),
(165,-7,o),
(226,-7,cs)
);
}
);
width = 582;
},
{
layerId = "F7A2C943-FF27-42DD-BB53-36E69242D1D6";
shapes = (
{
closed = 1;
nodes = (
(424,-241,l),
(513,-241,l),
(513,331,l),
(513,339,l),
(513,470,l),
(428,470,l),
(428,339,l),
(424,331,l),
(424,131,l),
(424,118,l)
);
},
{
closed = 1;
nodes = (
(340,-9,o),
(423,37,o),
(440,120,c),
(440,232,l),
(424,232,l),
(424,146,o),
(365,73,o),
(275,73,cs),
(232,73,o),
(195,89,o),
(170,118,cs),
(145,146,o),
(129,187,o),
(129,236,cs),
(129,327,o),
(181,397,o),
(277,397,cs),
(324,397,o),
(361,379,o),
(386,351,cs),
(410,323,o),
(424,283,o),
(424,242,c),
(434,242,l),
(434,364,l),
(430,391,o),
(411,420,o),
(382,442,cs),
(352,464,o),
(310,479,o),
(259,479,cs),
(119,479,o),
(36,369,o),
(36,235,cs),
(36,160,o),
(61,99,o),
(102,58,cs),
(143,15,o),
(199,-9,o),
(259,-9,cs)
);
}
);
width = 582;
},
{
layerId = "CEB2CA40-D0FD-4F6E-AD1A-0B625565F02B";
shapes = (
{
closed = 1;
nodes = (
(463,-240,l),
(510,-240,l),
(510,327,l),
(510,335,l),
(510,470,l),
(465,470,l),
(465,335,l),
(463,327,l),
(463,138,l),
(463,121,l)
);
},
{
closed = 1;
nodes = (
(381,-9,o),
(459,64,o),
(478,162,c),
(472,231,l),
(463,231,l),
(463,125,o),
(389,34,o),
(279,34,cs),
(225,34,o),
(181,54,o),
(150,91,cs),
(120,127,o),
(102,176,o),
(102,237,cs),
(102,349,o),
(164,436,o),
(282,436,cs),
(343,436,o),
(389,412,o),
(418,376,cs),
(448,338,o),
(463,291,o),
(463,243,c),
(466,243,l),
(477,317,l),
(469,359,o),
(448,398,o),
(415,429,cs),
(382,459,o),
(337,479,o),
(281,479,cs),
(144,479,o),
(54,368,o),
(54,234,cs),
(54,156,o),
(82,97,o),
(125,55,cs),
(167,13,o),
(221,-9,o),
(279,-9,cs)
);
}
);
width = 582;
}
);
leftKerningGroup = a2;
rightKerningGroup = a;
unicode = 113;
},
{
glyphname = r;
layers = (
{
layerId = "0CD817DE-E207-40E9-9EE5-B2F928C7D041";
shapes = (
{
closed = 1;
nodes = (
(271,477,o),
(242,464,o),
(222,442,cs),
(201,420,o),
(189,389,o),
(185,357,c),
(191,338,l),
(191,470,l),
(35,470,l),
(35,0,l),
(200,0,l),
(200,232,ls),
(200,269,o),
(210,295,o),
(226,311,cs),
(242,327,o),
(266,334,o),
(294,334,cs),
(313,334,o),
(331,331,o),
(344,326,c),
(344,473,l),
(329,476,o),
(319,477,o),
(308,477,cs)
);
}
);
width = 351;
},
{
layerId = "F7A2C943-FF27-42DD-BB53-36E69242D1D6";
shapes = (
{
closed = 1;
nodes = (
(229,476,o),
(199,459,o),
(179,436,cs),
(159,412,o),
(149,384,o),
(145,361,c),
(159,331,l),
(159,470,l),
(74,470,l),
(74,0,l),
(164,0,l),
(164,247,ls),
(164,291,o),
(167,327,o),
(183,352,cs),
(198,377,o),
(223,392,o),
(266,392,cs),
(282,392,o),
(301,389,o),
(317,386,c),
(317,473,l),
(305,476,o),
(288,476,o),
(276,476,cs)
);
}
);
width = 351;
},
{
layerId = "CEB2CA40-D0FD-4F6E-AD1A-0B625565F02B";
shapes = (
{
closed = 1;
nodes = (
(201,477,o),
(171,456,o),
(151,432,cs),
(130,407,o),
(122,380,o),
(117,363,c),
(137,327,l),
(137,470,l),
(94,470,l),
(94,0,l),
(139,0,l),
(139,256,ls),
(139,304,o),
(142,347,o),
(156,380,cs),
(170,412,o),
(195,433,o),
(246,433,cs),
(266,433,o),
(282,430,o),
(298,425,c),
(298,470,l),
(282,474,o),
(268,477,o),
(252,477,cs)
);
}
);
width = 351;
}
);
leftKerningGroup = m;
rightKerningGroup = r;
unicode = 114;
},
{
glyphname = s;
layers = (
{
layerId = "0CD817DE-E207-40E9-9EE5-B2F928C7D041";
shapes = (
{
closed = 1;
nodes = (
(315,-7,o),
(399,33,o),
(399,143,cs),
(399,170,o),
(394,193,o),
(384,211,cs),
(364,246,o),
(332,269,o),
(297,283,cs),
(280,290,o),
(263,296,o),
(248,301,cs),
(217,312,o),
(195,320,o),
(195,336,cs),
(195,345,o),
(199,354,o),
(222,354,cs),
(259,354,o),
(294,341,o),
(322,317,c),
(395,421,l),
(378,434,o),
(353,448,o),
(324,459,cs),
(295,470,o),
(260,477,o),
(223,477,cs),
(129,477,o),
(42,438,o),
(42,332,cs),
(42,305,o),
(47,283,o),
(57,265,cs),
(77,229,o),
(108,205,o),
(143,190,cs),
(160,182,o),
(177,175,o),
(192,170,c),
(222,158,o),
(244,150,o),
(244,135,cs),
(244,117,o),
(223,116,o),
(210,116,cs),
(167,116,o),
(121,135,o),
(90,158,c),
(26,55,l),
(42,42,o),
(64,26,o),
(96,14,cs),
(128,2,o),
(168,-7,o),
(217,-7,cs)
);
}
);
width = 433;
},
{
layerId = "F7A2C943-FF27-42DD-BB53-36E69242D1D6";
shapes = (
{
closed = 1;
nodes = (
(311,-10,o),
(402,33,o),
(402,140,cs),
(402,169,o),
(395,192,o),
(383,209,cs),
(357,244,o),
(317,263,o),
(271,274,cs),
(249,280,o),
(228,285,o),
(209,290,c),
(170,302,o),
(142,317,o),
(142,349,cs),
(142,381,o),
(173,403,o),
(231,403,cs),
(280,403,o),
(314,385,o),
(341,359,c),
(390,424,l),
(373,437,o),
(353,452,o),
(327,463,c),
(300,473,o),
(269,480,o),
(232,480,cs),
(146,480,o),
(54,444,o),
(54,344,cs),
(54,317,o),
(60,295,o),
(73,279,c),
(98,245,o),
(138,227,o),
(183,215,cs),
(206,209,o),
(227,202,o),
(246,197,c),
(285,183,o),
(313,166,o),
(313,132,cs),
(313,81,o),
(256,67,o),
(215,67,cs),
(158,67,o),
(110,89,o),
(74,128,c),
(28,65,l),
(51,43,o),
(78,23,o),
(109,11,cs),
(140,-2,o),
(176,-10,o),
(217,-10,cs)
);
}
);
width = 433;
},
{
layerId = "CEB2CA40-D0FD-4F6E-AD1A-0B625565F02B";
shapes = (
{
closed = 1;
nodes = (
(298,-11,o),
(390,28,o),
(390,135,cs),
(390,165,o),
(382,187,o),
(369,203,c),
(339,236,o),
(293,255,o),
(241,265,cs),
(216,270,o),
(192,276,o),
(170,282,cs),
(126,295,o),
(93,312,o),
(93,353,cs),
(93,398,o),
(134,435,o),
(208,435,cs),
(270,435,o),
(319,411,o),
(349,384,c),
(376,418,l),
(358,435,o),
(337,449,o),
(311,460,cs),
(283,472,o),
(251,479,o),
(214,479,cs),
(135,479,o),
(48,445,o),
(48,351,cs),
(48,324,o),
(56,302,o),
(70,286,cs),
(99,255,o),
(144,239,o),
(196,229,cs),
(222,224,o),
(246,218,o),
(269,212,c),
(313,197,o),
(345,176,o),
(345,133,cs),
(345,62,o),
(270,32,o),
(209,32,cs),
(145,32,o),
(89,57,o),
(50,92,c),
(22,56,l),
(46,35,o),
(73,17,o),
(103,6,cs),
(133,-5,o),
(168,-11,o),
(204,-11,cs)
);
}
);
width = 433;
}
);
leftKerningGroup = s2;
rightKerningGroup = s;
unicode = 115;
},
{
glyphname = germandbls;
layers = (
{
layerId = "0CD817DE-E207-40E9-9EE5-B2F928C7D041";
shapes = (
{
closed = 1;
nodes = (
(452,-7,o),
(501,13,o),
(533,43,cs),
(565,73,o),
(580,115,o),
(580,159,cs),
(580,182,o),
(576,202,o),
(569,218,c),
(553,249,o),
(529,271,o),
(502,287,cs),
(488,295,o),
(475,303,o),
(464,310,cs),
(440,325,o),
(423,340,o),
(423,364,cs),
(423,372,o),
(425,380,o),
(429,387,cs),
(436,402,o),
(448,415,o),
(461,431,cs),
(467,439,o),
(473,448,o),
(479,457,cs),
(490,475,o),
(498,497,o),
(498,525,cs),
(498,564,o),
(485,610,o),
(450,647,c),
(414,683,o),
(357,710,o),
(269,710,cs),
(118,710,o),
(28,622,o),
(28,471,cs),
(28,0,l),
(193,0,l),
(193,452,ls),
(193,505,o),
(201,567,o),
(268,567,cs),
(288,567,o),
(303,561,o),
(315,550,c),
(326,538,o),
(332,523,o),
(332,503,cs),
(332,493,o),
(330,484,o),
(327,476,cs),
(320,459,o),
(311,445,o),
(299,430,cs),
(293,423,o),
(288,415,o),
(283,406,cs),
(274,389,o),
(266,368,o),
(266,340,cs),
(266,319,o),
(270,301,o),
(277,286,cs),
(292,256,o),
(315,235,o),
(341,221,cs),
(354,214,o),
(366,207,o),
(377,201,cs),
(399,188,o),
(415,176,o),
(415,157,cs),
(415,138,o),
(399,123,o),
(364,123,cs),
(333,123,o),
(307,133,o),
(283,152,c),
(242,30,l),
(258,17,o),
(281,8,o),
(306,2,c),
(330,-5,o),
(357,-7,o),
(384,-7,cs)
);
}
);
width = 574;
},
{
layerId = "F7A2C943-FF27-42DD-BB53-36E69242D1D6";
shapes = (
{
closed = 1;
nodes = (
(449,-10,o),
(491,5,o),
(520,30,cs),
(549,55,o),
(566,90,o),
(566,130,cs),
(566,153,o),
(561,172,o),
(551,189,cs),
(530,222,o),
(497,247,o),
(461,266,cs),
(443,276,o),
(425,286,o),
(410,296,cs),
(378,316,o),
(354,336,o),
(354,364,cs),
(354,375,o),
(357,383,o),
(363,392,cs),
(374,408,o),
(392,424,o),
(412,440,cs),
(422,448,o),
(431,457,o),
(440,468,cs),
(457,489,o),
(469,515,o),
(469,553,cs),
(469,594,o),
(454,633,o),
(423,662,c),
(393,692,o),
(344,710,o),
(279,710,cs),
(107,710,o),
(79,571,o),
(79,428,cs),
(79,0,l),
(164,0,l),
(164,408,ls),
(164,502,o),
(157,634,o),
(283,634,cs),
(316,634,o),
(341,627,o),
(358,613,cs),
(375,598,o),
(383,579,o),
(383,552,cs),
(383,536,o),
(381,523,o),
(375,512,cs),
(364,489,o),
(346,472,o),
(327,456,cs),
(317,448,o),
(309,439,o),
(300,430,cs),
(283,411,o),
(270,389,o),
(270,356,cs),
(270,334,o),
(276,315,o),
(286,298,cs),
(307,265,o),
(340,239,o),
(376,219,cs),
(394,209,o),
(411,199,o),
(427,190,c),
(457,171,o),
(481,150,o),
(481,124,cs),
(481,91,o),
(450,65,o),
(393,65,cs),
(354,65,o),
(322,78,o),
(294,104,c),
(259,48,l),
(273,33,o),
(292,19,o),
(316,9,cs),
(340,-2,o),
(368,-10,o),
(400,-10,cs)
);
}
);
width = 574;
},
{
layerId = "CEB2CA40-D0FD-4F6E-AD1A-0B625565F02B";
shapes = (
{
closed = 1;
nodes = (
(397,-10,o),
(433,2,o),
(460,26,cs),
(487,49,o),
(504,82,o),
(504,126,cs),
(504,147,o),
(499,166,o),
(489,181,cs),
(469,211,o),
(437,235,o),
(403,254,cs),
(385,264,o),
(369,274,o),
(354,283,cs),
(324,303,o),
(301,323,o),
(301,352,cs),
(301,364,o),
(304,375,o),
(310,385,cs),
(322,404,o),
(342,424,o),
(363,443,cs),
(374,452,o),
(384,463,o),
(393,475,cs),
(412,498,o),
(425,529,o),
(425,569,cs),
(425,610,o),
(413,646,o),
(387,671,cs),
(361,695,o),
(322,710,o),
(270,710,cs),
(109,710,o),
(90,562,o),
(90,433,cs),
(90,0,l),
(133,0,l),
(133,421,ls),
(133,525,o),
(133,671,o),
(272,671,cs),
(313,671,o),
(341,659,o),
(359,642,c),
(376,624,o),
(383,599,o),
(383,569,cs),
(383,550,o),
(380,534,o),
(374,520,cs),
(362,493,o),
(343,472,o),
(322,454,cs),
(311,445,o),
(301,435,o),
(292,426,cs),
(273,406,o),
(260,383,o),
(260,350,cs),
(260,330,o),
(265,312,o),
(275,297,cs),
(295,267,o),
(327,247,o),
(361,229,cs),
(379,219,o),
(394,210,o),
(410,200,c),
(440,179,o),
(463,155,o),
(463,117,cs),
(463,64,o),
(423,29,o),
(363,29,cs),
(311,29,o),
(275,45,o),
(245,75,c),
(222,46,l),
(234,34,o),
(252,20,o),
(274,9,cs),
(297,-3,o),
(325,-10,o),
(358,-10,cs)
);
}
);
width = 574;
}
);
leftKerningGroup = b2;
unicode = 223;
},
{
glyphname = t;
layers = (
{
layerId = "0CD817DE-E207-40E9-9EE5-B2F928C7D041";
shapes = (
{
closed = 1;
nodes = (
(286,-6,o),
(320,-3,o),
(337,-3,c),
(337,143,l),
(322,142,o),
(306,141,o),
(294,141,cs),
(269,141,o),
(251,144,o),
(242,155,cs),
(233,166,o),
(229,182,o),
(229,209,cs),
(229,639,l),
(73,639,l),
(73,182,ls),
(73,122,o),
(81,75,o),
(109,43,cs),
(136,11,o),
(182,-6,o),
(255,-6,cs)
);
},
{
closed = 1;
nodes = (
(3,327,l),
(335,327,l),
(335,470,l),
(3,470,l)
);
}
);
width = 362;
},
{
layerId = "F7A2C943-FF27-42DD-BB53-36E69242D1D6";
shapes = (
{
closed = 1;
nodes = (
(279,-5,o),
(300,-4,o),
(320,-1,c),
(320,78,l),
(304,75,o),
(289,75,o),
(278,75,cs),
(243,75,o),
(224,85,o),
(213,102,c),
(201,118,o),
(197,142,o),
(197,169,cs),
(197,641,l),
(109,641,l),
(109,156,ls),
(109,99,o),
(121,59,o),
(146,33,cs),
(170,7,o),
(207,-5,o),
(262,-5,cs)
);
},
{
closed = 1;
nodes = (
(30,390,l),
(316,390,l),
(316,470,l),
(30,470,l)
);
}
);
width = 362;
},
{
layerId = "CEB2CA40-D0FD-4F6E-AD1A-0B625565F02B";
shapes = (
{
closed = 1;
nodes = (
(268,-6,o),
(287,-4,o),
(311,0,c),
(311,41,l),
(295,38,o),
(280,36,o),
(264,36,cs),
(228,36,o),
(204,49,o),
(192,67,cs),
(180,85,o),
(176,111,o),
(176,138,cs),
(176,620,l),
(130,620,l),
(130,134,ls),
(130,79,o),
(144,43,o),
(166,22,cs),
(188,1,o),
(217,-6,o),
(256,-6,cs)
);
},
{
closed = 1;
nodes = (
(48,427,l),
(306,427,l),
(306,470,l),
(48,470,l)
);
}
);
width = 362;
}
);
leftKerningGroup = f2;
rightKerningGroup = t;
unicode = 116;
},
{
glyphname = tbar;
layers = (
{
layerId = "0CD817DE-E207-40E9-9EE5-B2F928C7D041";
shapes = (
{
closed = 1;
nodes = (
(288,-6,o),
(322,-3,o),
(339,-3,c),
(339,120,l),
(324,119,o),
(308,118,o),
(296,118,cs),
(271,118,o),
(253,128,o),
(244,144,cs),
(235,160,o),
(231,182,o),
(231,209,cs),
(231,639,l),
(75,639,l),
(75,182,ls),
(75,122,o),
(83,75,o),
(111,43,cs),
(138,11,o),
(184,-6,o),
(257,-6,cs)
);
},
{
closed = 1;
nodes = (
(1,177,l),
(337,177,l),
(337,300,l),
(1,300,l)
);
},
{
closed = 1;
nodes = (
(1,347,l),
(337,347,l),
(337,470,l),
(1,470,l)
);
}
);
width = 362;
},
{
layerId = "F7A2C943-FF27-42DD-BB53-36E69242D1D6";
shapes = (
{
closed = 1;
nodes = (
(280,-5,o),
(301,-4,o),
(321,-1,c),
(321,75,l),
(305,72,o),
(290,72,o),
(278,72,cs),
(245,72,o),
(225,83,o),
(213,100,cs),
(201,117,o),
(198,142,o),
(198,169,cs),
(198,641,l),
(110,641,l),
(110,156,ls),
(110,99,o),
(122,59,o),
(147,33,cs),
(171,7,o),
(210,-5,o),
(263,-5,cs)
);
},
{
closed = 1;
nodes = (
(31,210,l),
(321,210,l),
(321,286,l),
(31,286,l)
);
},
{
closed = 1;
nodes = (
(31,393,l),
(321,393,l),
(321,470,l),
(31,470,l)
);
}
);
width = 362;
},
{
layerId = "CEB2CA40-D0FD-4F6E-AD1A-0B625565F02B";
shapes = (
{
closed = 1;
nodes = (
(263,-5,o),
(282,-4,o),
(302,0,c),
(302,38,l),
(289,35,o),
(274,35,o),
(259,35,cs),
(224,35,o),
(204,47,o),
(192,66,cs),
(180,85,o),
(177,112,o),
(177,137,cs),
(177,580,l),
(133,580,l),
(133,133,ls),
(133,80,o),
(145,45,o),
(166,24,cs),
(187,3,o),
(216,-5,o),
(251,-5,cs)
);
},
{
closed = 1;
nodes = (
(57,219,l),
(302,219,l),
(302,259,l),
(57,259,l)
);
},
{
closed = 1;
nodes = (
(57,399,l),
(302,399,l),
(302,439,l),
(57,439,l)
);
}
);
width = 362;
}
);
leftKerningGroup = f2;
rightKerningGroup = t;
unicode = 359;
},
{
glyphname = u;
layers = (
{
layerId = "0CD817DE-E207-40E9-9EE5-B2F928C7D041";
shapes = (
{
closed = 1;
nodes = (
(237,-11,o),
(273,1,o),
(301,22,cs),
(328,42,o),
(347,72,o),
(358,107,c),
(346,125,l),
(346,0,l),
(502,0,l),
(502,470,l),
(337,470,l),
(337,233,ls),
(337,197,o),
(330,171,o),
(316,155,cs),
(302,139,o),
(281,132,o),
(256,132,cs),
(217,132,o),
(195,154,o),
(195,209,cs),
(195,470,l),
(30,470,l),
(30,172,ls),
(30,112,o),
(47,67,o),
(75,36,cs),
(103,4,o),
(144,-11,o),
(192,-11,cs)
);
}
);
width = 538;
},
{
layerId = "F7A2C943-FF27-42DD-BB53-36E69242D1D6";
shapes = (
{
closed = 1;
nodes = (
(277,-7,o),
(314,7,o),
(343,28,cs),
(371,49,o),
(389,78,o),
(397,109,c),
(384,138,l),
(384,0,l),
(469,0,l),
(469,470,l),
(379,470,l),
(379,230,ls),
(379,183,o),
(368,147,o),
(346,119,cs),
(324,91,o),
(290,75,o),
(249,75,cs),
(182,75,o),
(149,120,o),
(149,217,cs),
(149,470,l),
(59,470,l),
(59,197,ls),
(59,126,o),
(78,77,o),
(107,43,cs),
(136,9,o),
(179,-7,o),
(230,-7,cs)
);
}
);
width = 538;
},
{
layerId = "CEB2CA40-D0FD-4F6E-AD1A-0B625565F02B";
shapes = (
{
closed = 1;
nodes = (
(292,-4,o),
(335,15,o),
(365,43,cs),
(395,71,o),
(412,108,o),
(420,143,c),
(411,145,l),
(411,0,l),
(454,0,l),
(454,470,l),
(407,470,l),
(407,228,ls),
(407,177,o),
(394,131,o),
(367,96,cs),
(340,61,o),
(299,39,o),
(242,39,cs),
(159,39,o),
(124,92,o),
(124,220,cs),
(124,470,l),
(78,470,l),
(78,211,ls),
(78,131,o),
(94,76,o),
(122,44,cs),
(150,11,o),
(189,-4,o),
(237,-4,cs)
);
}
);
width = 538;
}
);
leftKerningGroup = m;
rightKerningGroup = a;
unicode = 117;
},
{
glyphname = v;
layers = (
{
layerId = "0CD817DE-E207-40E9-9EE5-B2F928C7D041";
shapes = (
{
closed = 1;
nodes = (
(179,0,l),
(280,0,l),
(475,438,l),
(475,470,l),
(323,470,l),
(208,181,l),
(270,181,l),
(148,470,l),
(-16,470,l),
(-16,437,l)
);
}
);
width = 460;
},
{
layerId = "F7A2C943-FF27-42DD-BB53-36E69242D1D6";
shapes = (
{
closed = 1;
nodes = (
(217,-5,l),
(252,-5,l),
(452,456,l),
(452,470,l),
(368,470,l),
(214,96,l),
(265,96,l),
(100,470,l),
(8,470,l),
(8,456,l)
);
}
);
width = 460;
},
{
layerId = "CEB2CA40-D0FD-4F6E-AD1A-0B625565F02B";
shapes = (
{
closed = 1;
nodes = (
(235,-9,l),
(241,-9,l),
(438,466,l),
(438,470,l),
(394,470,l),
(229,71,l),
(249,71,l),
(73,470,l),
(22,470,l),
(22,467,l)
);
}
);
width = 460;
}
);
leftKerningGroup = v2;
rightKerningGroup = v;
unicode = 118;
},
{
glyphname = w;
layers = (
{
layerId = "0CD817DE-E207-40E9-9EE5-B2F928C7D041";
shapes = (
{
closed = 1;
nodes = (
(118,0,l),
(245,0,l),
(344,260,l),
(307,259,l),
(402,0,l),
(524,0,l),
(635,437,l),
(635,470,l),
(487,470,l),
(406,176,l),
(475,178,l),
(361,470,l),
(299,470,l),
(186,186,l),
(248,186,l),
(170,470,l),
(10,470,l),
(11,437,l)
);
}
);
width = 646;
},
{
layerId = "F7A2C943-FF27-42DD-BB53-36E69242D1D6";
shapes = (
{
closed = 1;
nodes = (
(155,-3,l),
(207,-3,l),
(354,370,l),
(296,370,l),
(441,-3,l),
(491,-3,l),
(630,456,l),
(630,470,l),
(549,470,l),
(441,117,l),
(478,120,l),
(344,470,l),
(313,470,l),
(178,122,l),
(214,119,l),
(106,470,l),
(17,470,l),
(17,456,l)
);
}
);
width = 646;
},
{
layerId = "CEB2CA40-D0FD-4F6E-AD1A-0B625565F02B";
shapes = (
{
closed = 1;
nodes = (
(181,-1,l),
(195,-1,l),
(338,409,l),
(310,409,l),
(453,-1,l),
(467,-1,l),
(610,465,l),
(610,470,l),
(565,470,l),
(448,71,l),
(473,75,l),
(333,470,l),
(320,470,l),
(181,73,l),
(208,69,l),
(86,470,l),
(39,470,l),
(39,465,l)
);
}
);
width = 646;
}
);
leftKerningGroup = w2;
rightKerningGroup = w;
unicode = 119;
},
{
glyphname = x;
layers = (
{
layerId = "0CD817DE-E207-40E9-9EE5-B2F928C7D041";
shapes = (
{
closed = 1;
nodes = (
(-19,0,l),
(138,0,l),
(265,199,l),
(180,199,l),
(310,0,l),
(473,0,l),
(472,32,l),
(297,300,l),
(314,208,l),
(457,437,l),
(457,470,l),
(304,470,l),
(203,302,l),
(279,302,l),
(162,470,l),
(-5,470,l),
(-5,437,l),
(151,209,l),
(150,299,l),
(-19,33,l)
);
}
);
width = 455;
},
{
layerId = "F7A2C943-FF27-42DD-BB53-36E69242D1D6";
shapes = (
{
closed = 1;
nodes = (
(9,0,l),
(102,0,l),
(248,209,l),
(206,209,l),
(348,0,l),
(445,0,l),
(445,14,l),
(255,288,l),
(257,207,l),
(431,456,l),
(431,470,l),
(342,470,l),
(210,273,l),
(252,273,l),
(120,470,l),
(22,470,l),
(22,456,l),
(196,202,l),
(196,283,l),
(9,14,l)
);
}
);
width = 455;
},
{
layerId = "CEB2CA40-D0FD-4F6E-AD1A-0B625565F02B";
shapes = (
{
closed = 1;
nodes = (
(25,0,l),
(77,0,l),
(233,216,l),
(214,216,l),
(372,0,l),
(429,0,l),
(429,5,l),
(230,274,l),
(233,209,l),
(416,464,l),
(416,470,l),
(364,470,l),
(217,257,l),
(236,264,l),
(87,470,l),
(30,470,l),
(30,464,l),
(223,205,l),
(218,269,l),
(25,5,l)
);
}
);
width = 455;
}
);
unicode = 120;
},
{
glyphname = y;
layers = (
{
layerId = "0CD817DE-E207-40E9-9EE5-B2F928C7D041";
shapes = (
{
closed = 1;
nodes = (
(209,-44,l),
(303,134,l),
(172,470,l),
(5,470,l),
(5,437,l)
);
},
{
closed = 1;
nodes = (
(116,-123,o),
(104,-122,o),
(84,-119,c),
(84,-268,l),
(95,-271,o),
(102,-271,o),
(121,-271,cs),
(222,-271,o),
(278,-224,o),
(320,-100,cs),
(504,437,l),
(505,470,l),
(361,470,l),
(199,-8,ls),
(172,-88,o),
(149,-123,o),
(123,-123,cs)
);
}
);
width = 512;
},
{
layerId = "F7A2C943-FF27-42DD-BB53-36E69242D1D6";
shapes = (
{
closed = 1;
nodes = (
(234,-20,l),
(280,92,l),
(122,470,l),
(30,470,l),
(30,456,l)
);
},
{
closed = 1;
nodes = (
(109,-164,o),
(103,-164,o),
(94,-163,c),
(94,-244,l),
(100,-245,o),
(107,-245,o),
(114,-245,cs),
(197,-245,o),
(257,-195,o),
(291,-97,cs),
(481,456,l),
(481,470,l),
(396,470,l),
(221,-30,ls),
(191,-118,o),
(154,-164,o),
(116,-164,cs)
);
}
);
width = 512;
},
{
layerId = "CEB2CA40-D0FD-4F6E-AD1A-0B625565F02B";
shapes = (
{
closed = 1;
nodes = (
(250,-6,l),
(280,43,l),
(96,470,l),
(46,470,l),
(46,467,l)
);
},
{
closed = 1;
nodes = (
(99,-199,o),
(99,-199,o),
(94,-199,c),
(94,-241,l),
(98,-241,o),
(109,-241,o),
(111,-241,cs),
(181,-241,o),
(226,-205,o),
(264,-97,cs),
(464,467,l),
(464,470,l),
(418,470,l),
(224,-63,ls),
(190,-157,o),
(157,-199,o),
(106,-199,cs)
);
}
);
width = 512;
}
);
leftKerningGroup = v2;
rightKerningGroup = v;
unicode = 121;
},
{
glyphname = z;
layers = (
{
layerId = "0CD817DE-E207-40E9-9EE5-B2F928C7D041";
shapes = (
{
closed = 1;
nodes = (
(18,0,l),
(431,0,l),
(431,143,l),
(250,143,l),
(423,414,l),
(423,470,l),
(28,470,l),
(28,327,l),
(192,327,l),
(18,56,l)
);
}
);
width = 447;
},
{
layerId = "F7A2C943-FF27-42DD-BB53-36E69242D1D6";
shapes = (
{
closed = 1;
nodes = (
(33,0,l),
(416,0,l),
(416,80,l),
(163,80,l),
(419,434,l),
(419,470,l),
(40,470,l),
(40,390,l),
(287,390,l),
(33,36,l)
);
}
);
width = 447;
},
{
layerId = "CEB2CA40-D0FD-4F6E-AD1A-0B625565F02B";
shapes = (
{
closed = 1;
nodes = (
(48,0,l),
(399,0,l),
(399,43,l),
(112,43,l),
(402,440,l),
(402,470,l),
(48,470,l),
(48,427,l),
(339,427,l),
(48,30,l)
);
}
);
width = 447;
}
);
leftKerningGroup = z2;
rightKerningGroup = z;
unicode = 122;
},
{
glyphname = f_f;
layers = (
{
layerId = "0CD817DE-E207-40E9-9EE5-B2F928C7D041";
shapes = (
{
closed = 1;
nodes = (
(41,0,l),
(206,0,l),
(206,483,ls),
(206,515,o),
(216,535,o),
(232,547,cs),
(248,558,o),
(270,561,o),
(293,561,cs),
(328,561,o),
(348,554,o),
(360,539,cs),
(371,524,o),
(374,503,o),
(374,475,c),
(479,520,l),
(479,576,o),
(468,624,o),
(440,657,cs),
(411,690,o),
(364,710,o),
(291,710,cs),
(218,710,o),
(155,691,o),
(111,658,cs),
(67,625,o),
(41,578,o),
(41,523,cs)
);
},
{
closed = 1;
nodes = (
(-29,327,l),
(653,327,l),
(653,470,l),
(-29,470,l)
);
},
{
closed = 1;
nodes = (
(374,590,l),
(374,0,l),
(539,0,l),
(539,498,ls),
(539,523,o),
(546,538,o),
(559,547,cs),
(571,555,o),
(590,557,o),
(611,557,cs),
(623,557,o),
(643,556,o),
(655,555,c),
(655,699,l),
(635,703,o),
(608,706,o),
(583,706,cs),
(503,706,o),
(448,670,o),
(419,590,c)
);
}
);
width = 624;
},
{
layerId = "F7A2C943-FF27-42DD-BB53-36E69242D1D6";
shapes = (
{
closed = 1;
nodes = (
(109,0,l),
(194,0,l),
(194,498,ls),
(194,547,o),
(201,581,o),
(217,602,cs),
(232,623,o),
(257,633,o),
(293,633,cs),
(334,633,o),
(362,624,o),
(378,602,cs),
(393,580,o),
(399,546,o),
(399,497,c),
(460,562,l),
(459,599,o),
(449,636,o),
(423,664,cs),
(397,692,o),
(354,710,o),
(289,710,cs),
(229,710,o),
(184,692,o),
(154,660,cs),
(124,627,o),
(109,580,o),
(109,521,cs)
);
},
{
closed = 1;
nodes = (
(34,394,l),
(585,394,l),
(585,470,l),
(34,470,l)
);
},
{
closed = 1;
nodes = (
(399,611,l),
(399,0,l),
(484,0,l),
(484,529,ls),
(484,566,o),
(494,590,o),
(510,605,cs),
(526,620,o),
(549,624,o),
(578,624,cs),
(585,624,o),
(592,624,o),
(599,623,c),
(599,702,l),
(592,703,o),
(581,705,o),
(562,705,cs),
(497,705,o),
(452,671,o),
(427,611,c)
);
}
);
width = 624;
},
{
layerId = "CEB2CA40-D0FD-4F6E-AD1A-0B625565F02B";
shapes = (
{
closed = 1;
nodes = (
(139,0,l),
(181,0,l),
(181,507,ls),
(181,566,o),
(187,606,o),
(204,632,cs),
(220,658,o),
(247,670,o),
(291,670,cs),
(334,670,o),
(363,658,o),
(381,632,cs),
(399,606,o),
(406,566,o),
(406,510,c),
(443,569,l),
(442,604,o),
(434,638,o),
(412,665,cs),
(390,692,o),
(351,710,o),
(294,710,cs),
(237,710,o),
(198,692,o),
(174,660,cs),
(149,628,o),
(139,580,o),
(139,520,cs)
);
},
{
closed = 1;
nodes = (
(64,429,l),
(543,429,l),
(543,470,l),
(64,470,l)
);
},
{
closed = 1;
nodes = (
(406,606,l),
(406,0,l),
(449,0,l),
(449,545,ls),
(449,590,o),
(459,619,o),
(477,636,cs),
(495,653,o),
(521,660,o),
(553,660,cs),
(557,660,o),
(559,660,o),
(562,660,c),
(562,705,l),
(559,705,o),
(555,705,o),
(548,705,cs),
(484,705,o),
(443,670,o),
(424,606,c)
);
}
);
width = 624;
}
);
leftKerningGroup = f2;
rightKerningGroup = f;
unicode = 64256;
},
{
glyphname = f_f_i;
layers = (
{
layerId = "0CD817DE-E207-40E9-9EE5-B2F928C7D041";
shapes = (
{
closed = 1;
nodes = (
(359,0,l),
(524,0,l),
(524,483,ls),
(524,515,o),
(534,538,o),
(550,552,cs),
(566,566,o),
(589,571,o),
(613,571,cs),
(664,571,o),
(685,546,o),
(690,510,c),
(857,510,l),
(857,571,o),
(834,624,o),
(794,661,cs),
(753,698,o),
(696,720,o),
(628,720,cs),
(577,720,o),
(532,708,o),
(494,684,cs),
(456,660,o),
(426,624,o),
(407,577,c),
(359,577,l)
);
},
{
closed = 1;
nodes = (
(26,0,l),
(191,0,l),
(191,463,ls),
(191,495,o),
(201,515,o),
(217,527,cs),
(233,538,o),
(255,541,o),
(278,541,cs),
(313,541,o),
(333,534,o),
(345,519,cs),
(356,504,o),
(359,483,o),
(359,455,c),
(464,500,l),
(464,556,o),
(447,604,o),
(414,637,cs),
(381,670,o),
(331,690,o),
(263,690,cs),
(196,690,o),
(138,671,o),
(95,636,cs),
(52,600,o),
(26,549,o),
(26,485,cs)
);
},
{
closed = 1;
nodes = (
(-44,327,l),
(638,327,l),
(638,470,l),
(-44,470,l)
);
},
{
closed = 1;
nodes = (
(692,0,l),
(857,0,l),
(857,470,l),
(692,470,l)
);
}
);
width = 845;
},
{
layerId = "F7A2C943-FF27-42DD-BB53-36E69242D1D6";
shapes = (
{
closed = 1;
nodes = (
(397,0,l),
(482,0,l),
(482,481,ls),
(482,540,o),
(489,580,o),
(505,606,cs),
(521,632,o),
(546,643,o),
(586,643,cs),
(661,643,o),
(686,600,o),
(687,520,c),
(772,520,l),
(772,575,o),
(760,625,o),
(731,661,cs),
(702,697,o),
(656,720,o),
(588,720,cs),
(540,720,o),
(503,710,o),
(476,687,cs),
(448,664,o),
(429,632,o),
(421,588,c),
(397,570,l)
);
},
{
closed = 1;
nodes = (
(107,0,l),
(192,0,l),
(192,478,ls),
(192,527,o),
(198,561,o),
(212,582,cs),
(226,603,o),
(249,613,o),
(285,613,cs),
(325,613,o),
(352,602,o),
(369,578,cs),
(386,553,o),
(394,515,o),
(397,460,c),
(453,484,l),
(453,547,o),
(443,599,o),
(417,635,cs),
(391,670,o),
(348,690,o),
(284,690,cs),
(223,690,o),
(179,672,o),
(150,639,cs),
(121,606,o),
(107,558,o),
(107,499,cs)
);
},
{
closed = 1;
nodes = (
(32,420,l),
(592,420,l),
(592,496,l),
(32,496,l)
);
},
{
closed = 1;
nodes = (
(687,0,l),
(772,0,l),
(772,470,l),
(687,470,l)
);
}
);
width = 845;
},
{
layerId = "CEB2CA40-D0FD-4F6E-AD1A-0B625565F02B";
shapes = (
{
closed = 1;
nodes = (
(419,0,l),
(461,0,l),
(461,470,ls),
(461,542,o),
(467,592,o),
(483,624,cs),
(499,656,o),
(527,671,o),
(572,671,cs),
(652,671,o),
(686,626,o),
(686,526,c),
(729,526,l),
(729,574,o),
(721,621,o),
(700,655,cs),
(679,689,o),
(642,711,o),
(579,711,cs),
(530,711,o),
(495,697,o),
(472,670,cs),
(449,643,o),
(438,606,o),
(434,558,c),
(419,533,l)
);
},
{
closed = 1;
nodes = (
(152,0,l),
(195,0,l),
(195,477,ls),
(195,536,o),
(202,576,o),
(218,603,cs),
(234,630,o),
(262,642,o),
(301,642,cs),
(342,642,o),
(372,629,o),
(391,602,cs),
(410,574,o),
(419,534,o),
(419,475,c),
(449,466,l),
(449,531,o),
(443,587,o),
(421,624,cs),
(399,661,o),
(362,681,o),
(303,681,cs),
(243,681,o),
(206,660,o),
(183,628,cs),
(159,595,o),
(152,549,o),
(152,496,cs)
);
},
{
closed = 1;
nodes = (
(77,438,l),
(569,438,l),
(569,479,l),
(77,479,l)
);
},
{
closed = 1;
nodes = (
(686,0,l),
(729,0,l),
(729,470,l),
(686,470,l)
);
}
);
width = 845;
}
);
leftKerningGroup = f2;
rightKerningGroup = d;
unicode = 64259;
},
{
glyphname = f_f_j;
layers = (
{
layerId = "0CD817DE-E207-40E9-9EE5-B2F928C7D041";
shapes = (
{
closed = 1;
nodes = (
(359,0,l),
(524,0,l),
(524,483,ls),
(524,515,o),
(534,538,o),
(550,552,cs),
(566,566,o),
(589,571,o),
(613,571,cs),
(664,571,o),
(685,546,o),
(690,510,c),
(857,510,l),
(857,571,o),
(834,624,o),
(794,661,cs),
(753,698,o),
(696,720,o),
(628,720,cs),
(577,720,o),
(532,708,o),
(494,684,cs),
(456,660,o),
(426,624,o),
(407,577,c),
(359,577,l)
);
},
{
closed = 1;
nodes = (
(26,0,l),
(191,0,l),
(191,463,ls),
(191,495,o),
(201,515,o),
(217,527,cs),
(233,538,o),
(255,541,o),
(278,541,cs),
(313,541,o),
(333,534,o),
(345,519,cs),
(356,504,o),
(359,483,o),
(359,455,c),
(464,500,l),
(464,556,o),
(447,604,o),
(414,637,cs),
(381,670,o),
(331,690,o),
(263,690,cs),
(196,690,o),
(138,671,o),
(95,636,cs),
(52,600,o),
(26,549,o),
(26,485,cs)
);
},
{
closed = 1;
nodes = (
(-44,327,l),
(638,327,l),
(638,470,l),
(-44,470,l)
);
},
{
closed = 1;
nodes = (
(798,-271,o),
(857,-206,o),
(857,-86,cs),
(857,470,l),
(692,470,l),
(692,-42,ls),
(692,-74,o),
(687,-94,o),
(679,-106,cs),
(671,-118,o),
(659,-122,o),
(643,-122,cs),
(636,-122,o),
(627,-122,o),
(616,-119,c),
(616,-268,l),
(627,-271,o),
(634,-271,o),
(653,-271,cs)
);
}
);
width = 845;
},
{
layerId = "F7A2C943-FF27-42DD-BB53-36E69242D1D6";
shapes = (
{
closed = 1;
nodes = (
(397,0,l),
(482,0,l),
(482,481,ls),
(482,540,o),
(489,580,o),
(505,606,cs),
(521,632,o),
(546,643,o),
(586,643,cs),
(661,643,o),
(686,600,o),
(687,520,c),
(772,520,l),
(772,575,o),
(760,625,o),
(731,661,cs),
(702,697,o),
(656,720,o),
(588,720,cs),
(540,720,o),
(503,710,o),
(476,687,cs),
(448,664,o),
(429,632,o),
(421,588,c),
(397,570,l)
);
},
{
closed = 1;
nodes = (
(107,0,l),
(192,0,l),
(192,478,ls),
(192,527,o),
(198,561,o),
(212,582,cs),
(226,603,o),
(249,613,o),
(285,613,cs),
(325,613,o),
(352,602,o),
(369,578,cs),
(386,553,o),
(394,515,o),
(397,460,c),
(453,484,l),
(453,547,o),
(443,599,o),
(417,635,cs),
(391,670,o),
(348,690,o),
(284,690,cs),
(223,690,o),
(179,672,o),
(150,639,cs),
(121,606,o),
(107,558,o),
(107,499,cs)
);
},
{
closed = 1;
nodes = (
(32,394,l),
(592,394,l),
(592,470,l),
(32,470,l)
);
},
{
closed = 1;
nodes = (
(727,-250,o),
(771,-190,o),
(771,-79,cs),
(771,470,l),
(686,470,l),
(686,-81,ls),
(686,-116,o),
(679,-139,o),
(667,-153,cs),
(655,-167,o),
(636,-173,o),
(615,-173,cs),
(608,-173,o),
(603,-172,o),
(595,-171,c),
(595,-248,l),
(602,-249,o),
(607,-250,o),
(614,-250,cs)
);
}
);
width = 845;
},
{
layerId = "CEB2CA40-D0FD-4F6E-AD1A-0B625565F02B";
shapes = (
{
closed = 1;
nodes = (
(419,0,l),
(461,0,l),
(461,470,ls),
(461,542,o),
(467,592,o),
(483,624,cs),
(499,656,o),
(527,671,o),
(572,671,cs),
(652,671,o),
(686,626,o),
(686,526,c),
(729,526,l),
(729,574,o),
(721,621,o),
(700,655,cs),
(679,689,o),
(642,711,o),
(579,711,cs),
(530,711,o),
(495,697,o),
(472,670,cs),
(449,643,o),
(438,606,o),
(434,558,c),
(419,533,l)
);
},
{
closed = 1;
nodes = (
(152,0,l),
(195,0,l),
(195,477,ls),
(195,536,o),
(202,576,o),
(218,603,cs),
(234,630,o),
(262,642,o),
(301,642,cs),
(342,642,o),
(372,629,o),
(391,602,cs),
(410,574,o),
(419,534,o),
(419,475,c),
(449,466,l),
(449,531,o),
(443,587,o),
(421,624,cs),
(399,661,o),
(362,681,o),
(303,681,cs),
(243,681,o),
(206,660,o),
(183,628,cs),
(159,595,o),
(152,549,o),
(152,496,cs)
);
},
{
closed = 1;
nodes = (
(77,399,l),
(569,399,l),
(569,439,l),
(77,439,l)
);
},
{
closed = 1;
nodes = (
(693,-240,o),
(728,-188,o),
(728,-89,cs),
(728,439,l),
(685,439,l),
(685,-76,ls),
(685,-115,o),
(681,-148,o),
(668,-169,cs),
(655,-190,o),
(632,-202,o),
(599,-202,cs),
(592,-202,o),
(592,-202,o),
(587,-202,c),
(587,-240,l),
(591,-240,o),
(601,-240,o),
(602,-240,cs)
);
}
);
width = 845;
}
);
leftKerningGroup = f2;
rightKerningGroup = d;
},
{
glyphname = f_f_l;
layers = (
{
layerId = "0CD817DE-E207-40E9-9EE5-B2F928C7D041";
shapes = (
{
closed = 1;
nodes = (
(359,0,l),
(524,0,l),
(524,483,ls),
(524,515,o),
(533,538,o),
(549,552,cs),
(565,566,o),
(587,571,o),
(612,571,cs),
(644,571,o),
(664,561,o),
(676,544,cs),
(688,527,o),
(692,503,o),
(692,475,cs),
(692,0,l),
(857,0,l),
(857,520,ls),
(857,576,o),
(834,626,o),
(794,662,cs),
(753,698,o),
(696,720,o),
(628,720,cs),
(577,720,o),
(532,708,o),
(494,684,cs),
(456,660,o),
(426,624,o),
(407,577,c),
(359,589,l)
);
},
{
closed = 1;
nodes = (
(26,0,l),
(191,0,l),
(191,463,ls),
(191,495,o),
(201,515,o),
(217,527,cs),
(233,538,o),
(255,541,o),
(278,541,cs),
(313,541,o),
(333,534,o),
(345,519,cs),
(356,504,o),
(359,483,o),
(359,455,c),
(464,500,l),
(464,556,o),
(447,604,o),
(414,637,cs),
(381,670,o),
(331,690,o),
(263,690,cs),
(196,690,o),
(138,671,o),
(95,636,cs),
(52,600,o),
(26,549,o),
(26,485,cs)
);
},
{
closed = 1;
nodes = (
(-44,327,l),
(638,327,l),
(638,470,l),
(-44,470,l)
);
}
);
width = 845;
},
{
layerId = "F7A2C943-FF27-42DD-BB53-36E69242D1D6";
shapes = (
{
closed = 1;
nodes = (
(397,0,l),
(482,0,l),
(482,481,ls),
(482,540,o),
(488,580,o),
(504,606,cs),
(520,632,o),
(546,643,o),
(585,643,cs),
(625,643,o),
(649,631,o),
(665,610,cs),
(680,589,o),
(687,558,o),
(687,515,cs),
(687,0,l),
(772,0,l),
(772,530,ls),
(772,582,o),
(760,629,o),
(731,664,cs),
(702,699,o),
(656,720,o),
(588,720,cs),
(539,720,o),
(499,708,o),
(471,685,cs),
(442,661,o),
(423,626,o),
(414,583,c),
(397,558,l)
);
},
{
closed = 1;
nodes = (
(107,0,l),
(192,0,l),
(192,478,ls),
(192,527,o),
(198,561,o),
(212,582,cs),
(226,603,o),
(249,613,o),
(285,613,cs),
(325,613,o),
(352,602,o),
(371,579,cs),
(390,556,o),
(397,522,o),
(397,475,c),
(453,484,l),
(453,547,o),
(443,599,o),
(417,635,cs),
(391,670,o),
(348,690,o),
(284,690,cs),
(223,690,o),
(179,672,o),
(150,639,cs),
(121,606,o),
(107,558,o),
(107,499,cs)
);
},
{
closed = 1;
nodes = (
(32,394,l),
(592,394,l),
(592,470,l),
(32,470,l)
);
}
);
width = 845;
},
{
layerId = "CEB2CA40-D0FD-4F6E-AD1A-0B625565F02B";
shapes = (
{
closed = 1;
nodes = (
(419,0,l),
(461,0,l),
(461,470,ls),
(461,542,o),
(467,592,o),
(483,624,cs),
(499,656,o),
(527,671,o),
(572,671,cs),
(613,671,o),
(641,659,o),
(660,633,cs),
(679,607,o),
(686,569,o),
(686,516,cs),
(686,0,l),
(729,0,l),
(729,526,ls),
(729,574,o),
(721,620,o),
(700,655,cs),
(679,690,o),
(642,711,o),
(579,711,cs),
(530,711,o),
(495,697,o),
(472,670,cs),
(449,643,o),
(438,605,o),
(434,558,c),
(419,532,l)
);
},
{
closed = 1;
nodes = (
(152,0,l),
(195,0,l),
(195,477,ls),
(195,536,o),
(202,576,o),
(218,603,cs),
(234,630,o),
(262,642,o),
(301,642,cs),
(342,642,o),
(372,629,o),
(391,602,cs),
(410,575,o),
(419,533,o),
(419,476,c),
(449,466,l),
(449,531,o),
(443,587,o),
(421,624,cs),
(399,661,o),
(362,681,o),
(303,681,cs),
(243,681,o),
(206,660,o),
(183,628,cs),
(159,595,o),
(152,549,o),
(152,496,cs)
);
},
{
closed = 1;
nodes = (
(77,429,l),
(569,429,l),
(569,470,l),
(77,470,l)
);
}
);
width = 845;
}
);
leftKerningGroup = f2;
rightKerningGroup = d;
unicode = 64260;
},
{
glyphname = f_j;
layers = (
{
layerId = "0CD817DE-E207-40E9-9EE5-B2F928C7D041";
shapes = (
{
closed = 1;
nodes = (
(51,0,l),
(216,0,l),
(216,483,ls),
(216,515,o),
(225,535,o),
(241,547,cs),
(256,558,o),
(278,561,o),
(305,561,cs),
(336,561,o),
(354,556,o),
(365,548,cs),
(376,539,o),
(380,526,o),
(384,510,c),
(549,510,l),
(549,577,o),
(524,627,o),
(481,660,cs),
(437,693,o),
(378,710,o),
(307,710,cs),
(231,710,o),
(167,691,o),
(122,658,cs),
(77,625,o),
(51,578,o),
(51,523,cs)
);
},
{
closed = 1;
nodes = (
(-19,327,l),
(330,327,l),
(330,470,l),
(-19,470,l)
);
},
{
closed = 1;
nodes = (
(490,-271,o),
(549,-206,o),
(549,-86,cs),
(549,470,l),
(384,470,l),
(384,-42,ls),
(384,-74,o),
(379,-94,o),
(371,-106,cs),
(363,-118,o),
(351,-122,o),
(335,-122,cs),
(328,-122,o),
(319,-122,o),
(308,-119,c),
(308,-268,l),
(319,-271,o),
(326,-271,o),
(345,-271,cs)
);
}
);
width = 562;
},
{
layerId = "F7A2C943-FF27-42DD-BB53-36E69242D1D6";
shapes = (
{
closed = 1;
nodes = (
(110,0,l),
(195,0,l),
(195,481,ls),
(195,536,o),
(202,574,o),
(218,599,cs),
(234,623,o),
(260,633,o),
(299,633,cs),
(338,633,o),
(362,623,o),
(378,604,cs),
(393,585,o),
(400,557,o),
(400,520,c),
(486,520,l),
(486,573,o),
(474,620,o),
(444,655,cs),
(414,690,o),
(368,710,o),
(299,710,cs),
(234,710,o),
(186,690,o),
(155,655,cs),
(124,619,o),
(110,567,o),
(110,504,cs)
);
},
{
closed = 1;
nodes = (
(36,394,l),
(305,394,l),
(305,470,l),
(36,470,l)
);
},
{
closed = 1;
nodes = (
(442,-250,o),
(486,-190,o),
(486,-79,cs),
(486,470,l),
(400,470,l),
(400,-81,ls),
(400,-116,o),
(394,-139,o),
(382,-153,cs),
(369,-167,o),
(350,-173,o),
(329,-173,cs),
(322,-173,o),
(317,-172,o),
(310,-171,c),
(310,-248,l),
(315,-249,o),
(321,-250,o),
(329,-250,cs)
);
}
);
width = 562;
},
{
layerId = "CEB2CA40-D0FD-4F6E-AD1A-0B625565F02B";
shapes = (
{
closed = 1;
nodes = (
(145,0,l),
(187,0,l),
(187,480,ls),
(187,548,o),
(192,595,o),
(209,627,cs),
(225,658,o),
(253,671,o),
(298,671,cs),
(341,671,o),
(370,659,o),
(388,635,cs),
(406,610,o),
(412,573,o),
(412,526,c),
(454,526,l),
(454,571,o),
(449,617,o),
(426,652,cs),
(403,687,o),
(365,710,o),
(298,710,cs),
(237,710,o),
(199,689,o),
(176,653,cs),
(152,616,o),
(145,562,o),
(145,495,cs)
);
},
{
closed = 1;
nodes = (
(70,429,l),
(295,429,l),
(295,470,l),
(70,470,l)
);
},
{
closed = 1;
nodes = (
(418,-240,o),
(454,-188,o),
(454,-89,cs),
(454,470,l),
(412,470,l),
(412,-76,ls),
(412,-115,o),
(407,-148,o),
(394,-169,cs),
(381,-190,o),
(360,-202,o),
(325,-202,cs),
(318,-202,o),
(318,-202,o),
(314,-202,c),
(314,-240,l),
(317,-240,o),
(328,-240,o),
(329,-240,cs)
);
}
);
width = 562;
}
);
leftKerningGroup = f2;
rightKerningGroup = d;
},
{
glyphname = fi;
layers = (
{
layerId = "0CD817DE-E207-40E9-9EE5-B2F928C7D041";
shapes = (
{
closed = 1;
nodes = (
(51,0,l),
(216,0,l),
(216,483,ls),
(216,515,o),
(225,535,o),
(241,547,cs),
(256,558,o),
(278,561,o),
(305,561,cs),
(336,561,o),
(354,556,o),
(365,548,cs),
(376,539,o),
(380,526,o),
(384,510,c),
(549,510,l),
(549,577,o),
(524,627,o),
(481,660,cs),
(437,693,o),
(378,710,o),
(307,710,cs),
(231,710,o),
(167,691,o),
(122,658,cs),
(77,625,o),
(51,578,o),
(51,523,cs)
);
},
{
closed = 1;
nodes = (
(-19,327,l),
(330,327,l),
(330,470,l),
(-19,470,l)
);
},
{
closed = 1;
nodes = (
(384,0,l),
(549,0,l),
(549,470,l),
(384,470,l)
);
}
);
width = 562;
},
{
layerId = "F7A2C943-FF27-42DD-BB53-36E69242D1D6";
shapes = (
{
closed = 1;
nodes = (
(110,0,l),
(195,0,l),
(195,481,ls),
(195,536,o),
(202,574,o),
(218,599,cs),
(234,623,o),
(260,633,o),
(299,633,cs),
(338,633,o),
(362,623,o),
(378,604,cs),
(393,585,o),
(400,557,o),
(400,520,c),
(486,520,l),
(486,573,o),
(474,620,o),
(444,655,cs),
(414,690,o),
(368,710,o),
(299,710,cs),
(234,710,o),
(186,690,o),
(155,655,cs),
(124,619,o),
(110,567,o),
(110,504,cs)
);
},
{
closed = 1;
nodes = (
(36,394,l),
(305,394,l),
(305,470,l),
(36,470,l)
);
},
{
closed = 1;
nodes = (
(400,0,l),
(486,0,l),
(486,470,l),
(400,470,l)
);
}
);
width = 562;
},
{
layerId = "CEB2CA40-D0FD-4F6E-AD1A-0B625565F02B";
shapes = (
{
closed = 1;
nodes = (
(146,0,l),
(188,0,l),
(188,480,ls),
(188,547,o),
(193,594,o),
(210,626,cs),
(226,657,o),
(254,671,o),
(299,671,cs),
(342,671,o),
(370,658,o),
(388,634,cs),
(406,609,o),
(412,573,o),
(412,526,c),
(455,526,l),
(455,570,o),
(450,616,o),
(428,652,cs),
(406,687,o),
(366,710,o),
(299,710,cs),
(238,710,o),
(199,689,o),
(176,652,cs),
(153,615,o),
(146,560,o),
(146,495,cs)
);
},
{
closed = 1;
nodes = (
(69,429,l),
(295,429,l),
(295,470,l),
(69,470,l)
);
},
{
closed = 1;
nodes = (
(412,0,l),
(455,0,l),
(455,470,l),
(412,470,l)
);
}
);
width = 562;
}
);
leftKerningGroup = f2;
rightKerningGroup = d;
unicode = 64257;
},
{
glyphname = fl;
layers = (
{
layerId = "0CD817DE-E207-40E9-9EE5-B2F928C7D041";
shapes = (
{
closed = 1;
nodes = (
(51,0,l),
(216,0,l),
(216,483,ls),
(216,515,o),
(226,535,o),
(242,547,cs),
(258,558,o),
(280,561,o),
(303,561,cs),
(338,561,o),
(358,554,o),
(370,539,cs),
(381,524,o),
(384,503,o),
(384,475,cs),
(384,0,l),
(549,0,l),
(549,520,ls),
(549,576,o),
(524,624,o),
(480,657,cs),
(436,690,o),
(374,710,o),
(301,710,cs),
(228,710,o),
(165,691,o),
(121,658,cs),
(77,625,o),
(51,578,o),
(51,523,cs)
);
},
{
closed = 1;
nodes = (
(-19,327,l),
(330,327,l),
(330,470,l),
(-19,470,l)
);
}
);
width = 562;
},
{
layerId = "F7A2C943-FF27-42DD-BB53-36E69242D1D6";
shapes = (
{
closed = 1;
nodes = (
(110,0,l),
(195,0,l),
(195,481,ls),
(195,536,o),
(202,574,o),
(218,599,cs),
(234,623,o),
(260,633,o),
(299,633,cs),
(338,633,o),
(364,622,o),
(380,598,c),
(395,573,o),
(400,535,o),
(400,480,cs),
(400,0,l),
(486,0,l),
(486,504,ls),
(486,567,o),
(472,619,o),
(441,655,cs),
(410,690,o),
(363,710,o),
(298,710,cs),
(233,710,o),
(186,690,o),
(155,655,cs),
(124,619,o),
(110,567,o),
(110,504,cs)
);
},
{
closed = 1;
nodes = (
(36,394,l),
(305,394,l),
(305,470,l),
(36,470,l)
);
}
);
width = 562;
},
{
layerId = "CEB2CA40-D0FD-4F6E-AD1A-0B625565F02B";
shapes = (
{
closed = 1;
nodes = (
(146,0,l),
(188,0,l),
(188,480,ls),
(188,548,o),
(192,595,o),
(208,627,cs),
(224,658,o),
(251,671,o),
(298,671,cs),
(341,671,o),
(371,659,o),
(389,629,cs),
(407,599,o),
(412,551,o),
(412,483,cs),
(412,0,l),
(455,0,l),
(455,495,ls),
(455,562,o),
(448,616,o),
(425,653,cs),
(401,690,o),
(362,710,o),
(301,710,cs),
(240,710,o),
(200,689,o),
(177,653,cs),
(153,616,o),
(146,562,o),
(146,495,cs)
);
},
{
closed = 1;
nodes = (
(69,429,l),
(295,429,l),
(295,470,l),
(69,470,l)
);
}
);
width = 562;
}
);
leftKerningGroup = f2;
rightKerningGroup = d;
unicode = 64258;
},
{
glyphname = ordfeminine;
layers = (
{
layerId = "0CD817DE-E207-40E9-9EE5-B2F928C7D041";
shapes = (
{
closed = 1;
nodes = (
(204,388,o),
(228,398,o),
(245,412,cs),
(262,426,o),
(272,443,o),
(277,460,c),
(260,541,l),
(260,518,o),
(253,502,o),
(243,492,cs),
(233,482,o),
(219,477,o),
(204,477,cs),
(189,477,o),
(176,482,o),
(165,494,cs),
(154,506,o),
(148,524,o),
(148,549,cs),
(148,594,o),
(177,615,o),
(205,615,cs),
(220,615,o),
(232,611,o),
(243,601,cs),
(254,591,o),
(260,575,o),
(260,554,c),
(280,634,l),
(275,653,o),
(263,671,o),
(247,684,c),
(230,696,o),
(208,704,o),
(180,704,cs),
(139,704,o),
(103,688,o),
(77,660,cs),
(51,632,o),
(36,593,o),
(36,546,cs),
(36,499,o),
(49,460,o),
(72,432,cs),
(95,404,o),
(128,388,o),
(169,388,cs)
);
},
{
closed = 1;
nodes = (
(260,480,l),
(266,470,l),
(266,392,l),
(365,392,l),
(365,700,l),
(260,700,l)
);
}
);
width = 414;
},
{
layerId = "F7A2C943-FF27-42DD-BB53-36E69242D1D6";
shapes = (
{
closed = 1;
nodes = (
(210,386,o),
(236,397,o),
(257,413,cs),
(278,429,o),
(291,453,o),
(296,478,c),
(285,544,l),
(285,516,o),
(275,491,o),
(260,474,cs),
(244,457,o),
(219,446,o),
(190,446,cs),
(163,446,o),
(143,455,o),
(129,474,cs),
(115,493,o),
(108,518,o),
(108,549,cs),
(108,609,o),
(139,645,o),
(190,645,cs),
(221,645,o),
(245,635,o),
(261,619,cs),
(276,603,o),
(285,580,o),
(285,551,c),
(294,620,l),
(290,640,o),
(278,661,o),
(258,678,cs),
(238,694,o),
(212,705,o),
(177,705,cs),
(136,705,o),
(100,690,o),
(76,663,cs),
(51,635,o),
(37,595,o),
(37,546,cs),
(37,497,o),
(52,457,o),
(77,429,cs),
(102,401,o),
(137,386,o),
(178,386,cs)
);
},
{
closed = 1;
nodes = (
(285,480,l),
(288,470,l),
(288,391,l),
(358,391,l),
(358,700,l),
(285,700,l)
);
}
);
width = 414;
},
{
layerId = "CEB2CA40-D0FD-4F6E-AD1A-0B625565F02B";
shapes = (
{
closed = 1;
nodes = (
(216,386,o),
(243,397,o),
(267,415,cs),
(290,433,o),
(305,459,o),
(310,487,c),
(301,545,l),
(301,513,o),
(291,485,o),
(272,462,cs),
(253,439,o),
(225,425,o),
(186,425,cs),
(151,425,o),
(125,439,o),
(109,460,cs),
(92,481,o),
(85,513,o),
(85,549,cs),
(85,622,o),
(121,667,o),
(189,667,cs),
(226,667,o),
(254,654,o),
(273,634,cs),
(292,613,o),
(301,583,o),
(301,550,c),
(305,613,l),
(301,634,o),
(289,658,o),
(269,676,cs),
(248,694,o),
(217,706,o),
(180,706,cs),
(139,706,o),
(104,692,o),
(80,665,cs),
(55,637,o),
(41,597,o),
(41,546,cs),
(41,497,o),
(56,456,o),
(81,429,c),
(105,401,o),
(140,386,o),
(181,386,cs)
);
},
{
closed = 1;
nodes = (
(301,480,l),
(303,470,l),
(303,391,l),
(342,391,l),
(342,700,l),
(301,700,l)
);
}
);
width = 414;
}
);
leftKerningGroup = degree2;
rightKerningGroup = ordfeminine;
unicode = 170;
},
{
glyphname = ordmasculine;
layers = (
{
layerId = "0CD817DE-E207-40E9-9EE5-B2F928C7D041";
shapes = (
{
closed = 1;
nodes = (
(246,382,o),
(288,396,o),
(320,424,cs),
(351,451,o),
(370,492,o),
(370,544,cs),
(370,593,o),
(354,633,o),
(324,661,cs),
(294,689,o),
(252,704,o),
(201,704,cs),
(156,704,o),
(114,690,o),
(83,663,cs),
(51,635,o),
(32,595,o),
(32,543,cs),
(32,494,o),
(49,453,o),
(79,425,cs),
(109,397,o),
(150,382,o),
(201,382,cs)
);
},
{
closed = 1;
nodes = (
(181,474,o),
(167,482,o),
(159,495,c),
(150,507,o),
(145,525,o),
(145,544,cs),
(145,563,o),
(150,580,o),
(159,592,cs),
(167,604,o),
(181,612,o),
(201,612,cs),
(221,612,o),
(235,604,o),
(244,592,c),
(252,579,o),
(257,562,o),
(257,543,cs),
(257,524,o),
(252,507,o),
(244,495,cs),
(235,482,o),
(221,474,o),
(201,474,cs)
);
}
);
width = 402;
},
{
layerId = "F7A2C943-FF27-42DD-BB53-36E69242D1D6";
shapes = (
{
closed = 1;
nodes = (
(248,385,o),
(289,400,o),
(318,428,cs),
(347,456,o),
(366,496,o),
(366,545,cs),
(366,593,o),
(348,633,o),
(319,661,cs),
(290,689,o),
(248,705,o),
(201,705,cs),
(153,705,o),
(112,689,o),
(83,661,cs),
(54,633,o),
(36,593,o),
(36,545,cs),
(36,497,o),
(54,456,o),
(83,428,cs),
(112,400,o),
(154,385,o),
(201,385,cs)
);
},
{
closed = 1;
nodes = (
(173,445,o),
(149,455,o),
(133,473,cs),
(116,491,o),
(107,514,o),
(107,545,cs),
(107,574,o),
(116,600,o),
(133,617,cs),
(149,634,o),
(173,645,o),
(201,645,cs),
(230,645,o),
(253,635,o),
(270,617,cs),
(286,599,o),
(295,574,o),
(295,545,cs),
(295,514,o),
(286,491,o),
(270,473,cs),
(253,455,o),
(230,445,o),
(201,445,cs)
);
}
);
width = 402;
},
{
layerId = "CEB2CA40-D0FD-4F6E-AD1A-0B625565F02B";
shapes = (
{
closed = 1;
nodes = (
(249,386,o),
(289,403,o),
(318,431,cs),
(346,459,o),
(363,499,o),
(363,547,cs),
(363,594,o),
(346,634,o),
(317,662,cs),
(288,690,o),
(248,706,o),
(201,706,cs),
(153,706,o),
(113,689,o),
(85,661,cs),
(56,632,o),
(39,592,o),
(39,545,cs),
(39,498,o),
(57,458,o),
(86,430,cs),
(114,402,o),
(156,386,o),
(201,386,cs)
);
},
{
closed = 1;
nodes = (
(166,425,o),
(136,436,o),
(116,458,cs),
(96,480,o),
(83,508,o),
(83,545,cs),
(83,582,o),
(96,613,o),
(116,634,cs),
(136,655,o),
(166,667,o),
(201,667,cs),
(236,667,o),
(266,655,o),
(286,634,cs),
(306,613,o),
(319,583,o),
(319,546,cs),
(319,509,o),
(306,480,o),
(286,458,cs),
(266,436,o),
(236,425,o),
(201,425,cs)
);
}
);
width = 402;
}
);
leftKerningGroup = degree2;
rightKerningGroup = ordfeminine;
unicode = 186;
},
{
glyphname = Becyr;
layers = (
{
layerId = "0CD817DE-E207-40E9-9EE5-B2F928C7D041";
shapes = (
{
closed = 1;
nodes = (
(58,0,l),
(318,0,ls),
(389,0,o),
(450,21,o),
(494,61,cs),
(538,100,o),
(564,157,o),
(564,229,cs),
(564,300,o),
(538,355,o),
(494,393,cs),
(450,431,o),
(389,450,o),
(318,450,cs),
(238,450,l),
(238,550,l),
(508,550,l),
(508,700,l),
(58,700,l)
);
},
{
closed = 1;
nodes = (
(238,150,l),
(238,300,l),
(292,300,ls),
(324,300,o),
(347,291,o),
(361,278,cs),
(375,265,o),
(381,247,o),
(381,227,cs),
(381,202,o),
(373,182,o),
(358,170,cs),
(343,157,o),
(322,150,o),
(295,150,cs)
);
}
);
width = 587;
},
{
layerId = "F7A2C943-FF27-42DD-BB53-36E69242D1D6";
shapes = (
{
closed = 1;
nodes = (
(105,0,l),
(273,0,ls),
(357,0,o),
(421,21,o),
(464,58,cs),
(507,95,o),
(530,148,o),
(530,213,cs),
(530,277,o),
(508,328,o),
(465,364,cs),
(421,400,o),
(357,420,o),
(273,420,cs),
(196,420,l),
(196,618,l),
(469,618,l),
(469,700,l),
(105,700,l)
);
},
{
closed = 1;
nodes = (
(196,82,l),
(196,339,l),
(264,339,ls),
(328,339,o),
(371,325,o),
(399,302,cs),
(426,279,o),
(438,247,o),
(438,211,cs),
(438,170,o),
(423,139,o),
(395,117,cs),
(367,95,o),
(324,82,o),
(267,82,cs)
);
}
);
width = 587;
},
{
layerId = "CEB2CA40-D0FD-4F6E-AD1A-0B625565F02B";
shapes = (
{
closed = 1;
nodes = (
(127,0,l),
(246,0,ls),
(338,0,o),
(405,20,o),
(449,56,cs),
(493,92,o),
(513,143,o),
(513,204,cs),
(513,263,o),
(492,313,o),
(449,349,cs),
(405,384,o),
(339,404,o),
(246,404,cs),
(172,404,l),
(172,658,l),
(452,658,l),
(452,700,l),
(127,700,l)
);
},
{
closed = 1;
nodes = (
(172,42,l),
(172,361,l),
(247,361,ls),
(327,361,o),
(384,345,o),
(418,316,cs),
(452,287,o),
(467,248,o),
(467,203,cs),
(467,154,o),
(449,114,o),
(413,87,cs),
(376,59,o),
(318,42,o),
(239,42,cs)
);
}
);
width = 587;
}
);
unicode = 1041;
},
{
glyphname = Gecyr;
layers = (
{
layerId = "0CD817DE-E207-40E9-9EE5-B2F928C7D041";
shapes = (
{
closed = 1;
nodes = (
(53,0,l),
(233,0,l),
(233,550,l),
(473,550,l),
(473,700,l),
(53,700,l)
);
}
);
width = 482;
},
{
layerId = "F7A2C943-FF27-42DD-BB53-36E69242D1D6";
shapes = (
{
closed = 1;
nodes = (
(104,0,l),
(194,0,l),
(194,618,l),
(458,618,l),
(458,700,l),
(104,700,l)
);
}
);
width = 482;
},
{
layerId = "CEB2CA40-D0FD-4F6E-AD1A-0B625565F02B";
shapes = (
{
closed = 1;
nodes = (
(124,0,l),
(169,0,l),
(169,658,l),
(443,658,l),
(443,700,l),
(124,700,l)
);
}
);
width = 482;
}
);
rightKerningGroup = uni0413;
unicode = 1043;
},
{
glyphname = Geupcyr;
layers = (
{
layerId = "0CD817DE-E207-40E9-9EE5-B2F928C7D041";
shapes = (
{
closed = 1;
nodes = (
(303,700,l),
(53,700,l),
(53,0,l),
(233,0,l),
(233,550,l),
(473,550,l),
(473,830,l),
(303,830,l)
);
}
);
width = 482;
},
{
layerId = "F7A2C943-FF27-42DD-BB53-36E69242D1D6";
shapes = (
{
closed = 1;
nodes = (
(371,700,l),
(104,700,l),
(104,0,l),
(194,0,l),
(194,618,l),
(458,618,l),
(458,830,l),
(371,830,l)
);
}
);
width = 482;
},
{
layerId = "CEB2CA40-D0FD-4F6E-AD1A-0B625565F02B";
shapes = (
{
closed = 1;
nodes = (
(400,700,l),
(124,700,l),
(124,0,l),
(169,0,l),
(169,658,l),
(443,658,l),
(443,830,l),
(400,830,l)
);
}
);
width = 482;
}
);
rightKerningGroup = uni0413;
unicode = 1168;
},
{
glyphname = Decyr;
layers = (
{
layerId = "0CD817DE-E207-40E9-9EE5-B2F928C7D041";
shapes = (
{
closed = 1;
nodes = (
(216,62,l),
(251,123,o),
(275,194,o),
(291,278,cs),
(307,362,o),
(314,460,o),
(314,576,cs),
(314,656,l),
(170,550,l),
(552,550,l),
(445,656,l),
(445,80,l),
(625,80,l),
(625,700,l),
(142,700,l),
(142,579,ls),
(142,459,o),
(133,358,o),
(115,274,cs),
(97,189,o),
(71,120,o),
(38,63,c)
);
},
{
closed = 1;
nodes = (
(10,-150,l),
(170,-150,l),
(170,0,l),
(550,0,l),
(550,-150,l),
(710,-150,l),
(710,150,l),
(10,150,l)
);
}
);
width = 729;
},
{
layerId = "F7A2C943-FF27-42DD-BB53-36E69242D1D6";
shapes = (
{
closed = 1;
nodes = (
(172,49,l),
(205,116,o),
(230,196,o),
(246,288,cs),
(262,379,o),
(269,483,o),
(269,591,cs),
(269,664,l),
(198,618,l),
(545,618,l),
(494,660,l),
(494,63,l),
(584,63,l),
(584,700,l),
(181,700,l),
(181,579,ls),
(181,464,o),
(171,364,o),
(155,276,cs),
(138,187,o),
(113,112,o),
(80,49,c)
);
},
{
closed = 1;
nodes = (
(29,-133,l),
(114,-133,l),
(114,0,l),
(596,0,l),
(596,-133,l),
(682,-133,l),
(682,82,l),
(29,82,l)
);
}
);
width = 729;
},
{
layerId = "CEB2CA40-D0FD-4F6E-AD1A-0B625565F02B";
shapes = (
{
closed = 1;
nodes = (
(156,27,l),
(189,102,o),
(213,188,o),
(229,280,cs),
(244,371,o),
(252,472,o),
(252,577,cs),
(252,677,l),
(222,658,l),
(550,658,l),
(531,675,l),
(531,31,l),
(575,31,l),
(575,700,l),
(209,700,l),
(209,579,ls),
(209,468,o),
(201,367,o),
(185,275,cs),
(169,183,o),
(145,102,o),
(113,35,c)
);
},
{
closed = 1;
nodes = (
(48,-124,l),
(91,-124,l),
(91,0,l),
(637,0,l),
(637,-124,l),
(680,-124,l),
(680,42,l),
(48,42,l)
);
}
);
width = 729;
}
);
rightKerningGroup = uni0414;
unicode = 1044;
},
{
glyphname = Zhecyr;
layers = (
{
layerId = "0CD817DE-E207-40E9-9EE5-B2F928C7D041";
shapes = (
{
closed = 1;
nodes = (
(-16,0,l),
(187,0,l),
(363,369,l),
(231,700,l),
(48,700,l),
(48,690,l),
(193,344,l),
(198,440,l),
(-16,10,l)
);
},
{
closed = 1;
nodes = (
(673,0,l),
(867,0,l),
(867,10,l),
(660,419,l),
(654,343,l),
(800,690,l),
(800,700,l),
(619,700,l),
(485,364,l)
);
},
{
closed = 1;
nodes = (
(288,312,l),
(583,312,l),
(583,440,l),
(288,440,l)
);
},
{
closed = 1;
nodes = (
(515,700,l),
(335,700,l),
(335,0,l),
(515,0,l)
);
}
);
width = 852;
},
{
layerId = "F7A2C943-FF27-42DD-BB53-36E69242D1D6";
shapes = (
{
closed = 1;
nodes = (
(18,0,l),
(114,0,l),
(346,368,l),
(163,700,l),
(78,700,l),
(78,681,l),
(267,336,l),
(271,415,l),
(18,19,l)
);
},
{
closed = 1;
nodes = (
(739,0,l),
(834,0,l),
(834,19,l),
(582,412,l),
(585,336,l),
(773,681,l),
(773,700,l),
(688,700,l),
(506,367,l)
);
},
{
closed = 1;
nodes = (
(297,331,l),
(556,331,l),
(556,407,l),
(297,407,l)
);
},
{
closed = 1;
nodes = (
(471,700,l),
(380,700,l),
(380,0,l),
(471,0,l)
);
}
);
width = 852;
},
{
layerId = "CEB2CA40-D0FD-4F6E-AD1A-0B625565F02B";
shapes = (
{
closed = 1;
nodes = (
(56,0,l),
(96,0,l),
(358,367,l),
(149,700,l),
(114,700,l),
(114,679,l),
(323,349,l),
(329,399,l),
(56,21,l)
);
},
{
closed = 1;
nodes = (
(756,0,l),
(796,0,l),
(796,21,l),
(523,399,l),
(529,349,l),
(740,679,l),
(740,700,l),
(701,700,l),
(495,367,l)
);
},
{
closed = 1;
nodes = (
(317,348,l),
(526,348,l),
(526,390,l),
(317,390,l)
);
},
{
closed = 1;
nodes = (
(449,700,l),
(404,700,l),
(404,0,l),
(449,0,l)
);
}
);
width = 852;
}
);
leftKerningGroup = uni0416_2;
rightKerningGroup = uni0416;
unicode = 1046;
},
{
glyphname = Zecyr;
layers = (
{
layerId = "0CD817DE-E207-40E9-9EE5-B2F928C7D041";
shapes = (
{
closed = 1;
nodes = (
(401,-7,o),
(541,54,o),
(541,210,cs),
(541,266,o),
(520,312,o),
(480,344,cs),
(440,376,o),
(380,393,o),
(301,393,c),
(301,349,l),
(341,349,o),
(391,361,o),
(431,389,cs),
(471,416,o),
(501,459,o),
(501,520,cs),
(501,583,o),
(472,630,o),
(428,662,cs),
(384,694,o),
(325,710,o),
(264,710,cs),
(217,710,o),
(174,701,o),
(137,685,cs),
(100,668,o),
(68,642,o),
(44,610,c),
(135,504,l),
(148,520,o),
(166,532,o),
(186,540,cs),
(206,548,o),
(229,553,o),
(249,553,cs),
(272,553,o),
(292,551,o),
(307,543,cs),
(322,534,o),
(331,518,o),
(331,493,cs),
(331,473,o),
(324,457,o),
(312,446,cs),
(299,434,o),
(279,428,o),
(254,428,cs),
(215,428,l),
(215,304,l),
(247,304,ls),
(288,304,o),
(317,296,o),
(335,283,cs),
(353,270,o),
(361,250,o),
(361,225,cs),
(361,162,o),
(297,150,o),
(247,150,cs),
(219,150,o),
(194,157,o),
(171,169,c),
(147,180,o),
(127,196,o),
(110,213,c),
(14,89,l),
(75,26,o),
(153,-7,o),
(264,-7,cs)
);
}
);
width = 566;
},
{
layerId = "F7A2C943-FF27-42DD-BB53-36E69242D1D6";
shapes = (
{
closed = 1;
nodes = (
(398,-10,o),
(511,63,o),
(511,207,cs),
(511,267,o),
(488,311,o),
(453,341,cs),
(419,370,o),
(371,385,o),
(323,386,c),
(319,370,l),
(363,379,o),
(400,399,o),
(426,428,cs),
(451,455,o),
(465,494,o),
(465,537,cs),
(465,587,o),
(446,632,o),
(412,662,cs),
(377,692,o),
(324,710,o),
(256,710,cs),
(208,710,o),
(169,699,o),
(136,684,cs),
(103,668,o),
(78,647,o),
(59,629,c),
(111,567,l),
(133,587,o),
(153,601,o),
(177,611,cs),
(200,621,o),
(225,625,o),
(252,625,cs),
(293,625,o),
(325,617,o),
(345,600,cs),
(365,582,o),
(375,558,o),
(375,524,cs),
(375,489,o),
(363,460,o),
(341,442,c),
(319,422,o),
(287,412,o),
(246,412,cs),
(200,412,l),
(200,336,l),
(253,336,ls),
(311,336,o),
(353,322,o),
(380,299,cs),
(406,277,o),
(419,244,o),
(419,206,cs),
(419,111,o),
(342,75,o),
(258,75,cs),
(216,75,o),
(181,86,o),
(154,101,cs),
(126,116,o),
(106,135,o),
(87,154,c),
(32,90,l),
(86,26,o),
(162,-10,o),
(262,-10,cs)
);
}
);
width = 566;
},
{
layerId = "CEB2CA40-D0FD-4F6E-AD1A-0B625565F02B";
shapes = (
{
closed = 1;
nodes = (
(402,-10,o),
(508,63,o),
(508,201,cs),
(508,263,o),
(482,310,o),
(441,341,c),
(401,373,o),
(346,388,o),
(291,388,c),
(291,372,l),
(358,381,o),
(403,406,o),
(434,438,cs),
(463,469,o),
(476,509,o),
(476,546,cs),
(476,591,o),
(459,632,o),
(426,662,cs),
(393,692,o),
(341,710,o),
(275,710,cs),
(231,710,o),
(192,702,o),
(160,690,cs),
(128,677,o),
(102,660,o),
(83,641,c),
(108,610,l),
(131,633,o),
(158,646,o),
(186,655,cs),
(213,664,o),
(241,666,o),
(268,666,cs),
(319,666,o),
(360,655,o),
(388,635,cs),
(416,614,o),
(431,585,o),
(431,546,cs),
(431,501,o),
(409,465,o),
(377,439,cs),
(345,413,o),
(300,398,o),
(253,398,cs),
(202,398,l),
(202,357,l),
(266,357,ls),
(333,357,o),
(383,340,o),
(416,311,cs),
(448,282,o),
(463,241,o),
(463,197,cs),
(463,85,o),
(377,34,o),
(274,34,cs),
(224,34,o),
(185,45,o),
(155,61,c),
(124,76,o),
(102,100,o),
(83,123,c),
(50,90,l),
(105,26,o),
(178,-10,o),
(273,-10,cs)
);
}
);
width = 566;
}
);
leftKerningGroup = uni0417_2;
rightKerningGroup = uni0417;
unicode = 1047;
},
{
glyphname = Icyr;
layers = (
{
layerId = "0CD817DE-E207-40E9-9EE5-B2F928C7D041";
shapes = (
{
closed = 1;
nodes = (
(78,0,l),
(193,0,l),
(586,469,l),
(514,502,l),
(514,0,l),
(694,0,l),
(694,700,l),
(579,700,l),
(229,282,l),
(258,257,l),
(258,700,l),
(78,700,l)
);
}
);
width = 772;
},
{
layerId = "F7A2C943-FF27-42DD-BB53-36E69242D1D6";
shapes = (
{
closed = 1;
nodes = (
(109,0,l),
(166,0,l),
(607,571,l),
(573,586,l),
(573,0,l),
(663,0,l),
(663,700,l),
(608,700,l),
(181,148,l),
(199,139,l),
(199,701,l),
(109,701,l)
);
}
);
width = 772;
},
{
layerId = "CEB2CA40-D0FD-4F6E-AD1A-0B625565F02B";
shapes = (
{
closed = 1;
nodes = (
(123,0,l),
(152,0,l),
(620,626,l),
(604,640,l),
(604,0,l),
(649,0,l),
(649,700,l),
(622,700,l),
(152,70,l),
(168,60,l),
(168,701,l),
(123,701,l)
);
}
);
width = 772;
}
);
rightKerningGroup = uni0418;
unicode = 1048;
},
{
glyphname = Elcyr;
layers = (
{
layerId = "0CD817DE-E207-40E9-9EE5-B2F928C7D041";
shapes = (
{
closed = 1;
nodes = (
(84,-8,o),
(109,-4,o),
(132,5,cs),
(177,22,o),
(213,56,o),
(239,106,cs),
(252,131,o),
(262,160,o),
(271,193,cs),
(288,260,o),
(296,342,o),
(296,439,cs),
(296,550,l),
(437,550,l),
(437,0,l),
(617,0,l),
(617,700,l),
(128,700,l),
(128,536,ls),
(128,495,o),
(128,458,o),
(127,423,cs),
(125,354,o),
(119,296,o),
(110,253,cs),
(105,231,o),
(99,213,o),
(92,198,cs),
(77,168,o),
(58,152,o),
(30,152,cs),
(27,152,o),
(23,152,o),
(18,153,c),
(19,-5,l),
(32,-8,o),
(45,-8,o),
(57,-8,cs)
);
}
);
width = 687;
},
{
layerId = "F7A2C943-FF27-42DD-BB53-36E69242D1D6";
shapes = (
{
closed = 1;
nodes = (
(85,-8,o),
(102,-5,o),
(118,0,cs),
(149,11,o),
(175,35,o),
(199,79,c),
(210,101,o),
(220,129,o),
(228,163,cs),
(243,231,o),
(252,324,o),
(252,449,cs),
(252,618,l),
(489,618,l),
(489,0,l),
(579,0,l),
(579,700,l),
(164,700,l),
(164,488,ls),
(164,431,o),
(163,381,o),
(161,339,cs),
(156,254,o),
(147,194,o),
(134,156,cs),
(127,137,o),
(120,122,o),
(112,111,cs),
(96,89,o),
(77,81,o),
(56,81,cs),
(47,81,o),
(37,83,o),
(30,84,c),
(30,-3,l),
(37,-6,o),
(51,-8,o),
(68,-8,cs)
);
}
);
width = 687;
},
{
layerId = "CEB2CA40-D0FD-4F6E-AD1A-0B625565F02B";
shapes = (
{
closed = 1;
nodes = (
(74,-8,o),
(88,-5,o),
(101,1,cs),
(127,12,o),
(150,40,o),
(170,85,cs),
(180,108,o),
(189,137,o),
(197,172,cs),
(212,242,o),
(221,336,o),
(221,463,cs),
(221,658,l),
(507,658,l),
(507,0,l),
(552,0,l),
(552,700,l),
(175,700,l),
(175,476,ls),
(175,416,o),
(173,364,o),
(170,319,cs),
(163,230,o),
(152,166,o),
(137,123,cs),
(129,102,o),
(121,85,o),
(112,73,cs),
(95,48,o),
(75,40,o),
(58,40,cs),
(49,40,o),
(39,41,o),
(27,46,c),
(27,-2,l),
(35,-5,o),
(46,-8,o),
(61,-8,cs)
);
}
);
width = 687;
}
);
leftKerningGroup = uni041B;
rightKerningGroup = uni0418;
unicode = 1051;
},
{
glyphname = Pecyr;
layers = (
{
layerId = "0CD817DE-E207-40E9-9EE5-B2F928C7D041";
shapes = (
{
closed = 1;
nodes = (
(68,0,l),
(248,0,l),
(248,632,l),
(175,550,l),
(563,550,l),
(484,616,l),
(484,0,l),
(664,0,l),
(664,700,l),
(68,700,l)
);
}
);
width = 733;
},
{
layerId = "F7A2C943-FF27-42DD-BB53-36E69242D1D6";
shapes = (
{
closed = 1;
nodes = (
(107,0,l),
(197,0,l),
(197,650,l),
(166,618,l),
(567,618,l),
(535,648,l),
(535,0,l),
(625,0,l),
(625,700,l),
(107,700,l)
);
}
);
width = 733;
},
{
layerId = "CEB2CA40-D0FD-4F6E-AD1A-0B625565F02B";
shapes = (
{
closed = 1;
nodes = (
(123,0,l),
(168,0,l),
(168,662,l),
(160,658,l),
(568,658,l),
(564,662,l),
(564,0,l),
(608,0,l),
(608,700,l),
(123,700,l)
);
}
);
width = 733;
}
);
rightKerningGroup = uni0418;
unicode = 1055;
},
{
glyphname = Ucyr;
layers = (
{
layerId = "0CD817DE-E207-40E9-9EE5-B2F928C7D041";
shapes = (
{
closed = 1;
nodes = (
(223,-8,o),
(260,-2,o),
(295,18,cs),
(330,38,o),
(363,72,o),
(387,131,cs),
(617,680,l),
(617,700,l),
(451,700,l),
(257,216,ls),
(246,189,o),
(235,173,o),
(222,164,cs),
(209,155,o),
(192,152,o),
(171,152,cs),
(156,152,o),
(149,154,o),
(142,155,c),
(142,-2,l),
(157,-6,o),
(173,-8,o),
(190,-8,cs)
);
},
{
closed = 1;
nodes = (
(273,159,l),
(405,258,l),
(183,700,l),
(0,700,l),
(0,680,l)
);
}
);
width = 617;
},
{
layerId = "F7A2C943-FF27-42DD-BB53-36E69242D1D6";
shapes = (
{
closed = 1;
nodes = (
(225,-8,o),
(254,-2,o),
(280,17,cs),
(306,36,o),
(331,67,o),
(351,116,c),
(596,680,l),
(596,700,l),
(512,700,l),
(279,153,ls),
(268,128,o),
(255,110,o),
(239,98,cs),
(223,86,o),
(207,81,o),
(188,81,cs),
(180,81,o),
(170,80,o),
(157,83,c),
(157,-5,l),
(172,-8,o),
(183,-8,o),
(196,-8,cs)
);
},
{
closed = 1;
nodes = (
(298,129,l),
(344,225,l),
(111,700,l),
(21,700,l),
(21,680,l)
);
}
);
width = 617;
},
{
layerId = "CEB2CA40-D0FD-4F6E-AD1A-0B625565F02B";
shapes = (
{
closed = 1;
nodes = (
(230,-8,o),
(255,0,o),
(277,17,cs),
(299,34,o),
(320,64,o),
(337,107,c),
(581,679,l),
(581,700,l),
(543,700,l),
(300,117,ls),
(289,92,o),
(276,73,o),
(260,58,cs),
(244,43,o),
(225,36,o),
(202,36,cs),
(193,36,o),
(185,36,o),
(170,39,c),
(170,-5,l),
(182,-8,o),
(192,-8,o),
(203,-8,cs)
);
},
{
closed = 1;
nodes = (
(316,107,l),
(335,161,l),
(73,700,l),
(36,700,l),
(36,679,l)
);
}
);
width = 617;
}
);
leftKerningGroup = uni0423_2;
rightKerningGroup = uni0423;
unicode = 1059;
},
{
glyphname = Efcyr;
layers = (
{
layerId = "0CD817DE-E207-40E9-9EE5-B2F928C7D041";
shapes = (
{
closed = 1;
nodes = (
(506,191,l),
(506,36,l),
(518,36,ls),
(718,36,o),
(867,149,o),
(867,357,cs),
(867,450,o),
(833,531,o),
(773,588,cs),
(712,644,o),
(625,678,o),
(520,678,cs),
(504,678,l),
(504,523,l),
(519,523,ls),
(570,523,o),
(609,508,o),
(636,480,cs),
(663,452,o),
(677,410,o),
(677,357,cs),
(677,255,o),
(627,191,o),
(521,191,cs)
);
},
{
closed = 1;
nodes = (
(370,36,l),
(370,191,l),
(355,191,ls),
(304,191,o),
(265,206,o),
(238,234,cs),
(211,262,o),
(197,304,o),
(197,357,cs),
(197,459,o),
(247,523,o),
(353,523,cs),
(368,523,l),
(368,678,l),
(356,678,ls),
(158,678,o),
(7,564,o),
(7,357,cs),
(7,264,o),
(41,184,o),
(102,127,cs),
(162,70,o),
(249,36,o),
(354,36,cs)
);
},
{
closed = 1;
nodes = (
(527,736,l),
(347,736,l),
(347,-34,l),
(527,-34,l)
);
}
);
width = 874;
},
{
layerId = "F7A2C943-FF27-42DD-BB53-36E69242D1D6";
shapes = (
{
closed = 1;
nodes = (
(469,117,l),
(469,36,l),
(481,36,ls),
(674,36,o),
(822,158,o),
(822,356,cs),
(822,449,o),
(787,530,o),
(727,587,cs),
(667,644,o),
(582,678,o),
(483,678,cs),
(467,678,l),
(467,597,l),
(482,597,ls),
(552,597,o),
(613,573,o),
(657,531,cs),
(702,490,o),
(728,429,o),
(728,355,cs),
(728,208,o),
(631,117,o),
(484,117,cs)
);
},
{
closed = 1;
nodes = (
(407,36,l),
(407,117,l),
(392,117,ls),
(322,117,o),
(261,141,o),
(217,183,c),
(172,223,o),
(146,285,o),
(146,359,cs),
(146,505,o),
(244,597,o),
(390,597,cs),
(405,597,l),
(405,678,l),
(393,678,ls),
(201,678,o),
(52,556,o),
(52,358,cs),
(52,265,o),
(87,184,o),
(147,127,cs),
(207,70,o),
(292,36,o),
(391,36,cs)
);
},
{
closed = 1;
nodes = (
(480,736,l),
(390,736,l),
(390,-34,l),
(480,-34,l)
);
}
);
width = 874;
},
{
layerId = "CEB2CA40-D0FD-4F6E-AD1A-0B625565F02B";
shapes = (
{
closed = 1;
nodes = (
(451,79,l),
(451,36,l),
(463,36,ls),
(655,36,o),
(799,163,o),
(799,359,cs),
(799,451,o),
(763,531,o),
(703,588,cs),
(643,644,o),
(559,678,o),
(465,678,cs),
(449,678,l),
(449,635,l),
(464,635,ls),
(543,635,o),
(615,608,o),
(668,560,cs),
(721,512,o),
(753,442,o),
(753,358,cs),
(753,186,o),
(636,79,o),
(466,79,cs)
);
},
{
closed = 1;
nodes = (
(425,36,l),
(425,79,l),
(410,79,ls),
(331,79,o),
(259,107,o),
(206,156,cs),
(153,205,o),
(120,275,o),
(120,359,cs),
(120,529,o),
(240,635,o),
(408,635,cs),
(423,635,l),
(423,678,l),
(411,678,ls),
(221,678,o),
(74,553,o),
(74,357,cs),
(74,265,o),
(110,184,o),
(170,127,cs),
(230,70,o),
(315,36,o),
(409,36,cs)
);
},
{
closed = 1;
nodes = (
(459,736,l),
(414,736,l),
(414,-34,l),
(459,-34,l)
);
}
);
width = 874;
}
);
leftKerningGroup = uni041E_2;
rightKerningGroup = uni041E;
unicode = 1060;
},
{
glyphname = Checyr;
layers = (
{
layerId = "0CD817DE-E207-40E9-9EE5-B2F928C7D041";
shapes = (
{
closed = 1;
nodes = (
(350,252,o),
(414,270,o),
(449,285,c),
(449,439,l),
(393,416,o),
(340,407,o),
(296,407,cs),
(261,407,o),
(239,412,o),
(226,422,cs),
(213,432,o),
(208,446,o),
(208,469,cs),
(208,700,l),
(28,700,l),
(28,461,ls),
(28,380,o),
(51,328,o),
(94,296,cs),
(137,264,o),
(199,252,o),
(278,252,cs)
);
},
{
closed = 1;
nodes = (
(401,0,l),
(581,0,l),
(581,700,l),
(401,700,l)
);
}
);
width = 636;
},
{
layerId = "F7A2C943-FF27-42DD-BB53-36E69242D1D6";
shapes = (
{
closed = 1;
nodes = (
(356,276,o),
(420,284,o),
(455,291,c),
(455,375,l),
(399,364,o),
(346,361,o),
(302,361,cs),
(243,361,o),
(207,368,o),
(186,385,cs),
(165,402,o),
(157,429,o),
(157,469,cs),
(157,700,l),
(67,700,l),
(67,461,ls),
(67,390,o),
(87,343,o),
(124,315,cs),
(161,286,o),
(216,276,o),
(284,276,cs)
);
},
{
closed = 1;
nodes = (
(441,0,l),
(531,0,l),
(531,700,l),
(441,700,l)
);
}
);
width = 636;
},
{
layerId = "CEB2CA40-D0FD-4F6E-AD1A-0B625565F02B";
shapes = (
{
closed = 1;
nodes = (
(361,289,o),
(431,298,o),
(482,317,c),
(482,360,l),
(410,339,o),
(356,332,o),
(301,332,cs),
(236,332,o),
(193,342,o),
(168,365,cs),
(143,388,o),
(133,422,o),
(133,471,cs),
(133,700,l),
(88,700,l),
(88,461,ls),
(88,396,o),
(107,352,o),
(143,326,cs),
(179,300,o),
(230,289,o),
(297,289,cs)
);
},
{
closed = 1;
nodes = (
(473,0,l),
(517,0,l),
(517,700,l),
(473,700,l)
);
}
);
width = 636;
}
);
leftKerningGroup = uni0427;
rightKerningGroup = uni0418;
unicode = 1063;
},
{
glyphname = Tsecyr;
layers = (
{
layerId = "0CD817DE-E207-40E9-9EE5-B2F928C7D041";
shapes = (
{
closed = 1;
nodes = (
(580,-150,l),
(740,-150,l),
(740,150,l),
(655,150,l),
(655,700,l),
(475,700,l),
(475,150,l),
(252,150,l),
(252,700,l),
(72,700,l),
(72,0,l),
(580,0,l)
);
}
);
width = 760;
},
{
layerId = "F7A2C943-FF27-42DD-BB53-36E69242D1D6";
shapes = (
{
closed = 1;
nodes = (
(627,-133,l),
(713,-133,l),
(713,82,l),
(615,82,l),
(615,700,l),
(525,700,l),
(525,82,l),
(198,82,l),
(198,700,l),
(108,700,l),
(108,0,l),
(627,0,l)
);
}
);
width = 760;
},
{
layerId = "CEB2CA40-D0FD-4F6E-AD1A-0B625565F02B";
shapes = (
{
closed = 1;
nodes = (
(676,-124,l),
(719,-124,l),
(719,42,l),
(614,42,l),
(614,700,l),
(570,700,l),
(570,42,l),
(188,42,l),
(188,700,l),
(143,700,l),
(143,0,l),
(676,0,l)
);
}
);
width = 760;
}
);
rightKerningGroup = uni0414;
unicode = 1062;
},
{
glyphname = Shacyr;
layers = (
{
layerId = "0CD817DE-E207-40E9-9EE5-B2F928C7D041";
shapes = (
{
closed = 1;
nodes = (
(44,0,l),
(914,0,l),
(914,700,l),
(734,700,l),
(734,150,l),
(569,150,l),
(569,700,l),
(389,700,l),
(389,150,l),
(224,150,l),
(224,700,l),
(44,700,l)
);
}
);
width = 958;
},
{
layerId = "F7A2C943-FF27-42DD-BB53-36E69242D1D6";
shapes = (
{
closed = 1;
nodes = (
(103,0,l),
(855,0,l),
(855,700,l),
(765,700,l),
(765,82,l),
(524,82,l),
(524,700,l),
(434,700,l),
(434,82,l),
(193,82,l),
(193,700,l),
(103,700,l)
);
}
);
width = 958;
},
{
layerId = "CEB2CA40-D0FD-4F6E-AD1A-0B625565F02B";
shapes = (
{
closed = 1;
nodes = (
(124,0,l),
(834,0,l),
(834,700,l),
(789,700,l),
(789,42,l),
(501,42,l),
(501,700,l),
(456,700,l),
(456,42,l),
(169,42,l),
(169,700,l),
(124,700,l)
);
}
);
width = 958;
}
);
rightKerningGroup = uni0418;
unicode = 1064;
},
{
glyphname = Shchacyr;
layers = (
{
layerId = "0CD817DE-E207-40E9-9EE5-B2F928C7D041";
shapes = (
{
closed = 1;
nodes = (
(842,-150,l),
(1002,-150,l),
(1002,150,l),
(917,150,l),
(917,700,l),
(737,700,l),
(737,150,l),
(572,150,l),
(572,700,l),
(392,700,l),
(392,150,l),
(227,150,l),
(227,700,l),
(47,700,l),
(47,0,l),
(842,0,l)
);
}
);
width = 996;
},
{
layerId = "F7A2C943-FF27-42DD-BB53-36E69242D1D6";
shapes = (
{
closed = 1;
nodes = (
(868,-133,l),
(953,-133,l),
(953,82,l),
(855,82,l),
(855,700,l),
(765,700,l),
(765,82,l),
(525,82,l),
(525,700,l),
(435,700,l),
(435,82,l),
(194,82,l),
(194,700,l),
(104,700,l),
(104,0,l),
(868,0,l)
);
}
);
width = 996;
},
{
layerId = "CEB2CA40-D0FD-4F6E-AD1A-0B625565F02B";
shapes = (
{
closed = 1;
nodes = (
(914,-124,l),
(956,-124,l),
(956,42,l),
(852,42,l),
(852,700,l),
(807,700,l),
(807,42,l),
(519,42,l),
(519,700,l),
(474,700,l),
(474,42,l),
(187,42,l),
(187,700,l),
(142,700,l),
(142,0,l),
(914,0,l)
);
}
);
width = 996;
}
);
rightKerningGroup = uni0414;
unicode = 1065;
},
{
glyphname = Dzhecyr;
layers = (
{
layerId = "0CD817DE-E207-40E9-9EE5-B2F928C7D041";
shapes = (
{
closed = 1;
nodes = (
(278,-150,l),
(438,-150,l),
(438,0,l),
(649,0,l),
(649,700,l),
(469,700,l),
(469,150,l),
(246,150,l),
(246,700,l),
(66,700,l),
(66,0,l),
(278,0,l)
);
}
);
width = 716;
},
{
layerId = "F7A2C943-FF27-42DD-BB53-36E69242D1D6";
shapes = (
{
closed = 1;
nodes = (
(316,-133,l),
(400,-133,l),
(400,0,l),
(609,0,l),
(609,700,l),
(519,700,l),
(519,82,l),
(197,82,l),
(197,700,l),
(107,700,l),
(107,0,l),
(316,0,l)
);
}
);
width = 716;
},
{
layerId = "CEB2CA40-D0FD-4F6E-AD1A-0B625565F02B";
shapes = (
{
closed = 1;
nodes = (
(336,-124,l),
(379,-124,l),
(379,0,l),
(593,0,l),
(593,700,l),
(548,700,l),
(548,42,l),
(166,42,l),
(166,700,l),
(122,700,l),
(122,0,l),
(336,0,l)
);
}
);
width = 716;
}
);
rightKerningGroup = uni0418;
unicode = 1039;
},
{
glyphname = Softcyr;
layers = (
{
layerId = "0CD817DE-E207-40E9-9EE5-B2F928C7D041";
shapes = (
{
closed = 1;
nodes = (
(46,0,l),
(294,0,ls),
(444,0,o),
(563,80,o),
(563,240,cs),
(563,319,o),
(535,376,o),
(487,416,cs),
(439,455,o),
(371,474,o),
(294,474,cs),
(226,474,l),
(226,700,l),
(46,700,l)
);
},
{
closed = 1;
nodes = (
(226,150,l),
(226,324,l),
(268,324,ls),
(308,324,o),
(337,314,o),
(355,299,cs),
(373,283,o),
(380,262,o),
(380,238,cs),
(380,174,o),
(328,150,o),
(271,150,cs)
);
}
);
width = 571;
},
{
layerId = "F7A2C943-FF27-42DD-BB53-36E69242D1D6";
shapes = (
{
closed = 1;
nodes = (
(103,0,l),
(293,0,ls),
(426,0,o),
(530,85,o),
(530,222,cs),
(530,285,o),
(507,338,o),
(466,378,cs),
(425,417,o),
(366,440,o),
(293,440,cs),
(193,440,l),
(193,700,l),
(103,700,l)
);
},
{
closed = 1;
nodes = (
(193,82,l),
(193,358,l),
(281,358,ls),
(334,358,o),
(373,344,o),
(399,319,c),
(424,293,o),
(437,259,o),
(437,221,cs),
(437,129,o),
(369,82,o),
(281,82,cs)
);
}
);
width = 571;
},
{
layerId = "CEB2CA40-D0FD-4F6E-AD1A-0B625565F02B";
shapes = (
{
closed = 1;
nodes = (
(132,0,l),
(291,0,ls),
(415,0,o),
(512,86,o),
(512,213,cs),
(512,267,o),
(492,318,o),
(455,358,cs),
(417,397,o),
(362,422,o),
(291,422,cs),
(177,422,l),
(177,700,l),
(132,700,l)
);
},
{
closed = 1;
nodes = (
(177,42,l),
(177,379,l),
(287,379,ls),
(345,379,o),
(390,360,o),
(420,330,cs),
(451,299,o),
(466,257,o),
(466,212,cs),
(466,106,o),
(389,42,o),
(286,42,cs)
);
}
);
width = 571;
}
);
rightKerningGroup = uni042C;
unicode = 1068;
},
{
glyphname = Hardcyr;
layers = (
{
layerId = "0CD817DE-E207-40E9-9EE5-B2F928C7D041";
shapes = (
{
closed = 1;
nodes = (
(292,474,l),
(292,700,l),
(-11,700,l),
(-11,550,l),
(112,550,l),
(112,0,l),
(360,0,ls),
(510,0,o),
(629,80,o),
(629,240,cs),
(629,319,o),
(601,376,o),
(553,416,cs),
(505,455,o),
(437,474,o),
(360,474,cs)
);
},
{
closed = 1;
nodes = (
(292,150,l),
(292,324,l),
(334,324,ls),
(374,324,o),
(403,314,o),
(421,299,cs),
(439,283,o),
(446,262,o),
(446,238,cs),
(446,174,o),
(394,150,o),
(337,150,cs)
);
}
);
width = 624;
},
{
layerId = "F7A2C943-FF27-42DD-BB53-36E69242D1D6";
shapes = (
{
closed = 1;
nodes = (
(249,440,l),
(249,700,l),
(22,700,l),
(22,618,l),
(158,618,l),
(158,0,l),
(348,0,ls),
(481,0,o),
(585,85,o),
(585,222,cs),
(585,285,o),
(562,338,o),
(521,378,cs),
(480,417,o),
(421,440,o),
(348,440,cs)
);
},
{
closed = 1;
nodes = (
(249,82,l),
(249,358,l),
(336,358,ls),
(389,358,o),
(428,344,o),
(454,319,cs),
(480,293,o),
(492,259,o),
(492,221,cs),
(492,129,o),
(424,82,o),
(336,82,cs)
);
}
);
width = 624;
},
{
layerId = "CEB2CA40-D0FD-4F6E-AD1A-0B625565F02B";
shapes = (
{
closed = 1;
nodes = (
(244,422,l),
(244,700,l),
(31,700,l),
(31,658,l),
(199,658,l),
(199,0,l),
(358,0,ls),
(483,0,o),
(580,85,o),
(580,213,cs),
(580,267,o),
(560,318,o),
(522,358,cs),
(485,397,o),
(429,422,o),
(358,422,cs)
);
},
{
closed = 1;
nodes = (
(244,42,l),
(244,379,l),
(354,379,ls),
(412,379,o),
(458,360,o),
(489,330,c),
(519,299,o),
(534,257,o),
(534,212,cs),
(534,106,o),
(455,42,o),
(353,42,cs)
);
}
);
width = 624;
}
);
leftKerningGroup = uni0422;
rightKerningGroup = uni042C;
unicode = 1066;
},
{
glyphname = Ylongcyr;
layers = (
{
layerId = "0CD817DE-E207-40E9-9EE5-B2F928C7D041";
shapes = (
{
closed = 1;
nodes = (
(43,0,l),
(275,0,ls),
(425,0,o),
(545,81,o),
(545,241,cs),
(545,320,o),
(516,378,o),
(468,417,cs),
(420,456,o),
(352,475,o),
(275,475,cs),
(223,475,l),
(223,700,l),
(43,700,l)
);
},
{
closed = 1;
nodes = (
(223,150,l),
(223,325,l),
(249,325,ls),
(289,325,o),
(318,315,o),
(336,300,cs),
(354,284,o),
(362,263,o),
(362,239,cs),
(362,175,o),
(309,150,o),
(252,150,cs)
);
},
{
closed = 1;
nodes = (
(591,0,l),
(771,0,l),
(771,700,l),
(591,700,l)
);
}
);
width = 814;
},
{
layerId = "F7A2C943-FF27-42DD-BB53-36E69242D1D6";
shapes = (
{
closed = 1;
nodes = (
(103,0,l),
(281,0,ls),
(412,0,o),
(518,86,o),
(518,222,cs),
(518,285,o),
(495,339,o),
(453,378,cs),
(411,417,o),
(353,440,o),
(281,440,cs),
(193,440,l),
(193,700,l),
(103,700,l)
);
},
{
closed = 1;
nodes = (
(193,82,l),
(193,358,l),
(269,358,ls),
(320,358,o),
(359,344,o),
(385,319,cs),
(411,293,o),
(425,260,o),
(425,221,cs),
(425,130,o),
(354,82,o),
(269,82,cs)
);
},
{
closed = 1;
nodes = (
(621,0,l),
(711,0,l),
(711,700,l),
(621,700,l)
);
}
);
width = 814;
},
{
layerId = "CEB2CA40-D0FD-4F6E-AD1A-0B625565F02B";
shapes = (
{
closed = 1;
nodes = (
(134,0,l),
(284,0,ls),
(406,0,o),
(504,88,o),
(504,213,cs),
(504,266,o),
(484,318,o),
(446,357,cs),
(408,396,o),
(353,420,o),
(284,420,cs),
(179,420,l),
(179,700,l),
(134,700,l)
);
},
{
closed = 1;
nodes = (
(179,42,l),
(179,378,l),
(278,378,ls),
(334,378,o),
(380,359,o),
(411,328,cs),
(442,298,o),
(459,257,o),
(459,212,cs),
(459,107,o),
(378,42,o),
(278,42,cs)
);
},
{
closed = 1;
nodes = (
(635,0,l),
(680,0,l),
(680,700,l),
(635,700,l)
);
}
);
width = 814;
}
);
rightKerningGroup = uni0418;
unicode = 1067;
},
{
glyphname = Ljecyr;
layers = (
{
layerId = "0CD817DE-E207-40E9-9EE5-B2F928C7D041";
shapes = (
{
closed = 1;
nodes = (
(51,-8,o),
(76,-4,o),
(99,4,cs),
(144,20,o),
(180,51,o),
(206,99,cs),
(219,123,o),
(229,151,o),
(238,183,cs),
(255,247,o),
(263,329,o),
(263,426,cs),
(263,550,l),
(404,550,l),
(404,0,l),
(651,0,ls),
(801,0,o),
(921,81,o),
(921,241,cs),
(921,320,o),
(892,378,o),
(844,417,cs),
(796,456,o),
(728,475,o),
(651,475,cs),
(584,475,l),
(584,700,l),
(95,700,l),
(95,536,ls),
(95,415,o),
(92,319,o),
(78,253,cs),
(64,187,o),
(38,152,o),
(-3,152,cs),
(-6,152,o),
(-10,152,o),
(-15,153,c),
(-14,-5,l),
(-1,-8,o),
(12,-8,o),
(24,-8,cs)
);
},
{
closed = 1;
nodes = (
(584,150,l),
(584,325,l),
(625,325,ls),
(665,325,o),
(694,315,o),
(712,300,cs),
(730,284,o),
(738,263,o),
(738,239,cs),
(738,175,o),
(685,150,o),
(628,150,cs)
);
}
);
width = 950;
},
{
layerId = "F7A2C943-FF27-42DD-BB53-36E69242D1D6";
shapes = (
{
closed = 1;
nodes = (
(80,-8,o),
(97,-6,o),
(113,0,cs),
(144,10,o),
(171,35,o),
(194,78,cs),
(205,100,o),
(214,128,o),
(223,162,c),
(238,229,o),
(247,321,o),
(247,447,cs),
(247,618,l),
(479,618,l),
(479,0,l),
(669,0,ls),
(800,0,o),
(906,86,o),
(906,222,cs),
(906,285,o),
(883,339,o),
(841,378,cs),
(799,417,o),
(741,440,o),
(669,440,cs),
(569,440,l),
(569,700,l),
(158,700,l),
(158,485,ls),
(158,316,o),
(148,214,o),
(129,156,cs),
(109,98,o),
(83,81,o),
(50,81,cs),
(42,81,o),
(32,83,o),
(25,85,c),
(25,-3,l),
(32,-6,o),
(45,-8,o),
(63,-8,cs)
);
},
{
closed = 1;
nodes = (
(569,82,l),
(569,358,l),
(657,358,ls),
(708,358,o),
(746,344,o),
(773,319,c),
(799,293,o),
(813,260,o),
(813,221,cs),
(813,130,o),
(742,82,o),
(657,82,cs)
);
}
);
width = 950;
},
{
layerId = "CEB2CA40-D0FD-4F6E-AD1A-0B625565F02B";
shapes = (
{
closed = 1;
nodes = (
(87,-8,o),
(100,-5,o),
(113,0,c),
(138,12,o),
(162,39,o),
(183,85,c),
(192,107,o),
(201,137,o),
(209,172,cs),
(224,242,o),
(233,336,o),
(233,463,cs),
(233,658,l),
(503,658,l),
(503,0,l),
(655,0,ls),
(776,0,o),
(875,88,o),
(875,213,cs),
(875,266,o),
(855,318,o),
(817,356,cs),
(779,394,o),
(724,420,o),
(655,420,cs),
(548,420,l),
(548,700,l),
(188,700,l),
(188,476,ls),
(188,296,o),
(172,187,o),
(149,124,cs),
(126,60,o),
(98,40,o),
(71,40,cs),
(62,40,o),
(52,42,o),
(41,45,c),
(41,-2,l),
(48,-5,o),
(59,-8,o),
(74,-8,cs)
);
},
{
closed = 1;
nodes = (
(548,42,l),
(548,378,l),
(650,378,ls),
(707,378,o),
(751,358,o),
(782,328,cs),
(812,298,o),
(830,257,o),
(830,212,cs),
(830,107,o),
(750,42,o),
(648,42,cs)
);
}
);
width = 950;
}
);
leftKerningGroup = uni041B;
rightKerningGroup = uni042C;
unicode = 1033;
},
